{"glyphs":{"0":{"ha":642,"x_min":61,"x_max":578,"o":"m 378 892 q 481 841 439 889 q 543 726 522 793 q 571 471 578 599 q 522 217 564 343 q 396 25 475 75 q 286 -3 339 -11 q 186 54 231 6 q 88 288 119 128 q 72 538 63 417 q 124 783 83 669 q 143 835 135 814 q 168 884 151 856 q 202 928 185 913 q 246 953 219 944 q 301 954 272 961 q 333 934 321 949 q 342 901 344 919 q 336 885 340 893 q 378 892 357 892 m 293 861 l 293 860 q 288 860 289 860 q 293 860 290 860 q 289 857 290 858 q 283 849 288 854 q 296 860 289 854 q 300 861 299 861 q 296 861 297 861 q 297 863 297 861 q 293 861 294 863 m 493 271 q 503 701 560 504 q 392 851 465 829 q 319 831 350 865 q 285 753 288 797 q 273 738 283 743 q 253 738 263 733 q 244 753 243 743 q 244 757 244 754 q 225 693 233 725 q 193 478 199 597 q 203 276 189 372 q 268 97 222 156 q 324 60 293 64 q 404 94 361 54 q 493 271 458 147 z "},"1":{"ha":397,"x_min":67,"x_max":331,"o":"m 328 904 q 323 764 326 847 q 316 604 319 681 q 313 464 313 528 q 313 244 311 354 q 313 197 313 238 q 314 135 314 157 q 315 108 314 128 q 315 77 315 88 q 314 51 315 67 q 310 21 313 35 q 279 -11 303 -3 q 231 -10 256 -19 q 199 21 206 0 q 192 51 194 35 q 188 79 189 68 q 187 111 188 90 q 185 139 186 132 q 181 244 183 175 q 179 464 179 354 q 192 854 181 719 q 139 783 151 818 q 96 764 128 753 q 69 794 67 772 q 86 817 71 807 q 149 866 110 832 q 197 908 188 900 q 235 953 203 940 q 299 953 268 967 q 328 904 329 939 z "},"2":{"ha":640,"x_min":61,"x_max":575,"o":"m 485 924 q 552 828 531 885 q 572 713 574 771 q 557 596 569 656 q 406 274 519 440 q 292 125 353 196 q 289 123 290 125 q 288 121 288 121 q 343 126 315 125 q 542 38 500 135 q 518 -8 554 7 q 460 1 482 -22 q 450 26 451 13 q 406 54 447 47 q 322 51 374 58 q 240 33 275 46 q 200 17 225 29 q 194 13 199 15 q 186 10 189 11 q 150 -15 168 -7 l 150 -14 q 91 -12 121 -28 q 72 36 61 3 q 78 51 74 43 q 85 64 82 58 q 95 78 89 69 q 105 90 101 86 q 115 103 108 94 q 126 115 122 111 q 182 183 158 153 q 292 326 258 278 q 431 592 386 463 q 442 876 493 774 q 349 943 411 939 q 236 894 288 947 q 189 767 197 853 q 189 716 188 735 q 193 667 190 697 q 196 617 196 636 q 166 588 197 589 q 125 608 135 586 q 106 706 107 650 q 121 806 104 763 q 222 942 157 897 q 358 981 289 988 q 485 924 424 974 z "},"3":{"ha":700,"x_min":68,"x_max":638,"o":"m 525 464 q 607 381 579 435 q 630 263 636 324 q 594 149 624 201 q 513 59 564 97 q 404 8 461 21 q 185 49 286 -17 q 100 126 131 83 q 69 226 74 163 q 91 249 68 244 q 122 238 114 254 q 182 155 146 193 q 260 100 218 117 q 425 118 340 69 q 517 244 497 161 q 513 333 528 289 q 458 390 499 376 q 411 397 457 392 q 354 411 382 400 q 283 501 288 439 q 288 538 282 519 q 302 569 294 556 q 326 599 310 582 q 353 624 343 617 q 384 649 363 632 q 410 671 406 667 q 479 822 489 738 q 440 900 474 867 q 361 939 407 933 q 272 919 315 944 q 203 853 228 894 q 185 757 174 804 q 208 658 207 668 q 190 635 211 640 q 158 640 168 629 q 124 767 113 686 q 167 886 133 838 q 261 962 203 938 q 382 978 319 986 q 488 940 440 971 q 561 858 536 908 q 583 740 590 801 q 536 629 576 678 q 447 543 521 613 q 413 503 418 517 l 411 497 q 411 494 411 496 q 422 490 415 492 q 435 487 429 488 q 451 485 442 486 q 464 483 460 485 q 525 464 499 478 m 413 494 z "},"4":{"ha":611,"x_min":61,"x_max":543,"o":"m 542 904 q 533 699 540 850 q 525 464 526 547 q 525 244 524 354 q 526 197 525 238 q 528 135 528 157 q 528 108 528 128 q 528 77 528 88 q 526 51 528 67 q 522 21 525 35 q 492 -11 517 -3 q 444 -10 468 -19 q 411 21 419 0 q 404 51 407 35 q 401 79 401 68 q 399 111 400 90 q 399 139 399 132 q 394 244 396 175 q 392 389 393 314 q 118 383 254 390 q 78 391 96 376 q 75 426 61 406 q 153 544 101 465 q 236 672 204 624 q 316 785 268 719 q 408 900 364 850 q 409 901 408 900 q 410 904 410 903 q 446 952 413 938 q 510 953 479 967 q 542 904 542 939 m 146 415 q 392 419 268 421 q 392 464 392 449 q 403 828 393 701 q 286 669 328 732 q 146 415 197 538 z "},"5":{"ha":694,"x_min":68,"x_max":631,"o":"m 586 608 q 621 461 611 557 q 622 301 629 374 q 489 43 603 122 q 342 -4 421 -4 q 210 53 244 -3 q 214 90 197 74 q 254 101 231 106 q 274 96 260 100 q 297 90 289 92 q 316 88 304 89 q 338 87 328 86 q 360 90 349 88 q 440 147 406 101 q 503 353 499 225 q 481 592 507 510 q 426 672 463 647 q 374 685 401 688 q 324 665 347 682 q 246 578 286 639 q 200 504 215 533 q 190 435 199 461 q 147 404 181 410 q 97 425 113 399 q 72 546 79 458 q 69 663 69 582 q 81 897 69 790 q 101 935 83 921 q 143 950 118 950 q 189 933 169 950 q 216 926 201 928 q 245 924 231 924 q 273 925 260 924 q 302 930 286 926 q 330 936 318 933 q 359 943 342 939 q 388 950 376 947 q 433 957 411 954 q 483 958 456 960 q 528 940 511 956 q 543 896 544 925 q 533 883 543 886 q 515 883 524 879 q 506 896 506 888 q 498 918 507 910 q 474 928 489 926 q 442 928 460 929 q 404 923 425 928 q 367 914 383 918 q 335 906 350 910 q 314 900 319 901 q 204 897 251 889 q 197 668 197 756 q 197 588 197 649 q 350 726 271 696 q 424 738 389 742 q 490 715 458 733 q 545 669 521 697 q 586 608 569 642 z "},"6":{"ha":707,"x_min":67,"x_max":657,"o":"m 469 558 q 561 492 522 535 q 619 393 600 449 q 620 187 657 289 q 488 28 583 85 q 289 0 390 -29 q 118 131 179 32 q 72 292 76 200 q 88 462 67 383 q 146 622 108 540 q 272 822 200 736 q 377 924 326 886 q 492 963 428 961 q 524 956 508 963 q 549 935 539 949 q 558 906 558 922 q 538 865 558 881 q 492 849 518 849 q 488 849 489 849 q 485 847 488 847 q 482 846 482 846 q 468 840 476 844 l 465 839 q 424 804 451 829 q 356 732 386 769 q 242 550 286 646 q 244 550 243 550 q 469 558 354 607 m 488 82 q 567 172 539 114 q 593 290 594 229 q 569 408 592 350 q 441 531 531 497 q 265 521 351 565 q 247 521 256 517 q 235 533 238 525 q 211 157 131 290 q 332 60 256 82 q 488 82 413 35 z "},"7":{"ha":626,"x_min":64,"x_max":569,"o":"m 478 978 q 542 960 517 986 q 550 899 568 935 q 383 461 435 672 q 340 235 353 335 q 339 222 340 235 q 390 213 364 219 q 404 201 403 210 q 399 185 406 192 q 381 181 392 178 q 335 189 357 186 q 328 121 331 150 q 328 61 326 85 q 330 48 329 57 q 331 35 331 39 q 331 24 332 31 q 328 11 331 17 q 322 0 326 6 q 274 -17 303 -25 q 249 -2 260 -12 q 232 19 238 8 q 223 47 226 31 q 218 75 219 63 q 217 104 217 88 q 217 185 215 140 q 193 183 204 183 q 176 194 181 183 q 183 211 172 206 q 219 222 199 218 q 219 224 219 222 q 219 228 219 226 q 257 478 229 358 q 400 879 306 693 q 306 894 367 883 q 115 893 249 904 q 80 907 94 892 q 71 942 65 922 q 99 967 78 961 q 138 965 121 972 q 310 942 235 929 q 399 960 342 946 q 478 978 456 974 z "},"8":{"ha":664,"x_min":61,"x_max":601,"o":"m 354 961 q 547 853 481 951 q 590 745 581 804 q 585 631 600 686 q 534 525 569 574 q 443 418 499 476 q 431 413 438 413 q 521 215 513 319 q 492 98 525 153 q 403 14 460 43 q 286 -2 346 -14 q 183 56 226 10 q 115 294 96 146 q 182 492 126 379 q 88 633 117 560 q 72 764 61 700 q 136 875 82 822 q 354 961 235 971 m 333 32 q 431 100 403 39 q 435 228 460 161 q 424 251 431 239 q 412 274 418 264 q 396 295 406 283 q 380 315 386 307 q 361 335 374 324 q 342 353 349 347 q 322 370 336 358 q 303 387 308 382 q 281 404 297 392 q 261 419 265 417 q 213 461 235 440 q 156 219 147 324 q 210 84 161 143 q 333 32 260 25 m 417 440 q 485 517 460 483 q 535 600 511 550 q 558 700 558 650 q 541 789 558 746 q 492 866 524 832 q 417 917 460 900 q 293 923 358 940 q 192 854 228 906 q 161 740 161 811 q 200 628 161 683 q 242 576 217 601 q 290 533 268 551 q 344 491 313 515 q 393 450 375 467 q 413 432 403 442 q 417 440 414 436 z "},"9":{"ha":707,"x_min":50,"x_max":642,"o":"m 418 964 q 589 835 529 933 q 636 674 632 765 q 619 503 640 582 q 561 343 599 424 q 436 143 508 228 q 330 41 381 78 q 215 1 279 4 q 169 18 190 1 q 149 60 149 35 q 169 100 149 85 q 215 117 190 115 q 219 117 218 117 q 222 117 219 117 q 226 118 225 118 q 239 125 231 119 l 242 126 q 283 161 256 135 q 351 232 321 194 q 465 415 422 318 q 463 414 464 415 q 238 407 353 357 q 146 472 185 429 q 88 572 107 515 q 87 778 50 676 q 219 936 124 881 q 418 964 317 993 m 472 432 q 497 807 576 675 q 376 906 451 882 q 221 883 294 931 q 140 792 168 850 q 114 674 113 735 q 139 556 115 614 q 267 433 178 467 q 443 444 356 400 q 461 444 453 449 q 472 432 469 440 z "},"\u0000":{"ha":0,"x_min":0,"x_max":0,"o":""},"\n":{"ha":0,"x_min":0,"x_max":0,"o":""},"\r":{"ha":0,"x_min":0,"x_max":0,"o":""}," ":{"ha":438,"x_min":0,"x_max":0,"o":""},"!":{"ha":294,"x_min":65,"x_max":226,"o":"m 175 26 q 147 8 169 7 q 117 26 124 8 q 81 247 88 108 q 74 465 75 369 q 81 904 65 768 q 103 949 83 932 q 153 967 124 965 q 203 949 179 967 q 225 904 226 931 q 219 794 224 856 q 212 685 215 733 q 204 575 208 636 q 199 465 200 514 q 194 242 193 346 q 175 26 194 106 m 189 -17 q 207 -53 208 -32 q 194 -104 203 -94 q 165 -125 182 -119 q 135 -129 150 -131 q 83 -92 96 -124 q 89 -39 79 -79 q 117 -8 93 -21 q 154 -3 132 0 q 189 -17 174 -4 z "},"\"":{"ha":369,"x_min":64,"x_max":307,"o":"m 111 947 q 152 944 131 953 q 178 915 174 935 q 178 800 192 861 q 131 701 168 757 q 117 697 126 696 q 107 707 107 699 q 72 890 119 782 q 78 926 64 908 q 111 947 92 943 m 294 915 q 293 800 307 861 q 246 701 283 757 q 232 697 242 696 q 222 707 222 699 q 188 890 235 782 q 193 926 179 908 q 226 947 207 943 q 267 944 246 953 q 294 915 289 935 z "},"“":{"ha":369,"x_min":64,"x_max":307,"o":"m 111 947 q 152 944 131 953 q 178 915 174 935 q 178 800 192 861 q 131 701 168 757 q 117 697 126 696 q 107 707 107 699 q 72 890 119 782 q 78 926 64 908 q 111 947 92 943 m 294 915 q 293 800 307 861 q 246 701 283 757 q 232 697 242 696 q 222 707 222 699 q 188 890 235 782 q 193 926 179 908 q 226 947 207 943 q 267 944 246 953 q 294 915 289 935 z "},"”":{"ha":369,"x_min":64,"x_max":307,"o":"m 111 947 q 152 944 131 953 q 178 915 174 935 q 178 800 192 861 q 131 701 168 757 q 117 697 126 696 q 107 707 107 699 q 72 890 119 782 q 78 926 64 908 q 111 947 92 943 m 294 915 q 293 800 307 861 q 246 701 283 757 q 232 697 242 696 q 222 707 222 699 q 188 890 235 782 q 193 926 179 908 q 226 947 207 943 q 267 944 246 953 q 294 915 289 935 z "},"#":{"ha":768,"x_min":68,"x_max":704,"o":"m 628 404 q 692 388 674 406 q 694 363 704 374 q 632 336 679 339 q 560 333 600 335 q 469 331 517 332 q 454 242 461 285 q 449 212 453 238 q 444 176 446 186 q 436 148 442 167 q 422 117 431 129 q 403 93 414 104 q 383 88 394 88 q 367 97 372 89 q 344 175 344 125 q 350 258 343 225 q 357 331 353 293 q 267 332 307 331 q 239 168 257 278 q 217 144 236 151 q 181 140 197 136 q 152 158 161 144 q 146 190 143 172 q 171 335 164 296 q 118 336 140 335 q 84 349 99 338 q 69 378 69 360 q 85 408 69 394 q 118 418 100 421 q 185 413 151 415 q 192 454 188 426 q 118 457 153 456 q 84 469 99 458 q 69 499 69 481 q 85 528 69 515 q 118 539 100 542 q 206 532 163 535 q 228 664 221 619 q 250 689 231 681 q 286 693 269 697 q 315 675 306 689 q 321 643 324 661 q 300 525 307 564 q 383 522 342 524 q 429 757 399 618 q 458 789 433 779 q 506 793 483 799 q 541 769 528 788 q 549 729 554 751 q 506 522 531 650 q 556 522 533 522 q 628 525 588 524 q 692 508 674 526 q 694 483 704 496 q 632 458 679 460 q 560 454 600 456 q 492 453 528 453 q 483 404 486 422 q 483 403 483 404 q 482 401 482 401 q 556 401 519 401 q 628 404 588 403 m 368 422 q 372 451 369 431 q 288 453 328 451 q 283 429 286 444 q 279 406 281 414 q 365 401 325 403 q 367 410 365 403 q 368 422 368 418 z "},"$":{"ha":575,"x_min":67,"x_max":513,"o":"m 504 343 q 459 209 513 267 q 328 143 406 151 q 322 25 325 81 q 299 4 321 7 q 272 19 276 1 q 247 149 258 82 q 189 174 217 157 q 139 213 161 190 q 99 263 117 235 q 71 321 81 290 q 74 334 67 329 q 89 337 81 339 q 101 328 97 335 q 158 240 122 278 q 242 186 194 203 q 217 465 222 318 q 215 506 217 476 q 139 544 167 521 q 101 609 110 569 q 103 685 92 649 q 211 803 128 767 q 214 915 213 861 q 246 961 215 949 q 306 961 276 974 q 336 915 336 949 q 333 814 335 857 q 344 811 340 813 q 464 711 426 788 q 471 556 501 635 q 442 544 464 539 q 429 565 425 551 q 438 663 449 611 q 390 747 428 714 q 333 778 365 768 q 331 510 331 624 q 451 449 406 486 q 504 343 497 411 m 136 640 q 214 543 135 572 q 211 764 211 660 q 172 731 189 750 q 146 688 156 713 q 136 640 136 664 m 422 222 q 463 299 454 253 q 454 386 472 344 q 331 476 425 446 q 331 473 331 475 q 331 471 331 471 q 329 178 333 299 q 422 222 383 185 z "},"%":{"ha":781,"x_min":63,"x_max":719,"o":"m 300 610 q 225 554 269 563 q 122 585 169 543 q 71 685 78 624 q 88 797 64 746 q 112 823 94 815 q 147 826 129 831 q 169 815 158 824 q 244 835 204 842 q 314 799 283 829 q 338 713 347 765 q 300 610 325 647 m 190 626 q 267 633 228 600 q 304 708 306 665 q 272 796 304 757 q 196 813 240 835 q 181 801 188 808 q 182 775 188 788 q 164 729 169 751 q 165 726 165 726 q 176 706 169 715 q 188 689 182 696 q 204 672 194 682 q 219 657 214 663 q 218 650 224 653 q 213 650 214 650 q 158 696 181 663 q 190 626 157 649 m 685 256 q 708 169 719 222 q 672 67 696 104 q 596 11 640 19 q 494 42 542 0 q 442 142 450 81 q 458 254 435 203 q 483 280 465 272 q 518 283 500 288 q 540 272 531 281 q 615 292 575 299 q 685 256 654 286 m 561 83 q 638 90 599 57 q 676 165 676 122 q 644 253 675 214 q 567 269 613 292 q 551 258 558 265 q 553 232 558 244 q 536 186 542 208 q 536 183 536 183 q 550 158 542 169 q 572 133 558 147 q 592 114 586 119 q 591 109 594 111 q 583 107 588 107 q 531 153 551 119 q 561 83 528 106 m 619 882 q 458 388 532 654 q 396 138 424 264 q 368 10 379 64 q 353 -50 361 -22 q 310 -110 344 -82 q 278 -119 299 -121 q 250 -104 258 -118 q 229 -35 225 -67 q 238 32 232 -4 q 263 160 250 101 q 325 415 290 288 q 496 911 390 653 q 527 945 504 935 q 574 950 550 956 q 613 924 597 944 q 619 882 628 904 z "},"&":{"ha":940,"x_min":61,"x_max":885,"o":"m 854 93 q 864 51 885 75 q 819 42 844 29 q 807 53 813 46 q 753 108 789 76 q 642 1 708 43 q 492 -49 575 -40 q 335 -33 410 -58 q 188 51 251 -7 q 93 189 125 108 q 72 356 63 274 q 126 517 81 439 q 271 671 176 601 q 301 792 271 742 q 425 875 343 856 q 593 861 507 893 q 650 828 636 846 q 654 763 676 794 q 633 738 646 749 q 603 718 619 726 q 573 703 588 710 q 540 690 558 697 q 510 676 521 682 q 364 590 414 629 q 356 585 360 589 q 410 502 376 546 q 470 432 444 458 q 542 363 496 406 q 692 229 554 351 l 724 203 q 739 253 733 226 q 725 421 764 356 q 673 474 706 454 q 601 494 640 493 q 573 505 585 494 q 564 531 561 515 q 581 555 567 547 q 613 560 596 563 q 756 462 700 542 q 813 289 813 382 q 779 153 813 219 q 854 93 829 108 m 342 771 q 325 707 326 742 q 394 744 360 728 q 569 810 489 790 q 592 815 590 815 q 590 817 590 817 q 576 828 588 822 q 494 842 547 840 q 404 827 446 844 q 342 771 363 810 m 558 40 q 699 156 646 72 q 639 208 665 185 q 471 353 524 310 q 304 539 347 456 q 199 339 214 447 q 214 201 189 271 q 290 86 239 131 q 419 27 344 39 q 558 40 493 15 z "},"'":{"ha":254,"x_min":64,"x_max":192,"o":"m 178 915 q 178 800 192 861 q 131 701 168 757 q 117 697 126 696 q 107 707 107 699 q 72 890 119 782 q 78 926 64 908 q 111 947 92 943 q 152 944 131 953 q 178 915 174 935 z "},"‘":{"ha":254,"x_min":64,"x_max":192,"o":"m 178 915 q 178 800 192 861 q 131 701 168 757 q 117 697 126 696 q 107 707 107 699 q 72 890 119 782 q 78 926 64 908 q 111 947 92 943 q 152 944 131 953 q 178 915 174 935 z "},"’":{"ha":254,"x_min":64,"x_max":192,"o":"m 178 915 q 178 800 192 861 q 131 701 168 757 q 117 697 126 696 q 107 707 107 699 q 72 890 119 782 q 78 926 64 908 q 111 947 92 943 q 152 944 131 953 q 178 915 174 935 z "},"(":{"ha":485,"x_min":63,"x_max":419,"o":"m 336 849 q 276 754 303 804 q 197 503 214 638 q 219 238 179 369 q 356 18 258 106 q 357 -27 381 -6 q 306 -36 333 -49 q 126 151 190 15 q 70 379 78 254 q 92 614 63 504 q 176 824 118 721 q 236 914 203 872 q 317 999 283 976 q 393 1001 357 1025 q 415 973 410 992 q 408 938 419 954 q 371 891 396 921 q 336 849 346 861 z "},")":{"ha":485,"x_min":65,"x_max":435,"o":"m 322 799 q 413 363 435 582 q 390 243 406 300 q 348 131 375 186 q 278 33 321 76 q 179 -36 235 -11 q 128 -27 151 -49 q 131 18 104 -6 q 254 197 215 94 q 268 599 326 381 q 197 776 243 696 q 140 860 171 821 q 110 896 133 869 q 78 938 88 922 q 71 973 67 956 q 92 1001 75 990 q 169 999 128 1026 q 260 900 207 972 q 322 799 296 853 z "},"*":{"ha":467,"x_min":68,"x_max":401,"o":"m 379 808 q 396 800 390 808 q 396 783 401 792 q 379 775 390 775 q 347 775 365 775 q 310 775 328 775 q 276 775 292 775 q 346 724 279 774 q 344 700 363 711 q 317 699 329 689 q 289 719 310 704 q 257 743 268 735 q 251 710 256 729 q 244 672 247 690 q 239 639 242 654 q 216 619 238 619 q 193 639 194 619 q 183 695 190 658 q 174 749 176 732 q 118 711 147 731 q 90 715 104 700 q 93 733 82 725 q 125 755 104 740 q 156 776 146 769 q 108 771 129 775 q 82 775 94 768 q 69 796 69 782 q 82 817 69 810 q 108 821 94 824 q 161 814 131 815 q 106 854 131 836 q 106 881 88 867 q 138 882 122 893 q 169 857 143 876 q 168 924 168 903 q 191 959 167 949 q 240 959 215 969 q 263 924 264 949 q 261 850 263 904 q 276 860 268 854 q 290 869 283 865 q 303 878 296 874 q 317 889 311 883 q 344 885 331 899 q 343 865 357 875 l 265 811 l 379 808 z "},"+":{"ha":458,"x_min":65,"x_max":393,"o":"m 369 453 q 387 446 382 454 q 387 428 392 438 q 369 417 382 418 q 281 410 325 413 q 281 313 279 358 q 281 260 283 289 q 269 210 279 232 q 238 188 260 192 q 204 203 217 185 q 182 251 186 228 q 176 308 181 265 q 171 407 172 363 q 135 408 153 408 l 133 407 q 92 400 118 390 q 69 433 67 410 q 99 460 74 457 q 138 447 125 464 q 168 446 153 446 q 171 625 164 553 q 202 669 172 657 q 261 669 232 682 q 289 625 290 657 q 285 536 288 596 q 281 446 282 476 q 369 453 325 449 z "},",":{"ha":258,"x_min":67,"x_max":190,"o":"m 129 129 q 151 126 140 129 q 170 116 161 122 q 184 100 179 110 q 189 79 189 90 q 140 -62 186 -7 q 105 -75 128 -79 q 81 -49 82 -71 q 69 79 71 68 q 88 115 67 100 q 129 129 108 129 z "},"-":{"ha":453,"x_min":69,"x_max":383,"o":"m 331 433 q 367 421 350 433 q 383 389 383 408 q 367 357 383 369 q 331 344 351 344 q 227 342 296 343 q 124 339 158 340 q 86 352 103 339 q 69 385 69 365 q 86 418 69 406 q 124 431 103 431 l 331 433 z "},".":{"ha":265,"x_min":67,"x_max":197,"o":"m 194 93 q 195 69 194 89 q 178 32 196 50 q 133 17 163 18 q 90 32 108 15 q 78 49 81 39 q 72 69 71 58 q 69 93 71 85 q 88 131 68 111 q 132 146 103 144 q 176 131 157 147 q 194 93 194 115 z "},"/":{"ha":460,"x_min":65,"x_max":397,"o":"m 272 956 q 313 992 281 985 q 371 979 346 999 q 388 929 396 960 q 175 44 257 451 q 149 17 171 26 q 108 13 128 8 q 77 33 88 18 q 71 69 67 49 q 272 956 169 563 z "},":":{"ha":271,"x_min":68,"x_max":201,"o":"m 135 399 q 102 406 117 399 q 78 426 88 414 q 69 454 69 439 q 89 494 69 478 q 135 510 108 510 q 168 503 153 510 q 192 483 183 496 q 201 454 201 469 q 182 415 201 432 q 135 399 163 399 m 135 314 q 181 298 160 314 q 201 257 201 282 q 191 228 201 242 q 166 208 181 215 q 135 201 151 201 q 90 217 110 201 q 69 257 69 233 q 79 287 69 274 q 104 307 89 300 q 135 314 119 314 z "},";":{"ha":271,"x_min":69,"x_max":201,"o":"m 135 399 q 102 406 117 399 q 78 426 88 414 q 69 454 69 439 q 89 494 69 478 q 135 510 108 510 q 168 503 153 510 q 192 483 183 496 q 201 454 201 469 q 182 415 201 432 q 135 399 163 399 m 165 310 q 190 285 182 301 q 193 251 197 269 q 142 140 179 200 q 108 129 131 121 q 89 158 85 138 q 76 251 96 200 q 76 278 72 264 q 92 301 81 293 q 94 303 93 301 q 97 304 96 304 q 161 311 129 326 q 165 310 163 310 z "},"<":{"ha":369,"x_min":68,"x_max":307,"o":"m 299 167 q 279 128 306 139 q 232 133 253 117 q 139 249 190 168 q 128 265 135 254 q 115 284 121 275 q 104 301 110 293 q 72 361 76 344 q 69 381 69 371 q 72 400 68 390 q 77 416 75 410 q 88 433 79 422 q 99 448 96 444 q 113 464 101 451 q 125 479 124 476 q 140 497 131 486 q 157 517 149 507 q 172 535 165 526 q 175 538 172 536 q 194 560 188 553 q 215 574 201 568 q 246 579 229 581 q 290 556 278 576 q 290 506 306 525 q 218 418 265 476 q 208 408 217 415 q 194 393 200 400 q 189 382 189 386 q 196 361 188 376 q 233 305 204 349 q 276 231 261 261 q 299 167 292 200 z "},"=":{"ha":582,"x_min":69,"x_max":515,"o":"m 124 472 q 87 485 104 471 q 69 519 69 499 q 87 552 69 539 q 124 565 104 565 q 300 565 157 564 l 386 567 q 401 567 392 567 q 417 568 411 568 q 433 568 424 568 q 449 567 442 568 q 464 565 456 567 q 479 561 472 564 q 513 529 508 551 q 508 506 514 517 q 490 490 501 494 q 390 478 463 479 l 304 476 q 124 472 157 474 m 479 404 q 513 371 508 394 q 508 348 514 360 q 490 332 501 336 q 390 321 463 322 l 304 319 q 124 314 157 317 q 99 319 111 314 q 78 336 86 325 q 69 361 69 347 q 87 394 69 381 q 124 407 104 408 q 300 408 157 407 q 386 410 357 410 q 408 410 392 410 q 434 411 425 411 q 456 409 443 411 q 479 404 469 407 z "},">":{"ha":369,"x_min":63,"x_max":301,"o":"m 228 500 q 250 475 232 494 q 276 445 268 456 q 292 416 283 435 q 300 381 301 397 q 272 313 300 353 q 233 251 267 304 q 138 133 179 168 q 90 128 117 117 q 71 167 64 139 q 93 231 78 200 q 137 305 108 261 q 174 361 165 349 q 181 382 182 376 q 174 394 179 388 q 160 410 168 401 q 149 421 151 418 q 79 506 103 478 q 79 556 64 525 q 81 557 81 556 q 82 558 81 558 q 127 580 96 582 q 175 560 158 578 q 228 500 178 558 z "},"?":{"ha":656,"x_min":57,"x_max":593,"o":"m 581 799 q 578 667 593 736 q 538 549 563 599 q 471 433 513 499 q 445 393 461 418 q 417 351 429 368 q 392 311 406 335 q 369 268 379 288 q 336 178 347 222 q 328 128 332 160 q 321 83 324 96 q 298 54 318 65 q 258 43 278 43 q 233 48 246 43 q 209 62 219 53 q 194 83 199 71 q 226 285 175 165 q 328 458 258 356 q 348 488 333 467 q 369 519 363 510 q 388 549 375 529 q 408 581 401 569 q 426 612 415 593 q 442 645 436 631 q 456 678 449 660 q 467 714 463 696 q 475 750 472 732 q 464 881 486 821 q 364 971 436 956 q 268 963 315 981 q 187 910 221 946 q 136 825 153 874 q 144 654 107 742 q 153 634 146 653 q 164 609 161 615 q 175 587 167 603 q 190 563 183 571 q 205 546 196 556 q 224 532 214 536 q 238 485 258 514 q 190 467 218 458 q 174 476 181 471 q 107 553 119 532 q 74 646 81 593 q 99 856 58 767 q 203 975 133 932 q 356 1008 274 1018 q 501 940 439 1000 q 581 799 564 881 m 293 13 q 324 -33 325 -4 q 319 -81 322 -72 q 279 -117 310 -108 q 222 -112 249 -126 q 193 -67 194 -97 q 201 -18 193 -58 q 246 18 208 8 q 247 18 246 18 q 293 13 269 25 z "},"@":{"ha":924,"x_min":57,"x_max":858,"o":"m 674 754 q 801 644 750 717 q 854 489 851 571 q 799 332 857 407 q 688 253 746 269 q 601 258 643 240 q 539 317 558 276 q 517 429 515 363 q 457 342 486 372 q 372 294 422 304 q 276 310 321 285 q 215 401 226 342 q 231 510 204 460 q 299 596 256 560 q 397 644 343 632 q 557 615 485 664 q 567 635 561 625 q 604 660 578 654 q 650 658 631 667 q 684 631 672 650 q 689 592 696 613 q 658 453 661 496 q 657 382 656 414 q 667 347 658 360 l 668 344 q 688 344 675 342 q 729 365 710 349 q 786 458 768 399 q 739 657 818 564 q 528 750 661 747 q 302 695 407 754 q 164 528 197 636 q 171 317 132 421 q 304 158 210 214 q 515 116 403 101 q 713 207 628 131 q 734 212 721 215 q 751 199 747 208 q 746 178 756 189 q 467 53 631 61 q 320 76 393 49 q 190 153 247 103 q 71 392 85 247 q 150 646 57 536 q 394 786 243 754 q 674 754 544 818 m 521 476 q 529 532 524 506 q 522 538 526 533 q 457 561 493 567 q 390 533 421 556 q 343 474 360 511 q 335 406 326 438 q 368 360 346 368 q 444 386 401 349 q 521 476 479 418 z "},"A":{"ha":800,"x_min":63,"x_max":739,"o":"m 718 32 q 726 21 722 26 q 723 -8 739 6 q 690 -18 707 -22 q 597 40 622 1 q 564 157 571 81 q 560 221 561 186 q 558 278 558 256 q 560 344 558 301 q 561 404 561 388 q 561 418 561 410 q 561 429 561 426 q 526 256 544 336 q 513 200 519 222 q 497 148 507 178 q 472 94 486 118 q 439 50 458 69 q 358 0 404 13 q 263 4 311 -12 q 71 394 89 64 q 97 632 64 517 q 204 832 129 747 q 397 950 285 924 q 459 960 428 957 q 526 955 490 963 q 581 926 561 947 q 644 959 600 961 q 703 918 689 957 q 710 888 708 906 q 713 858 713 871 q 713 824 713 846 q 713 794 713 801 q 713 675 713 754 q 710 446 713 639 q 704 213 708 289 q 703 108 701 128 q 712 74 704 100 q 718 32 719 47 m 510 379 q 565 740 536 517 q 567 785 565 756 q 567 805 567 792 q 567 828 567 818 q 568 849 567 839 q 568 860 568 850 q 569 876 568 871 q 520 874 553 874 q 483 874 488 874 q 399 849 440 871 q 271 719 326 813 q 192 339 182 571 q 225 149 196 219 q 270 78 242 110 q 335 44 299 46 q 408 82 378 44 q 458 168 439 119 q 510 379 479 226 z "},"B":{"ha":729,"x_min":68,"x_max":774,"o":"m 757 351 q 771 339 769 349 q 765 322 772 329 q 746 318 757 315 q 610 329 679 336 q 614 314 613 321 q 620 176 632 249 q 567 50 608 104 q 497 -15 538 11 q 409 -44 457 -40 q 321 -14 361 -49 q 279 51 289 13 q 279 128 269 90 q 313 200 289 167 q 483 333 376 289 q 450 382 469 360 q 435 396 443 389 q 419 408 428 403 q 404 418 411 414 q 387 428 397 422 q 369 439 376 435 q 304 551 301 483 q 314 600 306 576 q 338 647 322 624 q 367 688 353 669 q 402 729 382 706 q 433 768 422 753 q 475 854 472 818 q 477 901 481 878 q 449 931 474 924 q 279 806 357 956 q 213 599 229 710 q 214 431 213 506 q 215 193 215 314 q 210 74 215 167 q 209 51 210 68 q 208 25 208 33 q 204 3 207 17 q 197 -22 201 -11 q 185 -42 192 -32 q 159 -56 175 -53 q 131 -47 143 -58 q 108 -19 113 -28 q 103 7 107 -14 q 93 74 99 33 q 81 193 82 158 q 71 431 72 313 q 69 669 69 550 q 69 729 69 681 q 69 799 69 778 q 72 857 69 821 q 81 922 75 893 q 107 954 83 943 q 153 963 131 965 q 192 945 176 960 q 211 907 207 931 q 214 788 213 890 q 214 758 214 785 q 268 867 236 817 q 331 935 294 908 q 413 968 368 961 q 501 947 457 975 q 578 857 569 908 q 553 713 592 788 q 508 647 539 688 q 466 592 476 607 q 451 567 456 576 q 446 550 446 554 l 444 549 q 444 544 444 544 q 443 538 444 540 q 444 533 444 533 q 458 517 447 526 q 483 498 467 510 q 508 481 500 486 q 556 431 532 460 q 597 363 581 400 q 757 351 681 372 m 507 201 q 497 299 513 251 q 394 233 440 274 q 328 140 349 192 q 335 39 304 82 q 374 14 350 17 q 378 14 375 14 q 381 14 381 14 q 388 17 383 15 q 407 32 394 21 q 474 108 447 63 q 507 201 500 154 z "},"C":{"ha":686,"x_min":35,"x_max":731,"o":"m 692 290 q 707 298 697 297 q 724 290 717 299 q 725 272 731 282 q 588 85 649 139 q 393 2 501 8 q 204 71 285 -4 q 97 263 133 136 q 104 686 36 471 q 200 882 144 811 q 301 964 242 935 q 417 972 360 993 q 435 963 425 968 q 451 952 444 957 q 469 938 457 947 q 485 926 481 929 q 538 863 518 903 q 554 792 551 832 q 553 724 557 753 q 538 653 549 696 q 514 640 533 636 q 497 663 494 644 q 512 735 508 706 q 510 803 515 764 q 485 871 506 842 q 424 907 454 913 q 353 869 383 899 q 265 732 308 825 q 214 569 232 657 q 225 240 179 408 q 303 93 253 138 q 447 56 365 36 q 526 88 489 65 q 594 149 563 111 q 644 214 625 186 q 692 290 663 242 z "},"D":{"ha":821,"x_min":68,"x_max":864,"o":"m 826 347 q 838 358 828 356 q 856 354 847 360 q 861 339 864 349 q 826 283 856 304 q 760 258 797 261 q 697 263 732 256 q 549 33 642 117 q 389 -39 475 -32 q 257 3 321 -43 q 208 58 226 25 q 185 -42 207 -15 q 159 -56 175 -53 q 131 -47 143 -58 q 108 -19 113 -28 q 103 7 107 -14 q 93 74 99 33 q 81 193 82 158 q 71 431 72 313 q 69 669 69 550 q 69 729 69 681 q 69 799 69 778 q 72 857 69 821 q 81 922 75 893 q 107 954 83 943 q 153 963 131 965 q 192 945 176 960 q 211 907 207 931 q 214 788 213 890 q 214 681 214 749 q 303 869 247 794 q 427 963 351 936 q 579 957 503 990 q 685 833 642 924 q 735 679 719 758 q 718 325 768 496 q 708 293 714 311 q 826 347 814 276 m 215 232 q 221 242 218 238 q 333 327 260 304 q 488 340 406 350 q 569 325 522 336 q 597 715 628 508 q 561 847 588 779 q 482 931 535 918 q 356 872 421 944 q 281 744 315 828 q 214 497 235 635 q 214 431 214 439 q 215 232 215 340 m 494 163 q 560 297 533 225 q 261 239 340 347 q 232 114 215 175 q 260 62 239 83 q 311 38 282 40 q 494 163 408 25 z "},"E":{"ha":565,"x_min":58,"x_max":610,"o":"m 565 269 q 579 283 568 281 q 599 278 590 285 q 606 261 608 271 q 559 133 583 186 q 494 38 535 79 q 292 -33 407 -50 q 124 72 189 -18 q 71 264 58 161 q 171 468 86 381 q 187 483 175 472 q 205 501 199 494 q 218 518 211 507 q 226 539 225 529 q 224 556 228 547 q 222 558 222 557 q 217 565 219 563 q 190 592 211 574 q 96 797 86 692 q 142 907 101 858 q 242 971 183 956 q 344 965 292 985 q 438 906 397 946 q 493 812 476 868 q 506 697 510 756 q 481 676 504 679 q 453 692 457 672 q 446 748 450 707 q 436 811 442 789 q 381 896 418 875 q 299 888 351 914 q 246 839 265 869 q 231 770 228 808 q 257 700 233 732 q 287 667 265 689 q 317 636 308 646 q 353 569 346 604 q 355 547 356 558 q 353 526 354 535 q 348 505 353 517 q 340 486 343 493 q 328 467 338 479 q 317 451 319 456 q 302 433 314 446 q 287 417 290 421 q 270 401 283 414 q 256 386 257 389 q 168 246 189 321 q 160 160 156 208 q 188 81 165 113 q 250 24 211 44 q 333 4 289 4 q 407 22 372 4 q 465 65 442 40 q 510 129 489 90 q 542 199 531 168 q 565 269 553 229 z "},"F":{"ha":535,"x_min":57,"x_max":735,"o":"m 669 942 q 539 968 654 982 q 386 936 506 965 q 332 924 356 929 q 336 907 335 915 q 339 788 339 890 q 339 669 339 746 q 340 431 339 550 q 340 289 340 368 q 378 288 353 289 q 417 288 404 288 q 432 280 428 288 q 432 265 436 272 q 417 257 428 257 q 393 257 407 257 q 365 258 379 257 q 340 258 351 258 q 340 193 340 200 q 335 74 340 167 q 334 51 335 68 q 333 25 333 33 q 330 3 332 17 q 323 -22 328 -11 q 311 -42 318 -32 q 284 -56 300 -53 q 257 -47 268 -58 q 235 -19 238 -28 q 229 7 232 -14 q 218 74 224 33 q 206 193 207 158 q 201 260 204 224 q 194 260 199 260 q 184 260 189 260 q 175 260 179 260 q 160 268 165 260 q 160 284 156 276 q 175 290 165 292 q 200 290 183 290 q 197 431 197 364 q 196 669 194 550 q 195 726 196 682 q 195 792 194 771 q 198 849 196 814 q 204 911 200 883 q 92 932 144 913 q 74 975 58 943 q 117 1003 88 1004 q 136 996 126 1001 q 194 970 164 979 q 265 964 225 961 q 325 969 304 967 q 396 982 346 971 q 457 996 446 993 q 628 1007 557 1015 q 717 943 703 997 q 724 908 735 928 q 689 892 714 889 q 680 893 685 892 q 672 897 675 894 q 665 903 668 900 q 660 912 661 907 q 658 921 658 917 q 669 942 658 933 z "},"G":{"ha":904,"x_min":65,"x_max":975,"o":"m 933 396 q 947 408 936 406 q 967 403 958 410 q 971 388 975 397 q 861 236 940 293 q 771 194 821 208 q 631 -56 732 28 q 525 -107 583 -94 q 408 -97 467 -119 q 338 -39 368 -81 q 306 46 308 3 q 325 132 303 93 q 389 196 347 171 q 597 224 456 236 q 640 221 625 222 q 650 456 654 303 q 647 668 649 528 q 625 611 642 653 q 598 538 608 563 q 567 474 588 513 q 525 410 547 436 q 360 301 454 321 q 164 350 247 278 q 90 464 114 394 q 69 603 67 533 q 94 740 72 674 q 203 907 128 836 q 376 999 279 978 q 567 992 468 1017 q 669 946 632 975 q 740 963 696 974 q 789 907 783 951 q 795 835 793 875 q 798 767 797 796 q 798 692 799 738 q 799 622 797 646 q 794 354 800 436 q 779 233 789 289 q 815 249 797 239 q 933 396 901 297 m 507 539 q 545 633 522 571 q 592 744 568 696 q 646 829 615 793 q 649 889 647 861 q 627 900 644 890 q 600 914 610 910 q 518 938 556 933 q 371 893 453 943 q 270 794 311 857 q 214 656 229 731 q 206 586 207 622 q 210 511 204 550 q 234 440 215 472 q 285 393 253 408 q 351 387 318 381 q 413 414 383 393 q 507 539 465 453 m 589 75 q 632 188 617 124 q 605 190 626 188 q 574 192 583 192 q 547 194 565 193 q 516 194 528 194 q 488 191 504 193 q 458 186 472 189 q 377 137 413 174 q 349 54 342 100 q 393 -14 354 13 q 468 -22 421 -33 q 589 75 540 -6 z "},"H":{"ha":833,"x_min":67,"x_max":767,"o":"m 746 288 q 761 280 757 288 q 761 265 765 272 q 746 257 757 257 l 686 257 q 686 193 686 197 q 681 74 686 167 q 680 51 681 68 q 678 25 679 33 q 676 3 678 17 q 669 -22 674 -11 q 657 -42 664 -32 q 631 -56 647 -53 q 603 -47 614 -58 q 581 -19 583 -28 q 575 7 578 -14 q 564 74 569 33 q 551 193 554 158 q 549 258 550 224 q 400 258 499 258 q 251 260 301 258 q 251 193 251 200 q 246 74 251 167 q 245 51 246 68 q 244 25 244 33 q 241 3 243 17 q 234 -22 239 -11 q 222 -42 229 -32 q 196 -56 213 -53 q 168 -47 179 -58 q 146 -19 149 -28 q 140 7 143 -14 q 129 74 135 33 q 117 193 119 158 q 113 260 115 224 l 86 260 q 72 267 76 260 q 72 283 67 275 q 86 290 76 290 q 113 290 94 290 q 108 431 108 364 q 107 669 107 550 q 106 729 107 681 q 106 799 106 778 q 110 857 107 821 q 117 922 113 893 q 144 954 121 943 q 190 963 167 965 q 229 945 214 960 q 247 907 244 931 q 250 788 250 890 q 250 669 250 746 q 251 431 250 550 q 251 290 251 368 q 547 289 350 289 q 543 431 543 363 q 542 669 542 550 q 541 718 542 685 q 541 772 540 751 q 542 820 542 792 q 545 874 543 849 q 551 922 547 899 q 578 954 556 943 q 625 963 601 965 q 653 953 640 961 q 673 934 665 946 q 682 907 681 922 q 685 788 685 890 q 685 669 685 746 q 686 431 685 550 q 686 288 686 368 l 746 288 z "},"I":{"ha":392,"x_min":67,"x_max":325,"o":"m 304 961 q 319 953 315 961 q 319 938 324 946 q 304 931 315 931 l 254 932 q 263 907 260 921 q 265 788 264 890 q 264 669 265 746 q 265 431 264 550 q 267 193 267 314 q 261 74 265 167 q 260 49 261 69 q 258 20 260 29 q 253 -3 257 11 q 244 -28 250 -18 q 274 -28 254 -28 q 304 -29 294 -29 q 319 -37 315 -29 q 319 -52 324 -44 q 304 -60 315 -60 l 86 -57 q 72 -48 76 -56 q 72 -33 67 -40 q 86 -25 76 -25 q 164 -26 138 -26 q 160 -19 161 -22 q 154 7 158 -14 q 144 74 149 33 q 131 193 133 158 q 122 431 124 313 q 121 669 121 550 q 121 729 121 681 q 121 799 121 778 q 124 857 121 821 q 132 922 126 893 q 136 933 132 928 q 86 935 119 933 q 72 942 76 935 q 72 958 67 950 q 86 965 76 965 l 304 961 z "},"J":{"ha":811,"x_min":64,"x_max":856,"o":"m 817 315 q 846 317 829 328 q 849 299 856 308 q 625 183 767 208 q 492 7 581 69 q 293 -51 393 -61 q 199 -22 242 -46 q 139 46 156 3 q 142 126 124 89 q 200 186 160 164 q 401 213 267 224 q 486 208 451 208 q 509 356 506 271 q 507 507 513 440 q 496 722 506 518 q 494 835 493 793 q 496 865 494 850 q 421 865 465 861 q 279 864 335 875 q 153 810 206 849 q 119 765 126 790 q 133 714 113 740 q 135 690 147 701 q 107 685 122 679 q 71 731 76 699 q 82 790 65 763 q 196 874 110 839 q 350 906 274 906 q 400 902 368 906 q 450 898 432 899 q 500 903 468 897 q 508 929 503 918 q 549 960 515 954 q 603 949 583 967 q 621 924 614 939 q 629 901 628 910 q 635 871 631 892 q 643 803 640 832 q 653 668 647 753 q 664 401 664 447 q 638 218 664 303 q 817 315 749 240 m 340 26 q 456 135 413 56 q 475 175 467 154 q 463 176 468 175 q 424 179 449 176 q 383 183 400 182 q 345 184 367 183 q 304 183 324 185 q 267 176 285 181 q 187 128 218 165 q 186 49 156 90 q 258 12 211 15 q 340 26 304 8 z "},"K":{"ha":678,"x_min":68,"x_max":724,"o":"m 679 201 q 707 211 686 218 q 717 193 722 207 q 629 92 692 128 q 494 60 567 57 q 365 92 429 63 q 251 168 300 121 q 215 206 225 193 q 215 199 215 204 q 215 193 215 194 q 210 74 215 167 q 209 51 210 68 q 208 25 208 33 q 204 3 207 17 q 197 -22 201 -11 q 185 -42 192 -32 q 159 -56 175 -53 q 131 -47 143 -58 q 108 -19 113 -28 q 103 7 107 -14 q 93 74 99 33 q 81 193 82 158 q 71 431 72 313 q 69 669 69 550 q 69 729 69 681 q 69 799 69 778 q 72 857 69 821 q 81 922 75 893 q 107 954 83 943 q 153 963 131 965 q 192 945 176 960 q 211 907 207 931 q 214 788 213 890 q 213 669 214 746 q 214 472 213 579 q 357 707 257 563 q 446 829 397 765 q 465 855 449 832 q 488 885 482 878 q 508 908 494 892 q 533 936 522 925 q 557 957 544 947 q 607 970 581 972 q 648 946 633 968 q 649 896 663 924 q 625 856 639 876 q 590 810 611 836 q 561 772 569 785 q 474 649 519 717 q 329 419 393 528 q 299 210 258 299 q 378 131 319 161 q 494 97 436 100 q 606 121 554 93 q 679 201 658 149 z "},"L":{"ha":533,"x_min":65,"x_max":576,"o":"m 567 319 q 574 301 575 313 q 461 47 547 158 q 365 -39 411 -18 q 315 -49 342 -49 q 244 -29 279 -49 q 104 193 157 21 q 69 472 65 319 q 114 757 74 606 q 257 975 158 924 q 406 983 332 1013 q 483 907 461 961 q 456 657 521 811 q 217 340 375 467 q 232 189 221 256 l 235 176 q 253 81 244 113 q 303 7 268 22 q 454 114 367 -19 q 532 310 511 201 q 543 325 533 321 q 567 319 557 329 m 407 682 q 390 871 458 815 q 353 885 372 885 q 344 885 349 885 q 288 842 313 879 q 232 651 253 789 l 231 642 q 215 415 214 528 q 215 401 215 408 q 407 682 344 524 z "},"M":{"ha":1146,"x_min":68,"x_max":1189,"o":"m 1149 356 q 1162 367 1151 365 q 1181 363 1172 369 q 1186 346 1189 357 q 1104 111 1160 224 q 1078 62 1089 79 q 1048 19 1068 44 q 1003 -17 1028 -7 q 951 -21 979 -28 q 904 1 924 -15 q 874 42 885 17 q 859 88 864 68 q 849 140 854 108 q 839 372 836 228 q 841 446 839 399 q 844 532 843 493 q 844 606 844 571 q 843 639 843 613 q 842 676 843 665 q 840 709 842 686 q 837 746 839 732 q 831 778 835 760 q 822 813 828 797 q 775 861 806 865 q 701 792 738 857 q 628 588 661 715 q 608 508 617 550 q 607 385 608 439 q 605 335 606 368 q 604 286 604 303 q 592 181 601 210 q 553 144 582 154 q 533 142 544 139 q 492 149 511 139 q 467 181 474 160 q 457 290 456 211 q 457 322 457 304 q 458 358 457 340 q 458 389 458 375 q 463 588 460 483 q 466 670 464 610 q 469 764 468 731 q 471 797 469 771 q 472 834 472 822 q 468 865 471 846 q 458 899 465 883 q 438 915 449 914 q 412 901 426 915 q 388 873 397 886 q 371 849 378 860 q 317 697 339 790 q 299 610 307 657 q 285 526 290 563 q 272 437 279 490 q 258 351 264 383 q 207 26 225 135 q 185 -42 204 -18 q 159 -56 175 -53 q 131 -47 143 -58 q 108 -19 113 -28 q 103 7 107 -14 q 93 74 99 33 q 81 193 82 158 q 71 431 72 313 q 69 669 69 550 q 69 729 69 681 q 69 799 69 778 q 72 857 69 821 q 81 922 75 893 q 107 954 83 943 q 153 963 131 965 q 181 953 169 961 q 201 934 193 946 q 211 907 208 922 q 214 788 213 890 q 213 669 214 746 q 214 431 213 550 q 215 307 215 372 l 236 447 q 247 517 240 471 q 258 594 253 564 q 269 664 263 624 q 287 740 276 704 q 310 807 297 775 q 394 936 347 904 q 468 961 429 958 q 542 939 507 964 q 603 782 589 900 q 608 678 607 736 q 682 839 643 786 q 753 897 708 876 q 840 908 797 918 q 968 747 936 888 q 989 513 990 647 q 982 279 989 456 q 979 165 978 196 q 985 72 979 88 q 992 53 989 58 l 993 51 q 1019 54 1006 43 q 1030 64 1025 58 q 1040 76 1035 69 q 1049 90 1044 83 q 1057 104 1053 96 q 1064 118 1061 113 q 1071 133 1067 124 q 1076 146 1075 143 q 1149 356 1124 244 z "},"N":{"ha":814,"x_min":68,"x_max":857,"o":"m 825 236 q 834 245 826 243 q 849 244 842 247 q 856 233 856 240 q 754 28 838 117 q 708 -10 732 4 q 657 -26 683 -25 q 553 18 600 -28 q 496 118 511 58 q 476 256 481 178 q 482 501 474 326 q 483 746 490 636 q 475 858 479 822 q 473 878 474 872 q 469 895 472 883 q 458 912 465 907 q 440 917 451 917 q 350 851 394 915 q 303 753 321 810 q 263 529 283 694 q 215 171 246 410 q 215 165 215 169 q 208 56 215 151 q 204 1 207 22 q 179 -47 200 -25 q 156 -56 171 -56 q 131 -47 140 -56 q 103 3 110 -28 q 93 65 99 26 q 81 174 82 143 q 71 393 72 285 q 69 615 69 504 q 69 670 69 628 q 69 733 69 713 q 72 785 69 753 q 81 844 75 818 q 108 877 85 867 q 153 885 131 888 q 211 829 203 881 q 214 794 214 813 q 214 751 214 776 q 214 715 214 725 q 214 607 214 688 q 214 444 213 535 q 233 593 224 524 q 281 800 251 731 q 414 947 331 921 q 479 950 447 956 q 539 924 511 944 q 583 876 567 904 q 636 638 629 794 q 629 399 639 565 q 628 143 619 232 q 628 108 629 124 q 628 72 626 92 q 636 38 629 51 q 661 16 644 18 q 692 22 678 14 q 721 40 707 29 q 825 236 806 115 z "},"O":{"ha":822,"x_min":58,"x_max":867,"o":"m 831 379 q 845 387 836 386 q 860 380 854 388 q 861 364 867 372 q 811 288 840 322 q 639 163 740 203 q 400 -17 546 -11 q 318 -1 356 -19 q 255 45 281 17 q 208 114 229 74 q 176 191 188 154 q 156 269 164 228 q 147 315 151 293 q 74 506 89 401 q 90 712 58 610 q 197 888 122 814 q 353 967 265 953 q 524 939 440 982 q 655 817 606 897 q 721 639 704 738 q 675 243 751 446 q 660 206 668 224 q 831 379 771 265 m 167 781 q 113 606 121 700 q 135 429 106 513 q 169 725 126 590 q 206 765 178 753 q 264 771 235 776 q 308 742 293 765 q 318 690 324 719 q 306 279 274 454 q 318 208 315 228 q 565 172 438 143 q 586 203 575 186 q 657 367 635 282 q 654 717 710 557 q 568 858 626 799 q 431 932 510 917 q 324 922 376 942 q 233 866 271 903 q 167 781 194 829 m 475 81 q 539 136 508 100 q 518 133 528 135 q 329 167 422 126 q 353 110 339 132 q 406 68 372 75 q 475 81 439 61 z "},"P":{"ha":693,"x_min":68,"x_max":736,"o":"m 697 386 q 724 394 704 401 q 733 378 736 389 q 676 315 717 336 q 588 297 635 294 q 472 328 546 300 q 378 271 426 286 q 315 263 353 258 q 261 293 276 267 q 254 337 249 313 q 278 375 260 361 q 364 390 307 396 q 368 393 367 393 q 457 535 428 453 q 483 739 489 626 q 471 832 479 803 q 432 904 456 886 q 388 919 408 921 q 347 900 367 918 q 315 862 328 882 q 294 819 303 842 q 240 611 265 744 q 214 419 225 526 q 215 193 215 306 q 210 74 215 167 q 209 51 210 68 q 208 25 208 33 q 204 3 207 17 q 197 -22 201 -11 q 185 -42 192 -32 q 159 -56 175 -53 q 131 -47 143 -58 q 108 -19 113 -28 q 103 7 107 -14 q 93 74 99 33 q 81 193 82 158 q 71 431 72 313 q 69 669 69 550 q 69 729 69 681 q 69 799 69 778 q 72 856 69 819 q 81 922 75 893 q 107 954 83 943 q 153 963 131 965 q 192 945 176 960 q 211 907 207 931 q 214 788 213 890 q 214 699 214 753 q 226 753 221 729 q 244 808 236 786 q 265 859 251 831 q 297 908 278 888 q 340 943 315 929 q 447 963 392 971 q 542 913 501 956 q 611 667 613 839 q 549 425 611 538 q 496 351 528 386 q 697 386 660 292 m 303 338 q 332 360 317 347 q 310 353 318 358 q 300 344 304 349 l 296 336 q 299 336 297 336 q 303 338 299 335 z "},"Q":{"ha":822,"x_min":58,"x_max":867,"o":"m 831 379 q 845 387 836 386 q 860 380 854 388 q 861 364 867 372 q 811 288 840 322 q 639 163 740 203 q 521 22 588 68 q 523 22 522 22 q 524 22 524 22 q 635 1 585 24 q 686 -31 663 -11 q 708 -74 710 -51 q 691 -98 707 -92 q 660 -97 675 -104 q 638 -80 650 -93 q 619 -62 625 -67 q 582 -46 604 -51 q 481 -40 543 -33 q 422 -47 463 -42 q 360 -56 382 -53 q 228 -51 300 -61 q 205 -37 214 -50 q 201 -11 196 -24 q 219 9 206 3 q 249 13 233 15 q 306 4 276 7 q 156 269 197 65 q 147 315 151 293 q 74 506 89 401 q 90 712 58 610 q 197 888 122 814 q 353 967 265 953 q 524 939 440 982 q 655 817 606 897 q 721 639 704 738 q 675 243 751 446 q 660 206 668 224 q 831 379 771 265 m 167 781 q 113 606 121 700 q 135 429 106 513 q 169 725 126 590 q 206 765 178 753 q 264 771 235 776 q 308 742 293 765 q 318 690 324 719 q 306 279 274 454 q 318 208 315 228 q 565 172 438 143 q 586 203 575 186 q 657 367 635 282 q 654 717 710 557 q 568 858 626 799 q 430 931 510 917 q 280 901 350 946 q 167 781 210 857 m 475 81 q 539 136 508 100 q 518 133 528 135 q 329 167 422 126 q 353 110 339 132 q 406 68 372 75 q 475 81 439 61 z "},"R":{"ha":718,"x_min":68,"x_max":761,"o":"m 721 349 q 733 360 722 357 q 751 358 743 363 q 758 343 760 353 q 682 117 742 235 q 557 -32 626 7 q 465 -60 514 -57 q 371 -42 417 -64 q 308 22 332 -19 q 276 102 285 63 q 251 190 267 142 q 215 269 236 239 q 215 193 215 210 q 210 74 215 167 q 209 51 210 68 q 208 25 208 33 q 204 3 207 17 q 197 -22 201 -11 q 185 -42 192 -32 q 159 -56 175 -53 q 131 -47 143 -58 q 108 -19 113 -28 q 103 7 107 -14 q 93 74 99 33 q 81 193 82 158 q 71 431 72 313 q 69 669 69 550 q 69 729 69 681 q 69 799 69 778 q 72 856 69 819 q 81 922 75 893 q 107 954 83 943 q 153 963 131 965 q 192 945 176 960 q 211 907 207 931 q 214 813 215 878 q 322 947 250 908 q 475 958 394 983 q 611 829 564 929 q 650 639 657 743 q 579 461 643 535 q 415 354 519 390 q 314 331 361 336 q 286 329 301 329 q 369 182 340 286 q 379 148 372 175 q 392 104 386 121 q 406 72 397 88 q 461 -1 436 14 q 515 -5 490 -12 q 563 22 540 3 q 633 114 599 51 q 721 349 686 206 m 279 856 q 226 701 247 807 q 213 625 219 665 q 214 431 213 519 q 214 406 214 422 q 214 385 214 390 q 300 419 276 411 q 376 451 346 435 q 482 547 442 488 q 514 636 507 585 q 514 735 521 688 q 489 831 507 783 q 454 893 476 865 q 403 928 432 921 q 335 912 369 935 q 279 856 301 889 z "},"S":{"ha":732,"x_min":64,"x_max":779,"o":"m 758 310 q 771 289 778 307 q 747 276 765 272 q 528 275 639 296 q 521 136 546 206 q 447 28 497 74 q 344 -47 389 -26 q 229 -57 278 -79 q 172 15 185 -36 q 272 203 149 115 q 411 279 336 250 q 396 304 404 292 q 311 378 369 339 q 280 397 300 385 q 247 418 260 410 q 217 439 235 426 q 185 463 199 451 q 158 488 172 474 q 133 517 144 501 q 111 549 121 532 q 71 675 78 608 q 89 807 64 742 q 161 917 113 871 q 275 983 210 963 q 394 990 335 1001 q 504 943 454 979 q 563 881 539 917 q 597 803 586 844 q 601 718 607 761 q 569 667 596 685 q 508 657 542 650 q 461 692 475 665 q 464 750 447 719 q 481 808 481 775 q 465 869 482 842 q 448 891 458 881 q 424 908 438 901 q 397 917 411 914 q 369 921 383 921 q 268 871 321 922 q 208 763 225 829 q 208 653 194 708 q 260 556 222 597 q 360 474 289 522 q 460 394 432 425 q 517 308 497 356 q 758 310 638 333 m 322 -7 q 399 83 369 28 q 428 197 429 139 q 424 244 428 224 q 332 199 375 225 q 228 106 257 151 q 225 3 196 51 q 269 -24 240 -24 q 322 -7 299 -25 z "},"T":{"ha":706,"x_min":64,"x_max":842,"o":"m 794 1018 q 797 1034 790 1028 q 815 1040 804 1040 q 831 1032 826 1039 q 840 988 842 1010 q 828 947 839 967 q 801 910 817 926 q 765 882 785 894 q 575 842 692 833 q 567 842 574 842 q 585 719 578 807 q 592 585 589 668 q 593 311 599 443 q 586 214 592 254 q 715 322 697 240 q 727 332 718 331 q 743 328 736 333 q 749 314 750 324 q 582 183 726 217 q 547 72 571 121 q 472 -28 514 1 q 445 -43 460 -36 q 415 -54 431 -50 q 383 -56 399 -58 q 354 -44 367 -54 q 300 -2 317 -33 q 293 69 283 29 q 331 133 301 106 q 399 175 360 160 q 440 188 415 182 q 444 361 446 231 q 440 607 443 515 q 436 672 439 629 q 433 733 433 715 q 436 857 429 818 q 354 860 389 861 q 161 800 263 856 q 115 794 140 789 q 78 819 90 800 q 72 858 65 839 q 99 890 79 878 q 228 934 158 924 q 360 937 299 944 q 494 908 421 929 q 510 904 501 906 q 522 900 517 903 q 689 893 622 875 q 774 942 736 906 q 794 1018 813 978 m 400 63 q 435 154 424 97 q 435 156 435 156 q 365 119 393 143 q 328 61 333 92 q 333 31 325 44 q 354 17 340 18 q 364 24 358 19 q 372 31 369 28 q 400 63 385 40 z "},"U":{"ha":849,"x_min":68,"x_max":892,"o":"m 853 356 q 865 367 856 365 q 883 363 875 368 q 889 347 892 357 q 785 50 857 164 q 688 -11 746 -10 q 579 44 625 -11 q 524 178 550 82 q 500 315 511 231 q 476 218 489 264 q 419 60 450 118 q 307 -31 378 -22 q 175 21 243 -37 q 96 172 125 64 q 81 240 86 204 q 73 317 75 275 q 70 385 71 360 q 69 464 69 411 q 69 533 69 517 q 79 918 69 810 q 113 965 82 951 q 174 965 143 979 q 208 918 204 951 q 219 533 218 810 q 219 457 219 511 q 219 374 219 403 q 222 300 219 344 q 228 219 224 256 q 238 147 232 169 q 246 112 239 135 q 254 81 253 89 q 259 65 257 71 q 265 49 261 58 q 272 35 268 40 q 281 24 275 29 q 292 16 286 18 q 307 15 299 14 q 326 19 315 15 q 355 38 342 25 q 379 72 368 50 q 395 103 390 93 q 410 139 400 114 q 454 289 435 206 q 488 469 472 367 q 488 625 485 542 q 496 776 490 693 q 498 808 497 788 q 500 841 499 828 q 503 872 501 854 q 508 906 504 890 q 515 935 511 921 q 542 969 522 957 q 586 981 563 981 q 630 969 607 982 q 657 935 653 956 q 660 894 660 917 q 660 858 661 871 q 658 814 660 846 q 654 776 656 782 q 646 631 649 696 q 651 117 635 378 q 694 36 656 40 q 721 42 708 35 q 745 65 733 49 q 761 90 757 82 q 775 117 765 99 q 853 356 829 228 z "},"V":{"ha":764,"x_min":64,"x_max":807,"o":"m 772 253 q 799 256 782 267 q 801 239 807 247 q 698 173 764 185 q 576 190 632 161 q 525 111 553 149 q 417 19 471 40 q 260 44 335 -10 q 163 192 206 85 q 83 515 101 343 q 71 894 65 688 q 106 945 72 931 q 172 945 139 960 q 207 894 206 931 q 215 767 210 857 q 223 628 219 678 q 234 506 226 579 q 254 369 242 432 q 285 246 267 306 q 289 228 286 240 q 295 206 293 214 q 301 183 297 199 q 310 159 306 168 q 319 136 314 150 q 331 114 325 122 q 343 95 336 106 q 358 79 350 85 q 376 70 367 74 q 395 67 385 67 q 417 71 406 67 q 513 161 461 88 q 542 208 528 183 q 535 214 539 211 q 386 532 413 306 q 431 871 364 726 q 529 961 465 949 q 594 954 563 968 q 646 913 625 940 q 686 761 682 867 q 683 575 690 661 q 607 250 669 392 q 590 215 599 233 q 688 200 635 192 q 772 253 742 208 m 544 246 q 557 236 550 240 q 581 288 569 261 q 646 575 633 413 q 649 731 651 647 q 649 748 649 732 q 648 768 649 764 q 647 787 647 772 q 645 807 646 801 q 642 825 644 813 q 638 844 640 838 q 633 861 636 851 q 625 879 629 871 q 578 924 607 911 q 515 919 549 938 q 446 803 472 894 q 429 501 404 657 q 544 246 457 321 z "},"W":{"ha":1278,"x_min":63,"x_max":1322,"o":"m 1285 363 q 1303 367 1292 369 q 1317 356 1314 364 q 1314 338 1321 347 q 1136 264 1244 265 q 1096 178 1118 219 q 857 -39 997 -8 q 689 -8 758 -60 q 590 131 633 32 q 532 314 553 214 q 485 203 511 257 q 458 156 469 175 q 428 110 447 136 q 389 69 408 85 q 343 45 369 54 q 289 39 317 36 q 219 65 250 43 q 167 122 188 88 q 135 190 147 156 q 113 263 122 224 q 74 593 85 389 q 79 929 64 782 q 111 974 82 961 q 169 975 140 988 q 200 929 199 963 q 213 597 213 613 q 239 314 224 428 q 267 193 246 256 q 271 182 268 190 q 274 169 274 174 q 278 157 275 165 q 284 144 282 149 q 290 132 286 139 q 297 121 293 125 q 304 112 300 117 q 313 103 308 107 q 408 153 353 76 q 472 268 439 196 q 517 393 499 329 q 504 503 508 447 q 522 897 490 726 q 547 926 525 917 q 589 935 568 936 q 626 918 611 932 q 642 883 640 904 q 647 697 649 814 q 647 511 646 581 q 700 156 657 294 q 756 49 722 81 q 878 15 807 -1 q 1079 229 989 39 q 1096 265 1088 246 q 1004 293 1047 271 q 914 363 954 318 q 851 460 874 407 q 818 569 828 513 q 839 751 807 653 q 919 910 875 863 q 985 953 947 940 q 1061 956 1024 967 q 1163 849 1129 935 q 1196 504 1217 706 q 1150 300 1186 399 q 1285 363 1231 307 m 1042 317 q 1110 300 1074 303 q 1163 560 1157 426 q 1129 821 1168 693 q 1038 924 1099 915 q 921 832 969 933 q 878 681 886 761 q 882 519 867 583 q 939 397 897 451 q 1042 317 981 343 z "},"X":{"ha":768,"x_min":64,"x_max":813,"o":"m 776 364 q 788 374 779 372 q 804 370 797 375 q 808 356 811 365 q 747 206 781 267 q 654 104 713 144 q 537 58 600 67 q 413 78 474 50 q 331 142 367 101 q 314 103 321 119 q 288 46 289 49 q 281 28 285 40 q 273 8 276 17 q 264 -10 269 -1 q 234 -18 254 -25 q 218 7 214 -11 q 231 41 221 19 q 243 65 242 63 q 250 83 246 74 q 258 104 254 93 q 265 124 263 115 q 293 194 278 154 q 246 299 267 239 q 153 606 215 383 q 131 681 146 628 q 106 765 115 735 q 87 840 97 794 q 71 922 76 885 q 88 972 65 954 q 140 983 111 989 q 182 949 169 976 q 212 869 197 913 q 235 795 226 825 q 260 712 244 765 q 282 636 276 658 q 357 374 332 472 q 390 469 376 433 q 590 929 488 729 q 627 956 600 950 q 674 953 654 961 q 708 926 694 946 q 713 886 721 906 q 486 436 635 715 q 438 349 471 407 q 390 260 406 290 q 456 151 417 190 q 546 100 504 104 q 658 143 601 94 q 712 210 688 169 q 749 281 736 250 q 776 364 761 313 z "},"Y":{"ha":822,"x_min":67,"x_max":864,"o":"m 824 333 q 835 347 825 343 q 853 347 844 351 q 863 333 863 343 q 833 247 860 286 q 763 181 806 207 q 689 147 732 161 q 611 -104 678 -10 q 439 -221 542 -203 q 390 -224 415 -226 q 343 -217 365 -222 q 301 -196 321 -211 q 271 -157 282 -181 q 260 -95 257 -129 q 276 -33 264 -61 q 307 22 288 -4 q 472 132 365 100 q 551 150 501 142 q 550 226 551 176 q 542 451 550 243 q 540 504 540 475 q 415 204 490 318 q 290 114 364 125 q 147 168 203 100 q 83 340 103 222 q 69 536 68 442 q 83 722 72 631 q 89 772 85 735 q 96 826 93 808 q 106 872 99 844 q 121 922 113 900 q 148 951 129 942 q 185 958 167 960 q 219 944 204 957 q 239 908 235 931 q 240 844 240 864 q 233 778 239 825 q 225 714 228 732 q 214 528 215 590 q 218 360 213 432 q 228 274 221 335 q 244 210 232 235 q 276 169 261 179 q 333 181 297 156 q 370 216 353 193 q 396 253 388 239 q 419 299 404 268 q 538 682 496 451 q 538 683 538 682 q 547 910 536 836 q 601 961 554 956 q 643 954 621 964 q 668 925 665 944 q 690 633 685 839 q 693 350 693 479 q 692 183 693 206 q 693 185 692 183 q 784 244 747 206 q 824 333 821 282 m 536 21 q 550 117 547 63 q 365 32 424 92 q 309 -52 329 -4 q 310 -139 289 -100 q 341 -169 319 -160 q 386 -176 363 -179 q 465 -125 425 -171 q 536 21 513 -71 z "},"Z":{"ha":750,"x_min":58,"x_max":796,"o":"m 747 222 q 778 233 754 242 q 790 213 796 228 q 727 117 771 157 q 628 63 683 78 q 578 54 603 56 q 523 57 553 53 q 474 65 493 61 q 422 76 456 68 q 399 50 410 61 q 278 -37 342 -11 q 111 -28 160 -85 q 96 31 90 0 q 126 85 101 61 q 243 135 169 125 q 293 136 267 138 q 406 353 354 217 q 482 601 457 485 q 498 681 493 650 q 502 755 503 711 q 488 835 501 799 q 422 907 469 885 q 322 917 375 929 q 258 890 288 910 q 207 844 228 871 q 171 785 186 818 q 144 665 146 731 q 149 600 144 636 q 154 576 151 583 q 153 579 153 578 l 153 578 l 154 574 q 144 569 150 572 q 156 571 149 572 l 156 569 q 161 565 157 561 q 163 571 164 568 q 175 554 176 567 q 160 529 172 539 q 132 521 149 519 q 98 535 113 521 q 79 568 83 550 q 81 736 60 649 q 148 867 97 810 q 268 949 199 925 q 397 960 332 971 q 515 911 461 949 q 603 800 576 869 q 628 650 631 731 q 600 482 625 588 q 554 331 579 399 q 446 110 500 189 q 522 94 492 99 q 660 119 597 86 q 747 222 722 153 m 178 42 q 218 64 199 50 q 257 96 240 82 q 242 94 249 96 q 158 40 168 81 q 157 38 158 38 q 164 38 158 38 q 178 42 171 38 z "},"[":{"ha":486,"x_min":68,"x_max":417,"o":"m 397 971 q 417 954 417 971 q 397 938 417 938 q 206 931 335 935 q 207 918 207 925 q 203 365 204 521 q 200 224 201 317 q 199 89 199 132 q 219 -1 197 25 q 275 -26 243 -32 q 310 -42 299 -22 q 299 -75 322 -62 q 193 -88 249 -100 q 103 -33 138 -76 q 71 76 74 3 q 69 192 69 108 q 70 313 69 232 q 71 433 71 393 q 76 918 72 522 q 117 969 78 956 q 183 963 156 982 q 290 967 218 964 q 397 971 361 969 z "},"\\":{"ha":521,"x_min":67,"x_max":454,"o":"m 451 -26 q 433 -62 454 -50 q 386 -72 413 -75 q 350 -50 360 -68 q 333 -15 340 -33 q 315 34 325 3 q 304 71 306 65 q 265 192 289 117 q 194 428 228 310 q 71 910 132 640 q 72 941 67 926 q 90 966 78 956 q 118 981 101 976 q 168 975 142 986 q 200 940 194 964 q 317 457 246 729 q 382 218 349 338 q 418 99 390 190 q 431 60 421 89 q 445 13 440 32 q 451 -26 450 -7 z "},"]":{"ha":486,"x_min":68,"x_max":417,"o":"m 417 160 q 417 131 417 154 q 417 101 417 108 q 415 74 417 94 q 412 44 414 54 q 406 18 410 35 q 397 -9 403 1 q 383 -32 392 -19 q 363 -54 374 -44 q 278 -91 328 -86 q 188 -75 228 -96 q 175 -42 163 -62 q 211 -26 188 -22 q 268 0 244 -32 q 288 93 289 29 q 283 365 285 231 q 279 918 281 522 q 281 931 279 925 q 88 938 217 933 q 69 954 69 938 q 88 971 69 971 q 303 963 157 968 q 369 969 331 982 q 408 918 408 956 q 413 644 410 828 q 417 160 415 353 z "},"^":{"ha":364,"x_min":64,"x_max":296,"o":"m 261 901 q 269 892 264 899 q 276 883 274 886 q 283 874 279 881 q 289 865 288 868 q 293 854 290 861 q 294 844 296 847 q 293 832 293 840 q 281 817 292 821 q 260 815 271 814 q 247 819 253 817 q 237 824 242 821 q 228 831 232 828 q 219 840 224 835 q 211 849 214 846 q 203 859 208 853 q 196 868 199 865 q 172 897 185 881 q 139 826 153 865 q 114 806 133 810 q 80 813 94 803 q 71 842 65 824 q 142 968 94 908 q 172 983 154 983 q 203 968 190 982 q 261 901 240 926 z "},"_":{"ha":536,"x_min":68,"x_max":468,"o":"m 433 88 q 458 72 449 83 q 467 47 467 60 q 459 22 468 33 q 433 8 450 10 q 381 6 393 6 q 328 8 368 6 q 275 11 288 10 q 197 15 249 13 q 121 17 146 17 q 97 23 108 18 q 77 38 85 28 q 69 61 69 47 q 85 92 69 79 q 121 104 101 106 q 197 101 146 103 q 275 97 249 99 q 300 97 286 97 q 328 95 314 96 q 351 93 342 94 q 433 88 419 90 z "},"`":{"ha":314,"x_min":57,"x_max":254,"o":"m 236 800 q 238 770 253 785 q 204 765 222 756 q 72 903 106 814 q 101 960 58 942 q 175 954 143 978 q 193 917 193 942 q 236 800 193 840 z "},"a":{"ha":592,"x_min":-40,"x_max":638,"o":"m 597 304 q 610 316 600 314 q 629 312 621 318 q 635 296 638 306 q 563 82 604 151 q 488 4 532 31 q 392 -8 443 -22 q 338 24 360 0 q 304 85 315 47 q 289 148 293 122 q 281 213 285 174 q 278 238 279 224 q 260 199 269 217 q 78 60 182 44 q 22 85 46 64 q -16 135 -3 106 q -35 197 -29 165 q -39 260 -40 229 q 0 389 -36 328 q 94 485 36 450 q 228 513 165 528 q 285 488 256 507 q 297 481 290 483 q 297 482 297 481 q 297 483 297 483 q 365 526 313 525 q 407 515 385 528 q 432 483 429 503 q 429 367 436 454 q 425 261 428 338 q 425 156 422 197 q 435 69 431 83 q 451 38 444 42 q 488 51 463 31 q 543 125 515 72 q 597 304 571 178 m 285 406 q 286 424 285 411 q 250 439 274 444 q 210 424 229 435 q 142 369 169 403 q 81 218 86 301 q 81 180 79 200 q 90 139 83 160 q 112 114 97 118 q 150 124 126 110 q 211 200 179 143 q 256 300 236 243 q 282 381 269 335 q 285 406 283 396 z "},"b":{"ha":522,"x_min":-49,"x_max":568,"o":"m 529 338 q 540 351 531 347 q 559 351 550 356 q 567 338 568 347 q 508 187 560 253 q 375 94 456 121 q 369 93 375 94 q 369 92 369 93 q 368 89 368 90 q 203 -49 304 -40 q 147 -42 176 -51 q 107 -12 118 -33 q 80 -24 96 -25 q 53 -10 64 -24 q 38 14 44 0 q 30 38 32 28 q 24 66 28 47 q 18 90 19 85 q -3 196 10 131 q -32 406 -24 310 q -4 779 -49 593 q 64 940 22 893 q 97 967 78 956 q 136 985 115 979 q 178 988 157 992 q 218 969 200 985 q 231 957 222 965 q 242 944 239 949 q 261 921 253 935 q 279 858 278 894 q 244 710 282 797 q 110 528 197 603 q 110 524 110 526 l 108 519 q 113 263 107 439 q 115 201 114 239 q 126 251 121 228 q 164 360 142 307 q 213 457 193 431 q 283 497 239 490 q 363 475 328 503 q 418 290 425 425 q 388 136 414 208 q 440 167 417 149 q 529 338 521 232 m 133 764 q 111 572 117 672 q 196 689 163 625 q 236 806 224 746 q 208 924 256 897 q 183 909 194 919 q 164 888 171 899 q 151 857 157 876 q 144 826 146 838 q 138 792 142 814 q 133 764 135 771 m 179 28 q 208 64 194 44 q 146 24 158 49 q 144 8 140 13 q 157 7 147 3 q 179 28 164 11 m 294 388 q 289 450 296 433 q 278 460 286 460 q 263 453 271 460 q 249 439 256 446 q 239 426 243 432 q 201 356 224 403 q 131 61 139 215 q 232 103 164 90 q 290 299 281 193 q 294 388 292 321 z "},"c":{"ha":361,"x_min":-42,"x_max":407,"o":"m 368 335 q 379 349 369 344 q 398 349 389 353 q 406 335 407 344 q 289 47 388 156 q 180 -16 243 -6 q 58 15 117 -26 q -14 135 18 46 q -35 286 -42 211 q -15 386 -31 338 q 36 476 0 435 q 122 526 72 518 q 163 525 140 529 q 205 513 185 521 q 239 492 225 504 q 281 389 268 464 q 273 376 282 381 q 253 374 264 371 q 242 385 243 376 q 240 389 242 386 q 234 425 238 411 q 219 456 231 439 q 193 475 208 472 q 161 458 178 478 q 135 419 144 439 q 92 217 90 332 q 103 113 92 154 q 136 36 117 57 q 167 22 149 24 q 203 27 186 21 q 233 43 219 33 q 300 125 267 67 q 368 335 357 221 z "},"d":{"ha":604,"x_min":-39,"x_max":650,"o":"m 608 329 q 620 342 610 339 q 640 338 631 344 q 647 321 649 331 q 567 74 624 189 q 501 -1 538 17 q 399 11 453 -24 q 358 50 375 26 q 330 108 340 74 q 315 163 319 142 q 304 221 310 183 q 299 251 301 236 q 271 181 286 214 q 242 121 256 146 q 205 67 228 96 q 152 24 182 38 q 88 15 122 11 q 26 43 53 19 q -13 101 0 67 q -33 171 -26 136 q -37 240 -39 206 q 0 382 -35 314 q 94 489 35 450 q 238 524 169 539 q 290 501 263 518 q 310 714 293 607 q 388 919 331 853 q 476 978 428 965 q 526 979 492 982 q 568 967 550 978 q 614 803 631 929 q 553 631 603 710 q 426 510 504 553 q 422 425 425 474 q 426 222 419 346 q 435 119 428 174 q 457 49 440 72 q 470 38 463 40 q 485 41 478 36 q 501 53 493 46 q 516 72 508 61 q 529 94 524 83 q 541 117 535 104 q 550 135 547 129 q 556 147 553 142 q 608 329 590 233 m 453 801 q 429 557 438 697 q 534 676 496 601 q 576 835 572 750 q 564 914 578 886 q 540 940 556 933 q 510 936 522 949 q 453 801 467 893 m 265 288 q 290 372 278 325 q 289 443 289 406 q 256 454 278 457 q 213 436 236 450 q 143 368 175 415 q 83 189 88 290 q 97 92 81 136 q 158 86 114 49 q 222 181 190 111 q 265 288 246 228 z "},"e":{"ha":368,"x_min":-43,"x_max":415,"o":"m 376 329 q 389 341 379 339 q 407 338 399 343 q 413 321 415 332 q 342 135 390 222 q 317 94 329 113 q 291 58 306 76 q 258 24 276 39 q 221 -1 240 8 q 71 -1 147 -39 q -22 135 -3 33 q -26 328 -42 231 q 49 490 -7 440 q 128 526 83 521 q 203 504 158 531 q 249 461 238 483 q 247 394 263 431 q 185 325 228 350 q 90 299 142 300 q 92 83 68 176 q 114 35 100 50 q 169 19 133 14 q 269 92 224 29 q 376 329 344 192 m 99 338 q 99 332 99 336 l 97 331 q 153 346 126 332 q 206 392 183 361 q 213 450 228 422 q 188 471 201 471 q 176 467 185 471 q 142 438 153 451 q 99 338 117 407 z "},"f":{"ha":411,"x_min":-26,"x_max":463,"o":"m 422 339 q 435 349 425 347 q 453 345 446 351 q 458 329 461 339 q 409 247 444 282 q 325 200 374 213 q 203 210 264 183 q 282 -111 272 56 q 276 -293 289 -212 q 192 -404 261 -387 q 120 -392 153 -414 q 67 -331 88 -369 q 8 -153 28 -257 q -24 256 -25 24 q 0 668 -21 511 q 24 711 4 696 q 71 728 43 726 q 121 711 97 729 q 143 667 144 693 q 135 544 142 642 q 127 383 129 446 q 125 260 125 321 q 126 -96 124 -17 q 143 -258 129 -162 q 144 -268 143 -261 q 145 -281 144 -275 q 147 -297 146 -287 q 151 -312 149 -306 q 156 -328 153 -319 q 161 -342 158 -337 q 169 -351 164 -346 q 178 -357 174 -357 q 190 -356 183 -357 q 208 -346 200 -353 q 221 -328 215 -339 q 229 -307 226 -317 q 234 -282 232 -297 q 238 -258 236 -267 q 240 -234 239 -250 q 240 -215 240 -218 q 236 -54 246 -136 q 136 257 217 110 q 143 280 129 271 q 168 278 157 289 q 236 234 197 247 q 315 232 275 221 q 363 254 340 239 q 399 291 385 269 q 422 339 414 313 z "},"g":{"ha":567,"x_min":-72,"x_max":618,"o":"m 593 300 q 608 300 601 304 q 616 289 615 296 q 610 276 617 282 q 469 183 522 219 q 450 -186 479 0 q 426 -317 439 -260 q 388 -439 413 -374 q 325 -558 364 -504 q 233 -650 286 -612 q 152 -693 196 -678 q 59 -703 108 -708 q -25 -667 10 -699 q -56 -622 -44 -647 q -69 -567 -67 -597 q -69 -514 -71 -537 q -64 -458 -68 -490 q 332 129 -14 -135 q 318 299 329 213 q 271 167 297 226 q 242 107 256 132 q 205 53 228 82 q 152 11 182 25 q 88 1 122 -3 q 26 29 51 6 q -14 88 0 53 q -33 157 -28 122 q -37 226 -39 192 q 0 368 -35 300 q 94 475 35 436 q 238 510 169 526 q 296 483 265 504 q 299 482 296 483 q 326 508 308 500 q 346 515 333 517 q 369 515 357 517 q 393 508 382 513 q 413 495 404 504 q 425 474 421 486 q 465 224 456 353 q 593 300 525 261 m 265 274 q 301 408 282 325 q 301 410 301 408 q 301 413 301 411 q 296 418 299 415 q 256 440 282 444 q 213 424 236 436 q 142 354 175 401 q 83 175 88 276 q 97 78 81 122 q 158 72 114 35 q 222 167 189 97 q 265 274 244 214 m 326 -74 q 333 82 333 3 q 176 -68 242 7 q -12 -476 3 -269 q 2 -568 -15 -528 q 65 -614 19 -608 q 208 -511 138 -621 q 285 -318 251 -443 q 326 -74 314 -200 z "},"h":{"ha":563,"x_min":-49,"x_max":610,"o":"m 574 361 q 593 372 576 375 q 606 353 610 368 q 561 172 581 231 q 482 18 526 69 q 424 -19 458 -10 q 354 -15 389 -28 q 297 38 318 0 q 268 118 275 75 q 278 294 258 185 q 313 467 292 381 q 318 482 314 469 q 325 504 322 494 q 328 524 328 514 q 322 539 328 535 q 258 503 299 556 q 190 354 222 456 q 122 57 151 226 q 115 -3 124 17 q 85 -24 106 -22 q 53 -10 65 -26 q 38 14 44 0 q 30 38 32 28 q 24 66 28 47 q 18 90 19 85 q -3 196 10 131 q -32 406 -24 310 q -4 779 -49 593 q 64 940 22 893 q 109 976 83 963 q 165 989 135 989 q 218 969 194 989 q 231 957 222 965 q 242 944 239 949 q 261 921 253 935 q 279 858 278 894 q 244 710 282 797 q 110 528 197 603 q 110 524 110 526 q 108 519 110 521 q 113 263 107 439 q 114 217 113 244 q 168 400 136 310 q 240 533 199 488 q 350 569 296 593 q 392 541 375 558 q 416 500 408 524 q 428 456 424 476 q 430 404 432 436 q 426 354 428 372 q 418 302 424 336 q 411 257 413 268 q 403 89 401 189 q 414 31 404 57 q 415 28 415 28 q 419 26 418 26 q 454 49 443 35 q 529 200 494 94 q 574 361 549 253 m 133 764 q 111 572 117 672 q 196 689 163 625 q 236 806 224 746 q 208 924 256 897 q 183 909 194 919 q 164 888 171 899 q 151 857 157 876 q 144 826 146 838 q 138 792 142 814 q 133 764 135 771 m 415 28 z "},"i":{"ha":282,"x_min":-33,"x_max":331,"o":"m 290 304 q 302 316 292 314 q 321 312 313 318 q 328 296 329 306 q 254 82 296 151 q 181 4 225 31 q 83 -8 136 -22 q 30 24 51 0 q -3 85 8 47 q -19 148 -14 122 q -28 213 -24 174 q -28 344 -33 268 q -24 406 -25 385 q -10 483 -15 468 q 57 526 6 525 q 84 522 69 526 q 110 506 99 517 q 124 483 122 496 q 122 367 129 454 q 117 261 119 338 q 118 156 115 197 q 128 69 122 83 q 143 38 136 42 q 181 51 154 31 q 236 125 207 72 q 290 304 263 178 m 28 582 q 4 601 14 589 q -8 646 -10 617 q -7 667 -8 646 q 14 708 -4 692 q 63 725 31 725 q 111 708 90 726 q 132 667 131 693 q 132 660 132 664 q 133 651 132 656 q 133 644 133 647 q 129 621 133 638 q 110 590 126 610 q 53 575 92 571 q 28 582 40 575 z "},"j":{"ha":326,"x_min":-312,"x_max":379,"o":"m 354 297 q 369 298 363 301 q 377 288 376 294 q 371 274 378 281 q 231 181 283 218 q 211 -189 240 -3 q 187 -319 200 -261 q 149 -442 174 -376 q 86 -560 125 -507 q -6 -651 47 -614 q -66 -686 -33 -672 q -133 -706 -99 -700 q -203 -702 -168 -711 q -264 -668 -237 -693 q -301 -605 -290 -643 q -310 -535 -311 -567 q -303 -460 -310 -504 q 93 128 -253 -136 q 56 442 88 282 q 65 486 51 467 q 103 513 78 506 q 153 507 128 518 q 186 472 179 496 q 226 221 217 350 q 354 297 286 260 m 88 -75 q 94 79 94 0 q -62 -69 3 6 q -251 -479 -236 -272 q -237 -570 -254 -529 q -174 -615 -219 -611 q -31 -512 -101 -624 q 46 -319 13 -446 q 88 -75 75 -203 m 76 582 q 51 601 61 589 q 39 646 39 617 q 42 667 39 646 q 61 708 43 692 q 110 725 79 725 q 160 708 138 726 q 179 667 178 693 q 180 662 179 665 q 181 656 181 658 q 181 650 181 653 q 181 644 181 647 q 178 621 181 638 q 157 590 175 610 q 101 575 139 571 q 76 582 88 575 z "},"k":{"ha":504,"x_min":-49,"x_max":554,"o":"m 514 363 q 527 374 517 372 q 545 369 538 375 q 550 354 553 364 q 525 283 533 307 q 497 215 517 258 q 458 145 476 171 q 410 92 439 119 q 346 49 381 64 q 254 44 299 31 q 175 93 210 57 q 117 176 142 126 q 119 129 118 146 q 120 97 119 118 q 121 67 121 75 q 115 -3 124 15 q 85 -24 106 -22 q 53 -10 65 -26 q 38 14 44 0 q 30 38 32 28 q 24 66 28 47 q 18 90 19 85 q -3 196 10 131 q -32 406 -24 310 q -4 779 -49 593 q 64 940 22 893 q 97 967 78 956 q 136 985 115 979 q 178 988 157 992 q 218 969 200 985 q 231 957 222 965 q 242 944 239 949 q 261 921 253 935 q 279 858 278 894 q 244 710 282 797 q 110 528 197 603 q 110 524 110 526 q 108 519 110 521 q 108 418 108 474 q 128 453 118 438 q 272 572 189 550 q 358 558 319 585 q 396 481 396 531 q 360 393 394 435 q 278 321 325 351 q 175 276 226 288 q 242 150 210 190 q 339 106 286 93 q 446 210 394 119 q 514 363 472 256 m 133 764 q 111 572 117 672 q 196 689 163 625 q 236 806 224 746 q 208 924 256 897 q 183 909 194 919 q 164 888 171 899 q 151 857 157 876 q 144 826 146 838 q 138 792 142 814 q 133 764 135 771 m 128 356 q 169 365 164 363 q 243 400 206 376 q 317 467 292 431 q 326 483 322 474 q 333 501 331 492 q 334 519 335 511 q 327 533 333 528 q 308 540 321 539 q 221 501 271 543 q 160 425 186 472 q 128 356 142 396 z "},"l":{"ha":282,"x_min":-35,"x_max":329,"o":"m 288 329 q 299 342 289 339 q 319 338 310 344 q 326 321 328 331 q 246 74 303 189 q 181 -1 217 17 q 78 11 132 -24 q 37 50 54 26 q 9 108 19 74 q -6 163 -1 142 q -17 221 -11 183 q -32 474 -35 319 q -11 714 -29 593 q 67 919 8 853 q 156 978 107 965 q 206 979 171 982 q 247 967 229 978 q 293 803 310 929 q 233 631 282 710 q 106 510 183 553 q 101 425 104 475 q 104 222 99 346 q 114 119 107 174 q 136 49 119 72 q 149 38 142 40 q 165 41 157 36 q 180 53 172 46 q 195 72 188 61 q 208 94 203 83 q 220 117 214 104 q 229 135 226 129 q 235 147 232 142 q 288 329 269 233 m 132 801 q 108 557 117 697 q 213 676 175 601 q 256 835 251 750 q 243 914 257 886 q 219 940 235 933 q 189 936 201 949 q 132 801 146 893 z "},"m":{"ha":743,"x_min":-28,"x_max":788,"o":"m 751 300 q 762 310 753 308 q 779 308 771 313 q 786 296 788 304 q 747 144 774 217 q 685 29 715 57 q 633 3 664 10 q 575 1 603 -4 q 490 101 513 15 q 479 193 479 143 q 482 300 479 243 q 483 392 485 357 q 474 450 482 431 q 447 458 467 468 q 386 351 408 438 q 363 215 379 326 q 362 208 363 213 q 360 203 361 204 q 360 164 360 176 q 340 51 358 92 q 298 24 329 25 q 254 51 267 24 q 236 178 238 93 q 235 292 235 276 q 232 401 236 347 q 232 415 232 407 q 233 427 232 422 q 233 440 233 432 q 235 451 233 447 q 233 471 235 467 q 233 474 233 471 q 229 472 233 474 l 225 471 q 196 449 210 465 q 176 422 182 433 q 160 389 171 411 q 125 292 139 346 q 101 128 108 226 q 101 120 101 125 q 101 113 101 115 q 100 58 103 81 q 75 4 97 35 q 50 -10 67 -8 q 22 -1 33 -12 q 19 1 21 -1 q -12 50 -7 29 q -19 108 -18 71 q -24 221 -22 164 q -21 451 -26 326 q 10 497 -19 486 q 15 500 13 499 q 74 497 44 511 q 104 451 106 482 q 101 358 103 410 q 164 472 126 428 q 234 508 190 504 q 308 481 278 511 q 353 390 340 447 q 418 488 374 450 q 519 514 463 526 q 622 263 638 490 q 614 125 614 149 q 619 69 614 88 q 630 51 625 56 q 647 51 635 47 q 686 101 665 61 q 713 163 700 131 q 751 300 738 226 z "},"n":{"ha":501,"x_min":-28,"x_max":547,"o":"m 511 300 q 522 310 513 308 q 539 308 531 313 q 546 296 547 304 q 507 144 533 217 q 444 29 474 57 q 392 3 424 10 q 333 1 361 -4 q 250 101 272 15 q 238 193 239 143 q 241 300 238 243 q 243 392 244 357 q 233 450 240 431 q 207 458 226 468 q 146 351 168 438 q 122 215 139 326 q 101 79 117 183 q 100 58 101 67 q 75 4 97 35 q 49 -10 65 -8 q 22 -1 33 -12 q -12 50 -7 29 q -19 108 -18 71 q -24 221 -22 164 q -21 451 -26 326 q 10 497 -19 486 q 15 500 13 499 q 74 497 44 511 q 104 451 106 482 q 101 353 103 407 q 111 386 106 371 q 176 487 132 447 q 279 514 221 526 q 382 263 397 490 q 374 125 374 149 q 379 69 372 88 q 389 51 385 56 q 407 51 393 47 q 446 101 425 61 q 472 163 460 131 q 511 300 497 226 z "},"o":{"ha":478,"x_min":-42,"x_max":528,"o":"m 489 276 q 501 288 490 286 q 519 284 511 290 q 525 268 528 278 q 457 167 507 206 q 340 119 407 129 q 213 -4 288 26 q 125 -12 167 -22 q 49 27 83 -3 q -1 100 15 57 q -34 232 -28 161 q -26 367 -40 303 q -4 398 -22 388 q 38 407 14 408 q 101 497 56 464 q 192 531 142 525 q 288 513 243 536 q 385 356 365 469 q 360 160 403 256 q 489 276 463 188 m 225 86 q 261 118 244 100 q 140 158 193 125 q 107 183 122 169 q 118 136 111 158 q 160 75 133 89 q 225 86 189 61 m 289 151 q 334 261 322 201 q 332 379 346 321 q 239 490 310 472 q 158 484 199 501 q 94 432 117 467 q 78 396 83 414 q 101 353 103 379 q 100 257 100 282 q 210 167 140 192 q 289 151 247 153 z "},"p":{"ha":546,"x_min":-26,"x_max":596,"o":"m 558 336 q 567 344 561 342 q 578 344 572 346 q 588 340 583 343 q 594 331 593 336 q 592 319 596 325 q 460 251 557 256 q 431 251 447 251 q 407 164 424 206 q 265 17 356 40 q 171 21 217 3 q 117 75 138 35 q 107 108 110 90 q 107 36 107 67 q 114 -193 110 -78 q 116 -244 114 -207 q 118 -303 118 -282 q 118 -361 119 -340 q 104 -419 117 -379 q 69 -443 96 -444 q 33 -419 43 -442 q 11 -360 15 -381 q 3 -303 7 -337 q -4 -193 1 -282 q -17 36 -12 -78 q -19 494 -26 274 q 14 542 -19 528 q 79 542 47 557 q 111 494 111 528 q 108 379 110 436 q 169 482 135 443 q 243 528 201 518 q 328 522 285 539 q 396 460 371 504 q 431 364 421 417 q 435 286 436 325 q 558 336 529 283 m 244 111 q 318 250 299 163 q 253 232 285 244 q 174 181 207 214 q 157 108 140 149 q 178 91 163 97 q 207 88 193 85 q 244 111 222 90 m 324 286 q 325 385 329 335 q 323 398 324 386 q 322 415 322 410 q 319 431 321 419 q 316 448 318 442 q 310 463 314 454 q 303 477 307 472 q 293 487 299 482 q 280 494 288 492 q 264 494 272 496 q 228 481 244 492 q 198 453 211 471 q 176 419 185 435 q 158 383 168 404 q 107 221 125 308 q 107 132 107 176 q 172 231 114 192 q 324 286 239 276 z "},"q":{"ha":610,"x_min":-39,"x_max":667,"o":"m 647 364 q 660 346 667 361 q 637 333 653 331 q 605 326 621 335 q 574 297 589 317 q 550 265 558 278 q 531 232 542 253 q 526 226 528 228 q 456 81 519 214 q 433 38 443 57 q 433 35 433 38 q 433 32 433 33 q 533 -33 490 13 q 594 -135 575 -79 q 613 -254 614 -192 q 585 -371 611 -317 q 486 -449 551 -440 q 367 -396 418 -458 q 315 -278 328 -346 q 301 -122 303 -211 q 301 -121 301 -122 q 276 -133 289 -128 q 226 -140 254 -144 q 181 -115 197 -136 q 172 -66 167 -90 q 197 -19 178 -42 q 246 17 218 3 q 304 39 274 32 q 308 112 306 56 q 311 199 310 168 q 314 297 313 240 q 271 181 294 235 q 242 121 256 146 q 205 67 228 96 q 152 24 182 38 q 88 15 122 11 q 26 43 53 19 q -13 101 0 67 q -33 171 -26 136 q -37 240 -39 206 q 0 382 -35 314 q 94 489 35 450 q 238 524 169 539 q 296 497 265 518 q 317 485 303 493 q 322 510 319 496 q 322 513 322 511 q 324 517 322 515 q 337 549 324 536 q 368 566 350 563 q 404 566 386 569 q 434 549 422 563 q 446 517 446 536 q 436 128 442 296 q 496 246 475 213 q 524 290 511 272 q 556 328 536 307 q 598 358 575 349 q 647 364 621 367 m 265 288 q 303 425 282 339 q 296 432 299 428 q 256 454 282 458 q 213 436 236 450 q 143 368 175 415 q 83 189 88 290 q 97 92 81 136 q 158 86 114 49 q 222 181 190 111 q 265 288 246 228 m 301 -78 q 303 4 301 -40 q 249 -22 272 -6 q 224 -48 236 -32 q 208 -82 211 -64 q 228 -107 204 -100 q 301 -78 257 -117 m 524 -83 q 432 -7 488 -32 q 429 -89 431 -51 q 425 -208 424 -140 q 443 -325 426 -275 q 483 -376 460 -369 q 522 -360 506 -383 q 549 -310 539 -336 q 562 -194 568 -256 q 524 -83 556 -132 z "},"r":{"ha":508,"x_min":-28,"x_max":482,"o":"m 429 421 q 463 422 444 432 q 471 393 481 413 q 433 360 458 372 q 383 347 408 347 q 325 370 351 349 q 282 422 299 392 q 260 486 269 447 q 258 496 260 488 q 256 508 257 504 q 247 533 247 533 q 231 528 240 538 q 214 498 222 518 q 201 467 206 478 q 193 446 197 457 q 151 249 175 389 q 96 38 126 108 q 93 33 94 36 q 81 8 88 19 q 71 -1 78 1 q 46 -10 60 -10 q 22 -1 32 -11 q -12 50 -7 29 q -19 108 -18 71 q -24 221 -22 164 q -21 451 -26 326 q 10 497 -19 486 q 15 500 13 499 q 74 497 44 511 q 104 451 106 482 q 100 225 100 349 q 100 189 100 218 q 116 279 107 219 q 135 385 125 339 q 158 472 144 432 q 211 561 183 542 q 306 564 249 589 q 331 545 319 558 q 347 522 342 532 q 363 491 353 513 q 375 464 372 469 q 388 442 381 453 q 408 422 396 431 q 429 421 421 413 z "},"s":{"ha":351,"x_min":-46,"x_max":404,"o":"m 390 300 q 402 289 400 297 q 397 274 404 281 q 381 271 390 268 q 206 265 290 294 l 207 265 q 288 138 285 213 q 278 85 289 111 q 247 38 267 58 q 204 6 228 18 q 113 -11 154 -19 q 49 17 83 -7 q 10 81 14 42 q 26 154 7 119 q 74 221 44 189 q -1 278 24 249 q -35 347 -26 307 q -36 424 -44 386 q 3 496 -26 463 q 71 547 32 529 q 159 565 110 568 q 242 533 208 563 q 281 469 271 507 q 281 396 292 432 q 240 373 271 369 q 207 404 210 376 q 176 461 203 453 q 157 460 169 463 q 132 447 144 457 q 97 401 104 431 q 103 346 89 371 q 172 286 119 317 q 390 300 276 329 m 175 115 q 121 194 185 160 q 107 203 115 197 q 79 167 92 186 q 65 137 71 154 q 56 101 58 119 q 61 69 53 82 q 89 54 69 56 q 149 76 119 53 q 175 115 171 93 z "},"t":{"ha":346,"x_min":-287,"x_max":422,"o":"m 353 333 q 364 347 354 343 q 382 347 374 351 q 389 333 390 343 q 279 60 369 179 q 188 -19 233 -3 q 67 -1 124 -44 q -1 115 24 32 q -25 265 -22 181 q -29 581 -31 394 q -28 719 -29 681 q -101 710 -67 713 q -194 715 -158 707 q -236 729 -217 719 q -253 742 -242 732 q -271 754 -264 751 q -286 775 -286 760 q -274 797 -286 790 q -246 802 -262 806 q -225 783 -229 799 q -224 778 -225 782 q -222 774 -222 775 q -222 767 -221 771 q -206 757 -207 757 q -175 747 -194 751 q -118 746 -154 744 q -28 756 -78 746 q -21 903 -25 839 q 15 953 -18 939 q 81 953 49 968 q 115 903 114 939 q 118 788 118 851 q 219 807 178 801 q 283 813 257 811 q 342 804 308 814 q 394 771 375 794 q 407 697 422 736 q 349 650 392 657 q 278 676 307 643 q 281 744 250 710 q 308 744 293 758 q 310 719 322 733 q 313 693 296 706 q 346 685 331 681 q 364 697 357 688 q 372 719 371 707 q 353 759 374 744 q 306 776 332 774 q 118 751 247 782 q 115 585 118 707 q 106 313 113 425 q 103 265 106 299 q 99 211 100 231 q 99 163 99 192 q 103 111 99 135 q 117 65 108 88 q 185 28 140 8 q 269 111 222 43 q 353 333 336 211 z "},"u":{"ha":579,"x_min":-31,"x_max":624,"o":"m 586 304 q 589 311 586 308 q 596 315 592 314 q 603 317 600 317 q 611 315 607 317 q 618 310 615 313 q 622 304 621 308 q 622 296 624 300 q 550 82 592 151 q 475 4 519 31 q 379 -8 431 -22 q 275 153 297 14 q 261 114 268 132 q 203 19 233 44 q 99 -3 156 -18 q 30 44 58 8 q -10 117 1 79 q -26 201 -22 156 q -29 325 -31 240 q -25 468 -26 450 q 13 520 -21 506 q 79 520 46 535 q 115 468 113 506 q 114 351 117 450 q 111 244 113 265 q 133 71 104 119 q 153 49 146 50 q 188 74 167 46 q 238 171 211 103 q 265 256 251 208 q 267 344 264 296 q 272 406 269 385 q 285 483 279 468 q 353 526 301 525 q 394 515 372 528 q 419 483 417 503 q 418 367 424 454 q 413 261 415 338 q 414 156 411 197 q 422 69 418 83 q 439 38 432 42 q 475 51 450 31 q 531 125 503 72 q 586 304 558 178 z "},"v":{"ha":490,"x_min":-40,"x_max":543,"o":"m 518 364 q 535 362 528 368 q 540 347 542 356 q 528 333 539 338 q 414 325 468 313 q 371 176 403 254 q 351 126 360 146 q 326 82 342 107 q 294 40 311 57 q 232 0 268 13 q 160 -6 196 -12 q 36 104 81 13 q -18 278 1 175 q -37 476 -40 397 q -4 526 -36 511 q 60 526 28 540 q 96 476 93 511 q 129 178 111 275 q 133 158 131 171 q 136 139 135 146 q 140 120 138 132 q 146 100 143 108 q 152 82 149 92 q 161 64 156 72 q 200 40 178 40 q 246 58 222 40 q 314 156 282 85 q 360 278 343 219 q 374 342 368 311 q 361 350 367 346 q 316 410 331 374 q 314 482 301 447 q 354 519 325 513 q 403 499 383 525 q 419 432 417 479 q 419 358 422 397 q 518 364 461 344 m 378 383 q 378 408 378 397 q 372 469 379 447 q 372 474 372 471 q 370 480 371 478 q 367 484 369 482 q 360 486 364 486 q 346 461 347 485 q 378 383 343 418 z "},"w":{"ha":797,"x_min":-31,"x_max":849,"o":"m 813 314 q 838 322 819 331 q 846 307 847 317 q 790 235 828 264 q 707 201 753 207 q 707 201 707 201 q 613 22 671 79 q 531 -21 578 -11 q 439 -15 485 -31 q 301 146 356 15 q 286 190 293 167 q 261 114 275 149 q 203 19 233 44 q 99 -3 156 -18 q 30 44 58 8 q -10 117 1 79 q -26 201 -22 156 q -29 325 -31 240 q -25 468 -26 450 q 13 520 -21 506 q 79 520 46 535 q 115 468 113 506 q 114 351 117 450 q 111 244 113 265 q 133 71 104 119 q 153 49 146 50 q 188 74 167 46 q 238 171 211 103 q 272 285 256 218 q 276 379 271 331 q 295 415 279 401 q 335 428 311 428 q 375 414 357 428 q 392 379 393 400 q 407 183 390 296 q 417 128 413 149 q 433 80 421 108 q 464 33 446 51 q 497 16 478 19 q 535 19 517 13 q 569 38 553 26 q 599 63 586 49 q 667 203 638 108 q 616 217 640 206 q 572 247 592 229 q 539 288 551 265 q 522 463 488 372 q 574 536 539 507 q 653 558 608 565 q 681 549 668 556 q 702 530 694 542 q 716 506 710 518 q 725 478 722 494 q 730 450 728 463 q 732 421 732 438 q 715 232 738 328 q 747 242 732 235 q 774 261 761 250 q 797 285 786 272 q 813 314 807 299 m 694 379 q 694 392 694 382 q 695 408 694 403 q 695 424 696 413 q 694 441 694 435 q 692 458 693 447 q 690 474 692 468 q 685 489 688 481 q 678 503 682 497 q 669 514 675 508 q 658 522 664 519 q 592 507 622 540 q 551 433 563 474 q 578 285 528 346 q 674 229 617 238 q 694 379 693 304 z "},"x":{"ha":475,"x_min":-53,"x_max":525,"o":"m 489 346 q 501 355 492 353 q 517 352 511 357 q 521 338 524 347 q 475 210 513 310 q 431 99 439 115 q 401 47 418 69 q 358 7 383 25 q 306 -18 333 -11 q 207 -10 254 -28 q 125 50 160 8 q 99 89 111 68 q 74 34 93 78 q 43 -32 56 -10 q 20 -39 36 -44 q 7 -18 4 -33 q 38 53 11 -3 q 71 121 53 86 q 74 126 72 122 q 76 131 76 129 q 29 249 61 163 q -42 461 -25 396 q -26 515 -51 496 q 35 527 0 535 q 82 490 69 519 q 125 371 99 449 q 160 271 151 293 q 236 375 197 325 q 286 435 250 392 q 300 452 292 442 q 311 465 308 463 q 316 472 311 467 q 322 481 321 476 q 325 483 324 481 q 329 486 328 490 q 347 523 321 511 q 392 521 374 535 q 403 483 414 507 q 368 461 393 458 q 367 460 372 464 q 357 453 361 457 q 346 442 356 451 q 317 413 325 422 q 269 356 293 386 q 182 235 222 297 q 178 230 181 233 q 176 225 176 226 q 184 201 178 219 q 193 175 190 182 q 202 152 196 168 q 213 126 208 136 q 222 103 217 117 q 235 79 228 90 q 249 57 242 68 q 288 27 265 31 q 331 38 311 24 q 367 73 350 53 q 393 115 383 93 q 440 229 411 151 q 489 346 469 307 z "},"y":{"ha":578,"x_min":-61,"x_max":631,"o":"m 606 297 q 615 300 610 300 q 623 297 619 300 q 628 290 626 293 q 628 282 629 286 q 622 274 626 278 q 482 181 535 218 q 463 -189 492 -3 q 438 -319 451 -261 q 401 -442 425 -376 q 338 -560 376 -507 q 246 -651 299 -614 q 165 -695 208 -679 q 72 -706 121 -711 q -12 -668 22 -701 q -49 -605 -39 -643 q -59 -535 -60 -567 q -51 -460 -58 -504 q 344 128 -1 -136 q 332 293 342 210 q 276 142 306 201 q 213 60 246 81 q 111 33 164 26 q 17 91 53 40 q -28 207 -18 142 q -31 317 -33 244 q -26 453 -29 436 q -2 496 -24 481 q 44 511 19 511 q 90 496 69 511 q 113 453 111 481 q 108 247 117 403 q 140 107 104 149 q 164 90 154 92 q 200 108 179 89 q 253 190 224 132 q 315 369 282 246 q 319 376 317 374 q 307 442 314 410 q 309 473 304 458 q 326 498 314 488 q 354 513 338 508 q 405 507 379 518 q 438 472 431 496 q 478 221 468 350 q 606 297 538 260 m 339 -75 q 346 79 346 0 q 189 -69 254 6 q 0 -479 15 -272 q 15 -570 -3 -529 q 78 -615 32 -611 q 221 -512 150 -624 q 297 -319 264 -446 q 339 -75 326 -203 z "},"z":{"ha":658,"x_min":-203,"x_max":708,"o":"m 663 351 q 678 364 667 361 q 699 360 690 367 q 704 342 708 353 q 518 61 649 150 q 553 -182 560 -49 q 435 -510 543 -364 q 298 -642 378 -586 q 132 -714 218 -697 q -35 -697 46 -731 q -157 -600 -115 -664 q -201 -439 -201 -522 q -164 -274 -201 -356 q 85 -47 -90 -115 q 251 3 142 -25 q 408 49 360 31 q 410 49 410 49 q 411 50 411 49 q 383 119 400 90 q 271 186 340 192 q 190 161 235 183 q 156 141 160 146 q 147 130 151 136 q 137 117 142 124 q 126 106 132 111 q 79 94 104 92 q 40 117 54 96 q 40 163 26 138 q 193 363 92 261 q 292 449 243 413 q 260 453 272 451 q 178 453 225 457 q 160 449 171 451 l 149 447 q 134 439 143 444 q 121 431 125 433 q 66 430 97 417 q 35 473 35 443 q 66 517 35 503 q 121 515 97 531 q 138 507 138 507 q 144 504 139 507 q 149 500 149 501 l 164 497 q 185 494 175 494 q 260 493 239 490 q 307 499 282 496 q 363 507 332 503 q 410 514 393 511 q 467 494 450 519 q 473 467 475 482 q 458 443 471 453 q 422 415 443 431 q 385 385 401 399 q 349 357 368 372 q 312 326 331 342 q 278 296 293 311 q 236 250 257 275 q 271 256 254 254 q 450 174 375 260 q 501 97 479 140 q 513 106 507 101 q 663 351 614 185 m 428 -161 q 422 -14 433 -92 q 419 13 421 1 q 340 -12 383 0 q 249 -35 297 -24 q 169 -57 201 -47 q -101 -244 -19 -114 q -156 -392 -144 -314 q -135 -547 -167 -469 q -69 -618 -114 -593 q 23 -643 -25 -643 q 121 -632 71 -643 q 338 -439 242 -596 q 428 -161 414 -312 z "},"{":{"ha":397,"x_min":68,"x_max":331,"o":"m 283 868 q 256 815 265 853 q 250 783 251 800 q 250 748 249 767 q 253 715 251 729 q 257 679 254 701 q 261 647 260 657 q 239 467 275 533 q 193 408 221 432 q 235 353 219 386 q 235 207 258 299 q 226 173 232 196 q 215 137 219 150 q 209 103 211 124 q 208 67 207 83 q 226 18 211 40 q 264 -4 240 -4 q 294 -24 286 -3 q 281 -56 303 -46 q 208 -61 244 -69 q 144 -25 171 -53 q 107 118 93 28 q 128 199 111 146 q 150 278 146 251 q 126 381 163 351 q 111 379 118 379 q 78 393 90 379 q 69 417 68 403 q 82 439 71 431 q 144 546 135 483 q 147 606 149 588 q 140 667 146 625 q 133 729 135 710 q 168 900 125 843 q 240 954 201 944 q 290 955 261 963 q 326 925 319 947 q 324 900 331 910 q 301 880 318 890 q 283 868 285 869 z "},"|":{"ha":292,"x_min":68,"x_max":224,"o":"m 214 26 q 217 13 214 22 q 220 -1 219 3 q 222 -14 221 -6 q 222 -28 222 -22 q 219 -42 221 -35 q 179 -74 211 -68 q 128 -62 147 -81 q 116 -49 121 -56 q 107 -32 111 -42 q 100 -16 103 -22 q 95 3 97 -10 q 92 21 93 15 q 88 40 90 26 q 86 57 86 54 q 72 182 75 119 q 72 422 68 249 q 74 581 72 471 q 77 774 75 692 q 85 933 79 857 q 115 975 86 963 q 171 976 143 988 q 199 933 199 964 q 201 766 201 813 q 199 599 201 719 q 194 432 196 478 q 194 190 192 249 q 204 79 197 131 q 214 26 207 54 z "},"}":{"ha":397,"x_min":61,"x_max":329,"o":"m 317 444 q 328 422 328 436 q 319 399 329 408 q 286 385 307 385 q 271 386 279 385 q 249 279 233 356 q 269 203 253 256 q 290 124 286 151 q 250 -24 304 29 q 187 -56 222 -49 q 117 -50 151 -62 q 103 -19 94 -40 q 133 1 113 3 q 173 24 158 1 q 189 76 188 47 q 188 118 192 97 q 175 172 185 139 q 163 213 165 204 q 164 361 139 307 q 204 414 179 393 q 158 472 176 438 q 135 644 124 538 q 140 684 136 657 q 146 727 144 711 q 147 767 147 743 q 144 808 147 790 q 118 869 138 850 q 97 885 115 874 q 72 911 78 897 q 90 953 63 939 q 143 963 117 967 q 222 914 186 957 q 265 742 272 857 q 258 678 264 721 q 250 615 251 636 q 253 551 249 593 q 317 444 263 489 z "},"~":{"ha":476,"x_min":61,"x_max":408,"o":"m 351 360 q 383 377 360 378 q 407 354 407 376 q 359 263 406 294 q 256 251 313 232 q 229 265 242 257 q 201 285 217 274 q 176 303 186 297 q 171 308 172 310 q 167 303 168 307 q 149 279 161 289 q 111 268 136 267 q 76 288 86 269 q 79 346 61 317 q 119 383 94 369 q 226 381 171 408 q 258 358 238 375 q 290 336 279 340 q 325 336 307 329 q 351 360 343 343 z "}," ":{"ha":438,"x_min":0,"x_max":0,"o":""},"¡":{"ha":294,"x_min":68,"x_max":229,"o":"m 221 376 q 214 -64 229 72 q 191 -108 211 -92 q 142 -125 171 -125 q 92 -108 115 -126 q 69 -64 68 -90 q 83 158 72 11 q 96 376 93 304 q 100 599 101 494 q 119 814 100 735 q 148 833 125 833 q 178 814 171 832 q 214 594 207 732 q 221 376 219 471 m 106 857 q 88 893 86 872 q 100 944 92 935 q 129 965 111 960 q 160 969 143 971 q 211 932 199 965 q 206 879 215 919 q 178 849 201 863 q 140 843 163 840 q 106 857 121 846 z "},"¢":{"ha":651,"x_min":68,"x_max":583,"o":"m 547 321 q 558 331 549 329 q 576 328 568 333 q 581 313 583 322 q 538 225 568 264 q 467 163 508 186 q 376 138 425 140 q 371 25 375 79 q 347 4 369 7 q 321 19 325 1 q 297 146 307 81 q 181 214 232 164 q 100 329 129 264 q 70 486 69 404 q 101 642 71 568 q 167 744 125 699 q 260 814 208 790 q 263 915 261 868 q 294 961 264 949 q 355 961 325 974 q 385 915 385 949 q 382 828 383 871 q 494 758 450 814 q 539 629 538 701 q 528 614 539 618 q 508 614 518 610 q 497 629 497 618 q 432 767 493 718 q 382 792 410 785 q 379 471 378 601 q 378 168 382 293 q 485 216 439 174 q 547 321 531 258 m 147 317 q 292 181 200 217 q 265 465 271 315 q 260 776 260 635 q 146 654 186 736 q 107 481 106 572 q 147 317 108 390 z "},"£":{"ha":690,"x_min":65,"x_max":625,"o":"m 583 121 q 614 124 594 136 q 618 104 625 115 q 576 71 600 82 q 527 59 553 60 q 476 65 501 58 q 426 82 451 71 q 386 103 422 85 q 331 128 350 121 q 306 65 321 94 q 271 19 292 39 q 223 -8 250 0 q 167 1 196 -15 q 135 71 128 24 q 185 140 140 111 q 267 168 222 165 q 258 219 264 190 q 231 331 246 281 q 218 370 225 349 q 202 418 211 392 q 188 460 193 444 q 89 458 132 458 q 72 467 76 458 q 72 484 67 475 q 89 493 76 493 q 178 492 131 493 q 160 793 119 676 q 288 950 197 900 q 386 974 331 975 q 481 939 442 972 q 544 763 544 883 q 513 533 544 678 q 494 522 510 521 q 481 536 479 524 q 496 674 482 572 q 497 808 507 765 q 440 892 485 863 q 349 894 396 922 q 264 743 282 856 q 289 518 250 658 q 297 492 293 506 q 439 490 367 490 q 456 476 456 490 q 439 461 456 461 q 306 460 376 460 q 346 283 339 346 q 339 160 353 224 q 381 146 360 154 q 416 126 386 142 q 462 105 446 111 q 503 92 478 99 q 549 94 529 86 q 583 121 568 101 m 264 104 q 267 135 267 118 q 189 96 217 128 q 177 49 171 76 q 214 29 183 22 q 264 104 250 39 z "},"¤":{"ha":497,"x_min":65,"x_max":432,"o":"m 396 558 q 422 557 408 569 q 422 536 432 546 q 368 486 397 515 q 392 386 400 440 q 349 299 385 336 q 401 240 378 265 q 406 223 410 232 q 392 213 401 214 q 375 217 383 211 q 321 275 351 243 q 278 254 301 261 q 157 263 217 236 q 135 239 151 256 q 111 213 119 222 q 85 213 99 200 q 83 238 72 225 q 94 248 88 242 q 104 259 100 254 q 115 270 108 264 q 125 281 121 276 q 111 293 117 288 q 69 383 74 331 q 92 479 65 435 q 131 503 103 501 q 104 536 114 524 q 111 557 93 550 q 136 553 128 564 q 175 501 153 531 q 240 539 201 531 q 314 531 278 547 q 346 511 331 524 q 396 558 372 539 m 317 482 q 255 505 290 508 q 199 472 219 501 q 250 411 221 444 q 281 445 258 421 q 317 482 304 469 m 186 432 q 183 342 158 389 q 225 385 208 367 q 186 432 207 408 m 207 314 q 290 311 244 285 q 249 358 268 335 q 207 314 228 336 m 317 333 q 344 391 338 358 q 338 453 350 424 q 305 419 326 442 q 272 383 283 396 q 317 333 293 360 z "},"¥":{"ha":950,"x_min":67,"x_max":881,"o":"m 864 592 q 881 576 881 592 q 864 561 881 561 q 692 561 785 561 q 693 350 693 449 q 692 183 693 206 q 693 185 692 183 q 784 244 747 206 q 824 333 821 282 q 835 347 825 343 q 853 347 844 351 q 863 333 863 343 q 833 247 860 286 q 763 181 806 207 q 689 147 732 161 q 611 -104 678 -10 q 439 -221 542 -203 q 340 -216 386 -231 q 271 -157 293 -201 q 260 -95 257 -129 q 276 -33 264 -61 q 307 22 288 -4 q 472 132 365 100 q 551 150 501 142 q 550 226 551 176 q 542 451 550 242 q 540 504 540 475 q 415 204 490 318 q 290 114 364 125 q 147 168 203 100 q 83 340 103 222 q 69 536 68 442 q 83 722 72 631 q 89 772 85 735 q 96 826 93 808 q 106 872 99 844 q 121 922 113 900 q 159 956 132 949 q 210 951 186 964 q 239 908 235 938 q 240 844 240 864 q 233 778 239 825 q 225 714 228 732 q 214 528 215 590 q 218 360 213 432 q 228 274 221 335 q 244 210 232 235 q 276 169 261 179 q 333 181 297 156 q 370 216 353 193 q 396 253 388 239 q 419 299 404 268 q 513 560 476 413 q 397 560 451 560 q 380 568 385 560 q 380 585 375 576 q 397 594 385 594 q 519 593 454 593 q 531 643 525 617 q 397 643 456 643 q 380 651 385 643 q 380 669 375 660 q 397 678 385 678 q 538 676 456 676 q 538 682 538 676 q 538 683 538 682 q 547 910 536 836 q 601 961 554 956 q 643 954 621 964 q 668 925 665 944 q 689 675 685 838 q 864 675 778 675 q 881 660 881 675 q 864 644 881 644 q 689 644 782 644 q 690 633 690 633 q 690 593 690 629 q 864 592 782 592 m 536 21 q 550 117 547 63 q 365 32 424 92 q 309 -52 329 -4 q 310 -139 289 -100 q 341 -169 319 -160 q 386 -176 363 -179 q 465 -125 425 -171 q 536 21 513 -71 z "},"§":{"ha":481,"x_min":67,"x_max":432,"o":"m 236 315 q 257 335 243 324 q 280 356 271 346 q 294 379 289 367 q 292 472 314 424 q 250 526 281 499 q 223 484 244 517 q 190 428 201 451 q 175 378 179 404 q 188 286 165 325 q 256 221 201 260 q 361 47 372 136 q 307 -46 354 -11 q 203 -65 260 -81 q 178 -35 178 -58 q 203 -6 178 -12 q 265 38 251 7 q 253 114 282 74 q 181 176 233 139 q 110 236 129 213 q 69 357 67 292 q 103 483 72 422 q 185 586 135 544 q 154 619 167 604 q 104 724 114 665 q 118 840 94 783 q 182 947 139 894 q 274 1003 225 999 q 276 1003 275 1003 l 279 1004 q 319 999 299 1010 q 344 967 340 988 q 337 937 347 950 q 310 918 326 924 q 261 856 285 896 q 226 757 228 799 q 231 722 226 739 q 249 687 236 704 q 270 660 263 669 q 299 632 278 651 q 325 607 319 613 q 407 400 432 501 q 351 307 394 349 q 258 271 307 265 q 231 287 239 274 q 236 315 224 300 z "},"©":{"ha":910,"x_min":47,"x_max":863,"o":"m 547 353 q 574 373 554 369 q 608 366 594 376 q 617 336 622 356 q 557 255 601 286 q 458 222 513 224 q 365 248 410 222 q 296 317 319 274 q 270 413 269 363 q 296 511 271 464 q 359 585 318 554 q 447 625 400 617 q 548 610 497 633 q 607 539 599 588 q 582 499 613 510 q 536 514 551 489 q 494 544 517 543 q 435 521 465 546 q 379 406 376 472 q 399 347 381 374 q 444 308 417 319 q 504 311 475 299 q 547 353 533 324 m 663 764 q 818 565 774 692 q 822 310 863 438 q 682 106 785 189 q 453 14 579 22 q 220 85 325 4 q 82 292 115 167 q 100 575 49 422 q 276 754 165 768 q 381 813 321 796 q 526 819 454 832 q 663 764 599 806 m 796 379 q 759 597 811 494 q 606 753 707 700 q 490 787 549 781 q 372 771 431 793 q 311 735 339 758 q 299 701 324 710 q 271 686 285 696 q 246 619 253 656 q 233 607 244 608 q 213 613 221 606 q 168 501 185 561 q 171 247 131 368 q 292 90 206 143 q 517 64 389 29 q 703 180 625 92 q 796 379 782 268 z "},"­":{"ha":0,"x_min":0,"x_max":0,"o":""},"®":{"ha":910,"x_min":47,"x_max":863,"o":"m 663 764 q 818 565 774 692 q 822 310 863 438 q 682 106 785 189 q 453 14 579 22 q 220 85 325 4 q 82 292 115 167 q 100 575 49 422 q 276 754 165 768 q 381 813 321 796 q 526 819 454 832 q 663 764 599 806 m 796 379 q 759 597 811 494 q 606 753 707 700 q 490 787 549 781 q 372 771 431 793 q 311 735 339 758 q 299 701 324 710 q 271 686 285 696 q 246 619 253 656 q 233 607 244 608 q 213 613 221 606 q 168 501 185 561 q 171 247 131 368 q 292 90 206 143 q 517 64 389 29 q 703 180 625 92 q 796 379 782 268 m 529 306 q 578 256 546 272 q 650 242 611 239 q 678 222 674 243 q 658 194 682 200 q 521 231 581 176 q 479 290 493 256 q 474 306 478 293 q 466 329 471 318 q 457 347 461 340 q 444 344 450 346 q 432 263 442 301 q 404 193 418 213 q 328 160 375 151 q 265 215 282 169 q 254 313 257 236 q 251 413 251 363 q 267 613 253 540 q 294 641 271 635 q 340 635 318 647 q 363 601 363 624 q 360 527 363 575 q 357 457 357 479 q 360 313 356 385 q 365 243 364 260 q 368 235 367 239 q 373 243 368 236 q 379 254 378 250 q 390 285 385 268 q 401 342 397 311 q 371 379 367 350 q 401 410 375 404 q 456 431 431 415 q 501 469 482 446 q 529 519 519 492 q 515 604 551 586 q 444 540 478 625 q 432 531 442 533 q 416 535 422 529 q 413 549 410 540 q 504 642 443 640 q 556 621 536 643 q 582 564 575 599 q 583 485 590 522 q 553 418 575 449 q 499 367 531 388 q 509 348 504 358 q 519 325 514 338 q 529 306 525 313 z "},"µ":{"ha":679,"x_min":68,"x_max":619,"o":"m 600 257 q 599 169 619 213 q 538 98 579 125 q 454 65 497 71 q 294 110 357 51 q 224 249 240 160 q 218 428 211 315 q 246 621 224 524 q 268 700 250 639 q 290 796 286 761 q 275 875 297 849 q 253 896 265 888 q 236 767 251 875 q 221 636 228 701 q 208 361 210 506 q 219 88 207 224 q 225 22 221 69 q 231 -50 229 -25 q 235 -113 233 -75 q 236 -183 236 -151 q 217 -215 235 -206 q 178 -218 199 -225 q 149 -193 157 -211 q 86 88 104 -92 q 69 361 71 224 q 82 636 68 493 q 99 776 89 706 q 129 921 114 875 q 182 958 140 953 q 243 939 224 964 q 333 866 299 926 q 367 743 367 806 q 365 703 367 725 q 360 666 363 682 q 353 626 357 650 q 346 589 349 603 q 331 432 336 524 q 329 283 325 346 q 358 174 333 210 q 385 144 369 157 q 419 124 400 132 q 457 117 438 117 q 497 126 478 118 q 532 148 517 133 q 557 182 547 163 q 561 240 571 208 q 519 276 551 271 q 481 258 494 282 q 474 210 467 233 q 450 167 483 176 q 396 182 414 156 q 389 200 390 189 q 410 276 383 242 q 479 317 438 310 q 551 306 517 322 q 600 257 586 290 z "},"¶":{"ha":719,"x_min":58,"x_max":651,"o":"m 618 636 q 604 361 606 506 q 615 88 603 224 q 622 22 617 69 q 628 -50 626 -25 q 632 -113 631 -75 q 632 -183 633 -151 q 613 -215 631 -206 q 574 -218 594 -225 q 546 -193 553 -211 q 482 88 501 -92 q 465 361 467 224 q 471 536 465 446 q 424 474 453 518 q 421 375 422 418 q 422 118 419 246 q 424 54 422 97 q 426 -15 425 11 q 426 -78 426 -42 q 424 -146 425 -115 q 382 -186 419 -181 q 350 -180 367 -187 q 331 -157 333 -172 q 311 110 314 -71 q 310 354 308 231 q 297 347 303 350 q 167 338 231 314 q 81 439 101 361 q 76 581 60 507 q 146 704 93 656 q 325 772 222 775 q 333 894 328 836 q 364 935 336 924 q 418 935 392 947 q 443 894 444 924 q 433 742 438 821 q 486 704 463 726 q 494 776 490 740 q 526 921 510 876 q 566 956 535 947 q 624 951 597 965 q 650 907 650 938 q 633 767 649 882 q 618 636 624 701 m 310 407 q 321 707 313 560 q 276 701 299 707 q 235 683 254 694 q 200 656 217 672 q 172 622 183 640 q 144 511 144 576 q 175 401 143 446 q 220 376 192 379 q 272 383 249 372 q 310 407 292 392 m 474 586 q 475 607 475 600 q 469 614 474 610 q 465 619 465 618 q 429 658 442 647 q 425 543 426 601 q 474 586 450 572 z "},"¿":{"ha":656,"x_min":57,"x_max":599,"o":"m 582 281 q 557 71 599 160 q 452 -49 522 -6 q 300 -82 382 -92 q 155 -14 218 -74 q 75 128 92 46 q 88 305 57 218 q 185 493 119 392 q 218 544 194 508 q 258 606 242 579 q 288 658 274 632 q 319 749 308 704 q 328 799 324 767 q 335 843 332 831 q 358 872 339 861 q 397 883 378 883 q 410 882 404 883 q 424 878 417 881 q 436 873 431 876 q 447 865 442 869 q 456 855 451 861 q 461 843 460 849 q 429 642 482 761 q 328 468 397 571 q 306 435 324 461 q 281 399 288 408 q 260 366 275 390 q 238 329 244 342 q 220 294 232 317 q 203 256 208 272 q 191 218 197 239 q 181 176 185 197 q 192 46 169 106 q 292 -44 219 -29 q 430 -16 365 -60 q 519 101 494 28 q 511 272 549 185 q 503 292 511 274 q 492 317 494 311 q 481 340 489 324 q 466 363 472 356 q 451 381 460 371 q 432 394 442 390 q 418 442 397 413 q 465 460 438 468 q 482 450 475 457 q 549 374 536 394 q 582 281 575 333 m 363 914 q 332 960 331 931 q 338 1007 335 999 q 376 1044 346 1035 q 435 1038 407 1053 q 463 993 463 1024 q 454 944 463 985 q 411 908 447 918 l 410 908 q 363 914 386 901 z "},"À":{"ha":800,"x_min":63,"x_max":739,"o":"m 488 1024 q 451 1019 479 1011 q 440 1038 433 1026 q 482 1103 454 1058 q 506 1110 488 1111 q 529 1100 524 1108 q 551 1067 532 1094 q 582 1036 554 1063 q 583 1017 593 1025 q 560 1008 572 1010 q 527 1010 546 1006 q 507 1028 508 1015 q 505 1038 506 1031 q 503 1049 504 1044 q 488 1024 493 1032 m 726 21 q 723 -8 739 6 q 690 -18 707 -22 q 597 40 622 1 q 564 157 571 81 q 560 221 561 186 q 558 278 558 256 q 560 344 558 301 q 561 404 561 388 q 561 418 561 410 q 561 429 561 426 q 526 256 544 336 q 513 200 519 222 q 497 148 507 178 q 472 94 486 118 q 439 50 458 69 q 358 0 404 13 q 263 4 311 -12 q 71 394 89 64 q 97 632 64 517 q 204 832 129 747 q 397 950 285 924 q 459 960 428 957 q 526 955 490 963 q 581 926 561 947 q 644 959 600 961 q 703 918 689 957 q 710 888 708 906 q 713 858 713 871 q 713 824 713 846 q 713 794 713 801 q 713 675 713 754 q 710 446 713 639 q 704 213 708 289 q 703 108 701 128 q 712 74 704 100 q 718 32 719 47 q 726 21 722 26 m 568 849 q 568 860 568 850 q 569 876 568 871 q 520 874 553 874 q 483 874 488 874 q 399 849 440 871 q 271 719 326 813 q 192 339 182 571 q 225 149 196 219 q 270 78 242 110 q 335 44 299 46 q 408 82 378 44 q 458 168 439 119 q 510 379 479 226 q 565 740 536 518 q 567 785 565 756 q 567 805 567 792 q 567 828 567 818 q 568 849 567 839 z "},"Á":{"ha":800,"x_min":63,"x_max":739,"o":"m 476 1019 q 446 1020 465 1015 q 432 1039 426 1025 q 440 1050 435 1043 q 446 1060 444 1057 q 458 1078 456 1075 q 497 1111 460 1079 q 528 1120 511 1121 q 561 1113 546 1119 q 578 1098 574 1107 q 574 1078 583 1089 q 531 1046 531 1046 q 515 1038 525 1042 q 501 1032 504 1033 q 494 1028 499 1031 q 484 1023 489 1025 q 476 1019 479 1021 m 726 21 q 723 -8 739 6 q 690 -18 707 -22 q 597 40 622 1 q 564 157 571 81 q 560 221 561 186 q 558 278 558 256 q 560 344 558 301 q 561 404 561 388 q 561 418 561 410 q 561 429 561 426 q 526 256 544 336 q 508 181 517 210 q 482 115 500 153 q 439 50 464 76 q 358 0 404 13 q 263 4 311 -12 q 71 394 89 64 q 97 632 64 517 q 204 832 129 747 q 397 950 285 924 q 459 960 428 957 q 526 955 490 963 q 581 926 561 947 q 644 959 600 961 q 703 918 689 957 q 710 888 708 906 q 713 858 713 871 q 713 824 713 846 q 713 794 713 801 q 713 675 713 754 q 710 446 713 639 q 704 213 708 289 q 703 108 701 128 q 712 74 704 100 q 718 32 719 47 q 726 21 722 26 m 568 849 q 568 860 568 850 q 569 876 568 871 q 541 873 557 874 q 513 873 525 872 q 483 874 500 874 q 399 849 440 871 q 271 719 326 813 q 192 339 182 571 q 225 149 196 219 q 270 78 242 110 q 335 44 299 46 q 408 82 378 44 q 458 168 439 119 q 510 379 479 226 q 565 740 536 518 q 567 785 565 756 q 567 805 567 792 q 567 828 567 818 q 568 849 567 839 z "},"Â":{"ha":800,"x_min":63,"x_max":739,"o":"m 357 1082 q 347 1103 343 1093 q 365 1117 350 1113 q 432 1103 403 1128 q 444 1092 436 1099 q 460 1080 453 1086 q 471 1068 467 1074 q 477 1059 474 1065 q 482 1050 481 1053 q 494 1032 493 1035 q 482 1019 500 1021 q 453 1021 464 1017 q 444 1025 449 1022 q 434 1031 439 1028 q 425 1036 429 1035 q 399 1049 401 1047 q 357 1082 399 1049 m 726 21 q 723 -8 739 6 q 690 -18 707 -22 q 597 40 622 1 q 564 157 571 81 q 560 221 561 186 q 558 278 558 256 q 560 344 558 301 q 561 404 561 388 q 561 418 561 410 q 561 429 561 426 q 526 256 544 336 q 508 181 517 210 q 482 115 500 153 q 439 50 464 76 q 358 0 404 13 q 263 4 311 -12 q 71 394 89 64 q 97 632 64 517 q 204 832 129 747 q 397 950 285 924 q 433 957 414 954 q 473 960 451 960 q 514 958 494 960 q 551 947 533 956 q 581 926 569 939 q 644 959 600 961 q 703 918 689 957 q 710 888 708 906 q 713 858 713 871 q 713 824 713 846 q 713 794 713 801 q 713 675 713 754 q 710 446 713 639 q 704 213 708 289 q 703 108 701 128 q 712 74 704 100 q 718 32 719 47 q 726 21 722 26 m 568 849 q 568 860 568 850 q 569 876 568 871 q 520 874 553 874 q 483 874 488 874 q 399 849 440 871 q 271 719 326 813 q 192 339 182 571 q 225 149 196 219 q 270 78 242 110 q 335 44 299 46 q 408 82 378 44 q 458 168 439 119 q 510 379 479 226 q 565 740 536 518 q 567 785 565 756 q 567 805 567 792 q 567 828 567 818 q 568 849 567 839 z "},"Ã":{"ha":800,"x_min":63,"x_max":739,"o":"m 368 1031 q 356 1022 368 1024 q 332 1024 344 1019 q 319 1038 319 1028 q 344 1082 319 1068 q 400 1089 369 1096 q 446 1061 419 1085 q 478 1060 464 1046 q 489 1089 486 1069 q 513 1099 490 1103 q 536 1083 535 1096 q 515 1038 539 1054 q 463 1023 492 1021 q 410 1044 433 1025 q 406 1049 408 1046 q 401 1053 403 1051 q 396 1058 399 1056 q 390 1061 393 1060 q 385 1061 388 1063 q 368 1031 368 1060 m 726 21 q 723 -8 739 6 q 690 -18 707 -22 q 597 40 622 1 q 564 157 571 81 q 560 221 561 186 q 558 278 558 256 q 560 344 558 301 q 561 404 561 388 q 561 418 561 410 q 561 429 561 426 q 526 256 544 336 q 508 181 517 210 q 482 115 500 153 q 439 50 464 76 q 358 0 404 13 q 263 4 311 -12 q 71 394 89 64 q 97 632 64 517 q 204 832 129 747 q 397 950 285 924 q 459 960 428 957 q 526 955 490 963 q 581 926 561 947 q 644 959 600 961 q 703 918 689 957 q 710 888 708 906 q 713 858 713 871 q 713 824 713 846 q 713 794 713 801 q 713 675 713 754 q 710 446 713 639 q 704 213 708 289 q 703 108 701 128 q 712 74 704 100 q 718 32 719 47 q 726 21 722 26 m 568 849 q 568 860 568 850 q 569 876 568 871 q 520 874 553 874 q 483 874 488 874 q 399 849 440 871 q 271 719 326 813 q 192 339 182 571 q 225 149 196 219 q 270 78 242 110 q 335 44 299 46 q 408 82 378 44 q 458 168 439 119 q 510 379 479 226 q 565 740 536 518 q 567 785 565 756 q 567 805 567 792 q 567 828 567 818 q 568 849 567 839 z "},"Ä":{"ha":800,"x_min":63,"x_max":739,"o":"m 392 1057 q 391 1061 392 1058 q 390 1065 390 1064 q 392 1068 392 1067 q 393 1071 392 1069 l 393 1078 q 401 1090 394 1086 q 411 1096 407 1094 q 429 1099 419 1099 q 442 1100 436 1100 q 464 1096 453 1100 l 476 1092 q 483 1089 479 1090 q 486 1090 485 1090 q 490 1093 488 1092 q 494 1096 493 1094 q 513 1099 504 1099 q 526 1100 519 1100 q 549 1096 538 1100 l 561 1092 q 575 1083 568 1089 q 583 1072 581 1079 l 585 1067 q 586 1064 586 1065 q 590 1056 590 1061 q 589 1049 592 1051 q 583 1040 588 1043 q 576 1035 581 1038 q 565 1031 571 1032 q 551 1029 558 1029 q 538 1028 544 1028 q 514 1032 525 1028 q 500 1036 503 1036 q 497 1039 500 1038 q 492 1035 494 1036 q 481 1031 486 1032 q 467 1029 474 1029 q 453 1028 460 1028 q 429 1032 440 1028 q 417 1036 421 1035 l 406 1042 q 401 1046 404 1043 q 397 1050 399 1049 q 392 1057 393 1056 m 726 21 q 722 -8 738 6 q 690 -18 707 -22 q 597 40 622 1 q 564 157 571 81 q 560 221 561 186 q 558 278 558 256 q 559 344 558 301 q 561 404 560 388 q 561 418 561 410 q 561 429 561 426 q 526 256 544 336 q 508 181 517 210 q 482 115 500 153 q 439 50 464 76 q 358 0 404 13 q 263 4 311 -12 q 71 394 89 64 q 97 632 64 517 q 204 832 129 747 q 397 950 285 924 q 459 960 428 957 q 526 955 490 963 q 581 926 561 947 q 644 959 600 961 q 703 918 689 957 q 710 888 708 906 q 713 858 713 871 q 713 824 713 846 q 713 794 713 801 q 713 675 713 754 q 710 446 713 639 q 704 213 708 289 q 703 108 701 128 q 712 74 704 100 q 718 32 719 47 q 726 21 722 26 m 568 849 q 568 860 568 850 q 569 876 568 871 q 520 874 553 874 q 483 874 488 874 q 399 849 440 871 q 271 719 326 813 q 192 339 182 571 q 225 149 196 219 q 270 78 242 110 q 335 44 299 46 q 408 82 378 44 q 458 168 439 119 q 510 379 479 226 q 565 740 536 518 q 567 785 565 756 q 567 805 567 792 q 567 828 567 818 q 568 849 567 839 z "},"Å":{"ha":800,"x_min":63,"x_max":739,"o":"m 543 1019 q 496 1008 524 1006 q 451 1028 468 1011 q 437 1063 435 1043 q 456 1097 439 1083 q 464 1100 458 1099 q 469 1114 457 1110 q 518 1115 492 1122 q 558 1090 544 1108 q 566 1051 571 1072 q 543 1019 561 1031 m 494 1079 q 486 1044 476 1065 q 507 1039 494 1029 q 518 1075 522 1053 q 511 1088 517 1081 q 500 1093 506 1094 q 496 1092 499 1092 q 494 1079 503 1086 m 726 21 q 723 -8 739 6 q 690 -18 707 -22 q 597 40 622 1 q 564 157 571 81 q 560 221 561 186 q 558 278 558 256 q 560 344 558 301 q 561 404 561 388 q 561 418 561 410 q 561 429 561 426 q 526 256 544 336 q 508 181 517 210 q 482 115 500 153 q 439 50 464 76 q 358 0 404 13 q 263 4 311 -12 q 71 394 89 64 q 97 632 64 517 q 204 832 129 747 q 397 950 285 924 q 459 960 428 957 q 526 955 490 963 q 581 926 561 947 q 644 959 600 961 q 703 918 689 957 q 710 888 708 906 q 713 858 713 871 q 713 824 713 846 q 713 794 713 801 q 713 675 713 754 q 710 446 713 639 q 704 213 708 289 q 703 108 701 128 q 712 74 704 100 q 718 32 719 47 q 726 21 722 26 m 568 849 q 568 858 568 853 q 569 867 568 863 q 569 876 569 872 q 520 874 553 874 q 483 874 488 874 q 399 849 440 871 q 271 719 326 813 q 192 339 182 571 q 225 149 196 219 q 270 78 242 110 q 335 44 299 46 q 408 82 378 44 q 458 168 439 119 q 510 379 479 226 q 565 740 536 518 q 567 785 565 756 q 567 795 567 789 q 567 806 567 801 q 567 817 567 811 q 567 827 567 822 q 567 838 567 832 q 568 849 567 844 z "},"Æ":{"ha":1190,"x_min":63,"x_max":1233,"o":"m 1190 269 q 1204 283 1193 281 q 1224 278 1215 285 q 1229 261 1233 271 q 1203 179 1215 213 q 1169 106 1192 146 q 1118 38 1147 67 q 917 -33 1031 -50 q 781 35 839 -22 q 703 169 722 92 q 703 108 700 132 q 712 74 704 100 q 718 32 719 47 q 726 21 722 26 q 723 -8 739 6 q 690 -18 707 -22 q 597 40 622 1 q 564 157 571 81 q 560 221 561 186 q 558 278 558 256 q 560 344 558 301 q 561 404 561 388 q 561 418 561 410 q 561 429 561 426 q 526 256 544 336 q 517 212 521 229 q 504 169 513 194 q 488 125 496 143 q 467 87 479 107 q 439 50 454 67 q 358 0 404 13 q 263 4 311 -12 q 71 394 89 64 q 97 632 64 517 q 204 832 129 747 q 397 950 285 924 q 459 960 428 957 q 526 955 490 963 q 581 926 561 947 q 644 959 600 961 q 703 918 689 957 q 709 896 707 908 q 712 869 711 883 q 713 844 713 856 q 713 818 713 833 q 713 794 713 803 q 713 675 713 754 q 710 446 713 639 q 708 321 710 365 q 796 468 733 404 q 808 480 800 472 q 823 494 817 488 q 835 508 829 500 q 846 523 842 515 q 851 539 850 531 q 849 556 851 547 l 847 556 q 846 558 847 557 q 840 565 843 563 q 815 592 835 574 q 721 797 711 692 q 767 907 726 858 q 867 971 808 956 q 969 965 917 985 q 1063 906 1022 946 q 1117 812 1100 868 q 1131 697 1135 756 q 1106 676 1129 679 q 1078 692 1082 672 q 1071 748 1075 707 q 1061 811 1067 789 q 1006 896 1043 875 q 924 888 975 914 q 871 839 889 869 q 855 770 851 808 q 882 700 858 732 q 912 667 890 689 q 942 636 933 646 q 976 569 969 604 q 979 547 979 558 q 978 526 979 535 q 973 505 978 517 q 965 486 968 493 q 953 467 963 479 q 941 451 944 456 q 926 433 938 446 q 911 417 914 421 q 895 401 908 414 q 879 386 882 389 q 793 246 814 321 q 785 160 781 208 q 813 81 790 113 q 875 24 836 44 q 957 4 914 4 q 1032 22 997 4 q 1090 65 1067 40 q 1133 129 1113 90 q 1166 199 1154 168 q 1190 269 1178 229 m 568 849 q 568 860 568 850 q 569 876 568 871 q 520 874 553 874 q 483 874 488 874 q 399 849 440 871 q 271 719 326 813 q 192 339 182 571 q 225 149 196 219 q 270 78 242 110 q 335 44 299 46 q 408 82 378 44 q 458 168 439 119 q 510 379 479 226 q 565 740 536 518 q 567 785 565 756 q 567 805 567 792 q 567 828 567 818 q 568 849 567 839 z "},"Ç":{"ha":686,"x_min":35,"x_max":731,"o":"m 692 290 q 707 298 697 297 q 724 290 717 299 q 725 272 731 282 q 588 85 649 139 q 393 3 501 8 q 381 1 386 1 q 378 -9 379 -1 q 376 -19 376 -17 q 408 -36 396 -24 q 428 -81 428 -51 q 407 -125 428 -111 q 383 -131 400 -129 q 351 -126 365 -132 q 339 -107 336 -119 q 342 -99 340 -103 q 346 -93 343 -96 q 351 -87 349 -90 q 356 -82 353 -85 q 361 -76 358 -79 q 367 -62 367 -71 q 367 -53 371 -57 l 367 -54 q 348 -58 361 -58 q 324 -53 335 -58 q 314 -40 313 -49 q 324 8 317 -26 q 204 71 256 22 q 97 263 133 136 q 104 686 36 471 q 200 882 144 811 q 301 964 242 935 q 417 972 360 993 q 435 963 425 968 q 451 952 444 957 q 469 938 457 947 q 485 926 481 929 q 538 863 518 903 q 554 792 551 832 q 553 724 557 753 q 538 653 549 696 q 514 640 533 636 q 497 663 494 644 q 512 735 508 706 q 510 803 515 764 q 485 871 506 842 q 424 907 454 913 q 353 869 383 899 q 265 732 308 825 q 214 569 232 657 q 225 240 179 408 q 303 93 253 138 q 447 56 365 36 q 526 88 489 65 q 594 149 563 111 q 644 214 625 186 q 692 290 663 242 z "},"È":{"ha":565,"x_min":58,"x_max":610,"o":"m 275 1024 q 240 1019 267 1011 q 228 1038 221 1026 q 269 1103 242 1058 q 294 1110 276 1111 q 317 1100 311 1108 q 339 1067 321 1094 q 371 1036 342 1063 q 371 1017 382 1025 q 347 1008 360 1010 q 315 1010 333 1006 q 294 1028 297 1015 q 293 1038 294 1031 q 292 1049 292 1044 q 275 1024 281 1032 m 565 269 q 579 283 568 281 q 599 278 590 285 q 606 261 608 271 q 559 133 583 186 q 494 38 535 79 q 292 -33 407 -50 q 124 72 189 -18 q 71 264 58 161 q 171 468 86 381 q 183 480 175 472 q 198 494 192 488 q 210 508 204 500 q 221 523 217 515 q 226 539 225 531 q 224 556 228 547 q 222 558 222 557 q 217 565 219 563 q 190 592 211 574 q 96 797 86 692 q 142 907 101 858 q 242 971 183 956 q 344 965 292 985 q 438 906 397 946 q 493 812 476 868 q 506 697 510 756 q 481 676 504 679 q 453 692 457 672 q 446 748 450 707 q 436 811 442 789 q 381 896 418 875 q 299 888 351 914 q 246 839 265 869 q 231 770 228 808 q 257 700 233 732 q 287 667 265 689 q 317 636 308 646 q 353 569 346 604 q 355 547 356 558 q 353 526 354 535 q 348 505 353 517 q 340 486 343 493 q 328 467 338 479 q 317 451 319 456 q 302 433 314 446 q 287 417 290 421 q 270 401 283 414 q 256 386 257 389 q 168 246 189 321 q 160 160 156 208 q 188 81 165 113 q 227 39 204 56 q 277 13 250 22 q 333 4 304 4 q 407 22 372 4 q 465 65 442 40 q 510 129 489 90 q 542 199 531 168 q 565 269 553 229 z "},"É":{"ha":565,"x_min":58,"x_max":610,"o":"m 324 1019 q 293 1020 313 1015 q 279 1039 274 1025 q 283 1044 281 1042 q 286 1049 285 1047 q 290 1054 288 1051 q 293 1060 292 1057 q 306 1078 303 1075 q 344 1111 307 1078 q 376 1120 358 1121 q 408 1113 393 1119 q 426 1098 421 1107 q 421 1078 431 1089 q 378 1046 378 1046 q 362 1038 372 1042 q 349 1032 351 1033 q 338 1026 347 1032 q 324 1019 328 1021 m 565 269 q 579 283 568 281 q 599 278 590 285 q 606 261 608 271 q 559 133 583 186 q 494 38 535 79 q 292 -33 407 -50 q 124 72 189 -18 q 71 264 58 161 q 171 468 86 381 q 187 483 175 472 q 205 501 199 494 q 218 518 211 507 q 226 539 225 529 q 224 556 228 547 q 222 558 222 557 q 217 565 219 563 q 190 592 211 574 q 96 797 86 692 q 119 874 100 838 q 171 935 139 910 q 242 971 203 961 q 344 965 292 985 q 438 906 397 946 q 493 812 476 868 q 506 697 510 756 q 481 676 504 679 q 453 692 457 672 q 446 748 450 707 q 436 811 442 789 q 381 896 418 875 q 299 888 351 914 q 246 839 265 869 q 231 770 228 808 q 257 700 233 732 q 265 690 261 696 q 274 680 269 685 q 285 669 279 675 q 296 659 290 664 q 307 648 301 654 q 317 636 313 642 q 353 569 346 604 q 355 547 356 558 q 353 526 354 535 q 348 505 353 517 q 340 486 343 493 q 328 467 338 479 q 317 451 319 456 q 302 433 314 446 q 287 417 290 421 q 270 401 283 414 q 256 386 257 389 q 168 246 189 321 q 160 160 156 208 q 188 81 165 113 q 250 24 211 44 q 333 4 289 4 q 388 13 361 4 q 434 37 414 22 q 472 74 454 51 q 503 119 490 97 q 529 169 517 140 q 549 219 542 197 q 565 269 557 242 z "},"Ê":{"ha":565,"x_min":58,"x_max":610,"o":"m 233 1082 q 224 1103 221 1093 q 243 1117 226 1113 q 308 1103 279 1128 q 319 1094 313 1099 q 329 1085 325 1089 q 339 1077 333 1082 q 347 1068 344 1072 q 354 1059 350 1065 q 360 1050 358 1053 q 372 1032 371 1035 q 360 1019 378 1021 q 331 1021 340 1017 q 316 1028 325 1024 q 303 1036 307 1033 q 276 1049 278 1047 q 233 1082 276 1049 m 565 269 q 579 283 568 281 q 599 278 590 285 q 606 261 608 271 q 559 133 583 186 q 494 38 535 79 q 292 -33 407 -50 q 124 72 189 -18 q 71 264 58 161 q 171 468 86 381 q 187 483 175 472 q 205 501 199 494 q 218 518 211 507 q 226 539 225 529 q 224 556 228 547 q 222 558 222 557 q 217 565 219 563 q 190 592 211 574 q 96 797 86 692 q 142 907 101 858 q 242 971 183 956 q 344 965 292 985 q 438 906 397 946 q 493 812 476 868 q 506 697 510 756 q 481 676 504 679 q 453 692 457 672 q 446 748 450 707 q 436 811 442 789 q 381 896 418 875 q 299 888 351 914 q 246 839 265 869 q 231 770 228 808 q 257 700 233 732 q 287 667 265 689 q 317 636 308 646 q 353 569 346 604 q 353 519 358 543 q 333 472 349 496 q 303 435 317 449 q 267 397 290 421 q 256 386 258 390 q 168 246 189 321 q 160 160 156 208 q 188 81 165 113 q 250 24 211 44 q 333 4 289 4 q 407 22 372 4 q 465 65 442 40 q 510 129 489 90 q 542 199 531 168 q 565 269 553 229 z "},"Ë":{"ha":565,"x_min":58,"x_max":610,"o":"m 206 1057 q 205 1061 206 1058 q 204 1065 204 1064 q 206 1071 206 1069 q 206 1078 206 1075 q 215 1090 207 1086 q 219 1093 217 1092 q 224 1096 222 1094 q 242 1099 232 1099 q 256 1100 249 1100 q 276 1096 267 1100 l 289 1092 q 296 1089 293 1090 q 299 1090 299 1090 q 304 1093 301 1092 q 308 1096 307 1094 q 326 1099 317 1099 q 340 1100 333 1100 q 361 1096 351 1100 l 374 1092 q 388 1083 382 1089 q 396 1072 394 1079 l 399 1067 q 400 1064 400 1065 q 403 1056 403 1061 q 401 1049 404 1051 q 397 1040 401 1043 q 389 1035 394 1038 q 378 1031 383 1032 q 365 1029 372 1029 q 350 1028 357 1028 q 328 1032 339 1028 q 314 1036 318 1035 q 310 1039 313 1038 q 304 1035 307 1036 q 293 1031 300 1032 q 281 1029 288 1029 q 265 1028 274 1028 q 243 1032 254 1028 q 229 1036 233 1035 q 226 1038 228 1038 q 222 1040 224 1039 q 218 1042 219 1042 l 210 1050 q 206 1057 208 1053 m 565 269 q 579 283 568 281 q 599 278 590 285 q 606 261 608 271 q 559 133 583 186 q 494 38 535 79 q 292 -33 407 -50 q 124 72 189 -18 q 71 264 58 161 q 171 468 86 381 q 183 480 175 472 q 198 494 192 488 q 210 508 204 500 q 221 523 217 515 q 226 539 225 531 q 224 556 228 547 q 222 558 222 557 q 217 565 219 563 q 190 592 211 574 q 96 797 86 692 q 142 907 101 858 q 242 971 183 956 q 313 974 276 981 q 381 949 349 967 q 438 906 413 932 q 493 812 476 868 q 506 697 510 756 q 481 676 504 679 q 453 692 457 672 q 446 748 450 707 q 436 811 442 789 q 381 896 418 875 q 299 888 351 914 q 246 839 265 869 q 231 770 228 808 q 257 700 233 732 q 274 681 264 692 q 297 658 285 671 q 317 636 308 646 q 353 569 346 604 q 355 547 356 558 q 353 526 354 535 q 348 505 353 517 q 340 486 343 493 q 328 467 338 479 q 317 451 319 456 q 302 433 314 446 q 287 417 290 421 q 270 401 283 414 q 256 386 257 389 q 168 246 189 321 q 160 160 156 208 q 188 81 165 113 q 250 24 211 44 q 332 4 289 4 q 388 13 361 4 q 434 37 414 22 q 472 74 454 51 q 503 119 490 97 q 529 169 517 140 q 549 219 542 197 q 565 269 557 242 z "},"Ì":{"ha":392,"x_min":67,"x_max":325,"o":"m 182 1024 q 146 1019 172 1011 q 133 1038 128 1026 l 175 1103 q 199 1110 182 1111 q 222 1100 217 1108 q 244 1067 226 1094 q 276 1036 247 1063 q 276 1017 288 1025 q 253 1008 265 1010 q 221 1010 239 1006 q 200 1028 203 1015 q 199 1038 200 1031 q 197 1049 197 1044 q 182 1024 186 1032 m 304 -29 q 319 -37 315 -29 q 319 -52 324 -44 q 304 -60 315 -60 l 86 -57 q 72 -48 76 -56 q 72 -33 67 -40 q 86 -25 76 -25 q 164 -26 138 -26 q 160 -19 161 -22 q 154 7 158 -14 q 144 74 149 33 q 131 193 133 158 q 122 431 124 313 q 121 669 121 550 q 121 729 121 681 q 121 799 121 778 q 124 857 121 821 q 132 922 126 893 q 136 933 132 928 q 86 935 119 933 q 72 942 76 935 q 72 958 67 950 q 86 965 76 965 l 304 961 q 319 953 315 961 q 319 938 324 946 q 304 931 315 931 l 254 932 q 263 907 260 921 q 265 788 264 890 q 264 669 265 746 q 265 431 264 550 q 267 193 267 314 q 261 74 265 167 q 260 54 260 68 q 259 32 260 40 q 257 12 258 24 q 253 -10 256 0 q 244 -28 250 -19 q 274 -28 254 -28 q 304 -29 294 -29 z "},"Í":{"ha":392,"x_min":67,"x_max":325,"o":"m 172 1019 q 142 1020 161 1015 q 128 1039 122 1025 q 135 1050 131 1043 q 142 1060 140 1057 q 154 1078 151 1075 q 193 1111 156 1079 q 224 1120 207 1121 q 257 1113 242 1119 q 274 1098 269 1107 q 269 1078 279 1089 q 226 1046 226 1046 q 210 1038 221 1042 q 197 1032 200 1033 q 186 1026 196 1032 q 172 1019 176 1021 m 304 -29 q 319 -37 315 -29 q 319 -52 324 -44 q 304 -60 315 -60 q 195 -58 268 -60 q 86 -57 122 -57 q 72 -48 76 -56 q 72 -33 67 -40 q 86 -25 76 -25 q 164 -26 139 -26 q 160 -19 161 -22 q 154 7 158 -14 q 144 74 149 33 q 131 193 133 158 q 122 431 124 313 q 121 669 121 550 q 121 729 121 681 q 121 799 121 778 q 124 857 121 821 q 132 922 126 893 q 136 933 132 928 q 86 935 119 933 q 72 942 76 935 q 72 958 67 950 q 86 965 76 965 q 196 964 124 965 q 304 961 268 963 q 319 953 315 961 q 319 938 324 946 q 304 931 315 931 q 254 932 258 932 q 263 907 260 921 q 265 788 264 890 q 264 669 265 746 q 265 431 264 550 q 267 193 267 314 q 261 74 265 167 q 260 49 261 69 q 258 20 260 29 q 253 -3 257 11 q 244 -28 250 -18 q 264 -28 253 -28 q 285 -29 275 -29 q 304 -29 296 -29 z "},"Î":{"ha":392,"x_min":67,"x_max":325,"o":"m 149 1082 q 139 1103 136 1093 q 158 1117 142 1113 q 224 1103 194 1128 q 236 1092 228 1099 q 251 1080 244 1086 q 263 1068 258 1074 q 269 1059 265 1065 q 275 1050 274 1053 q 288 1032 286 1035 q 275 1019 293 1021 q 246 1021 256 1017 q 231 1028 240 1024 q 218 1036 221 1033 q 192 1049 193 1047 q 149 1082 192 1049 m 304 -29 q 319 -37 315 -29 q 319 -52 324 -44 q 304 -60 315 -60 l 86 -57 q 72 -48 76 -56 q 72 -33 67 -40 q 86 -25 76 -25 q 164 -26 138 -26 q 160 -19 161 -22 q 154 7 158 -14 q 144 74 149 33 q 131 193 133 158 q 122 431 124 313 q 121 669 121 550 q 121 729 121 681 q 121 799 121 778 q 124 857 121 821 q 132 922 126 893 q 136 933 132 928 q 86 935 119 933 q 72 942 76 935 q 72 958 67 950 q 86 965 76 965 l 304 961 q 319 953 315 961 q 319 938 324 946 q 304 931 315 931 l 254 932 q 263 907 260 921 q 265 788 264 890 q 264 669 265 746 q 265 431 264 550 q 267 193 267 314 q 261 74 265 167 q 260 49 261 69 q 258 20 260 29 q 253 -3 257 11 q 244 -28 250 -18 q 274 -28 254 -28 q 304 -29 294 -29 z "},"Ï":{"ha":400,"x_min":67,"x_max":332,"o":"m 329 1056 q 329 1049 332 1051 q 324 1040 328 1043 q 315 1035 321 1038 q 304 1031 311 1032 q 292 1029 299 1029 q 276 1028 285 1028 q 254 1032 265 1028 q 240 1036 246 1035 q 239 1037 240 1036 q 238 1039 238 1038 q 232 1035 235 1036 q 221 1031 226 1032 q 207 1029 214 1029 q 193 1028 200 1028 q 169 1032 181 1028 q 156 1036 161 1035 l 146 1042 q 138 1050 143 1044 q 132 1057 133 1056 q 131 1061 132 1058 q 131 1065 131 1064 q 131 1068 131 1067 q 133 1071 132 1069 l 133 1078 q 142 1090 135 1086 q 146 1093 143 1092 q 151 1096 149 1094 q 168 1099 160 1099 q 182 1100 175 1100 q 204 1096 193 1100 q 208 1095 206 1096 q 212 1094 210 1094 q 217 1092 214 1093 q 224 1089 219 1090 q 226 1090 225 1090 l 235 1096 q 253 1099 244 1099 q 267 1100 260 1100 q 289 1096 278 1100 l 301 1092 q 315 1083 308 1089 q 324 1072 321 1079 l 325 1067 q 326 1064 326 1065 q 329 1056 331 1061 m 304 961 q 319 953 315 961 q 319 938 324 946 q 304 931 315 931 l 254 932 q 263 907 260 921 q 264 788 264 890 q 264 669 265 746 q 265 431 264 550 q 267 193 267 314 q 261 74 265 167 q 260 49 261 69 q 258 20 260 29 q 253 -3 257 11 q 244 -28 250 -18 q 274 -28 254 -28 q 304 -29 294 -29 q 319 -37 315 -29 q 319 -52 324 -44 q 304 -60 315 -60 l 86 -57 q 72 -48 76 -56 q 72 -33 67 -40 q 86 -25 76 -25 q 164 -26 138 -26 q 160 -19 161 -22 q 154 7 158 -14 q 144 74 149 33 q 131 193 133 158 q 122 431 124 313 q 121 669 121 550 q 121 729 121 681 q 121 799 121 778 q 124 857 121 821 q 132 922 126 893 q 136 933 132 928 q 86 935 119 933 q 72 942 76 935 q 72 958 67 950 q 86 965 76 965 l 304 961 z "},"Ñ":{"ha":814,"x_min":68,"x_max":857,"o":"m 389 1031 q 377 1022 389 1024 q 353 1024 365 1019 q 340 1038 340 1028 q 365 1082 340 1068 q 421 1089 390 1096 q 467 1061 440 1085 q 499 1060 485 1046 q 510 1089 507 1069 q 533 1099 511 1103 q 557 1083 556 1096 q 536 1038 560 1054 q 483 1023 513 1021 q 431 1044 454 1025 q 424 1051 429 1046 q 414 1060 418 1057 q 406 1061 410 1063 q 389 1031 389 1060 m 825 236 q 834 245 826 243 q 849 244 842 247 q 856 233 856 240 q 754 28 838 117 q 708 -10 732 4 q 657 -26 683 -25 q 553 18 600 -28 q 496 118 511 58 q 476 256 481 178 q 482 501 474 326 q 483 746 490 636 q 475 858 479 822 q 473 878 474 872 q 469 895 472 883 q 458 912 465 907 q 440 917 451 917 q 350 851 394 915 q 303 753 321 810 q 263 529 283 694 q 215 171 246 410 q 215 165 215 169 q 208 56 215 153 q 204 1 207 22 q 179 -47 200 -25 q 156 -56 171 -56 q 131 -47 140 -56 q 103 3 110 -28 q 93 65 99 26 q 81 174 82 143 q 71 393 72 285 q 69 615 69 504 q 69 653 69 631 q 69 692 69 676 q 69 731 69 708 q 71 770 69 753 q 74 807 72 788 q 81 844 76 826 q 108 877 85 867 q 153 885 131 888 q 211 829 203 881 q 214 794 214 813 q 214 751 214 776 q 214 715 214 725 q 214 607 214 688 q 214 444 213 535 q 233 593 224 524 q 281 800 251 731 q 414 947 331 921 q 510 940 461 961 q 583 876 558 919 q 636 638 629 794 q 629 399 639 565 q 628 143 619 232 q 628 108 629 124 q 628 72 626 92 q 636 38 629 51 q 661 16 644 18 q 692 22 678 14 q 721 40 707 29 q 825 236 806 115 z "},"Ò":{"ha":822,"x_min":58,"x_max":865,"o":"m 328 1060 q 292 1056 318 1046 q 279 1072 274 1063 q 321 1138 283 1078 q 345 1146 328 1147 q 368 1136 363 1144 q 390 1103 372 1131 q 422 1071 393 1099 q 422 1053 433 1061 q 399 1043 411 1044 q 367 1047 386 1042 q 346 1064 349 1051 q 344 1074 346 1067 q 343 1083 343 1081 q 328 1060 332 1068 m 660 206 q 831 379 771 265 q 838 385 833 383 q 848 386 843 388 q 858 382 853 385 q 863 374 863 379 q 861 364 864 369 q 811 288 840 322 q 639 163 740 203 q 400 -17 546 -11 q 318 -1 356 -19 q 255 45 281 17 q 208 114 229 74 q 176 191 188 154 q 156 269 164 228 q 147 315 151 293 q 74 506 89 401 q 90 712 58 610 q 197 888 122 814 q 353 967 265 953 q 524 939 440 982 q 655 817 606 897 q 721 639 704 738 q 675 243 751 446 q 660 206 668 224 m 475 81 q 539 136 508 100 q 518 133 528 135 q 329 167 422 126 q 353 110 339 132 q 406 68 372 75 q 475 81 439 61 m 586 203 q 657 367 635 282 q 654 717 710 557 q 568 858 626 799 q 430 931 510 917 q 280 901 350 946 q 167 781 210 857 q 113 606 121 700 q 135 429 106 513 q 169 725 126 590 q 191 756 175 744 q 226 771 207 768 q 264 771 244 774 q 308 742 293 765 q 318 690 324 719 q 306 279 274 454 q 318 208 315 228 q 565 172 438 143 q 586 203 575 186 z "},"Ó":{"ha":822,"x_min":58,"x_max":865,"o":"m 388 1056 q 357 1056 376 1050 q 344 1074 338 1061 q 351 1085 346 1078 q 358 1094 357 1093 q 369 1113 368 1111 q 410 1147 371 1114 q 440 1155 422 1156 q 472 1149 458 1154 q 490 1133 485 1143 q 485 1114 496 1124 q 443 1081 443 1082 q 427 1074 438 1078 q 414 1068 417 1069 q 403 1062 413 1067 q 388 1056 393 1057 m 660 206 q 831 379 771 265 q 838 385 833 383 q 848 386 843 388 q 858 382 853 385 q 863 374 863 379 q 861 364 864 369 q 811 288 840 322 q 639 163 740 203 q 400 -17 546 -11 q 318 -1 356 -19 q 255 45 281 17 q 208 114 229 74 q 176 191 188 154 q 156 269 164 228 q 147 315 151 293 q 74 506 89 401 q 90 712 58 610 q 197 888 122 814 q 353 967 265 953 q 524 939 440 982 q 655 817 606 897 q 721 639 704 738 q 675 243 751 446 q 660 206 668 224 m 475 81 q 539 136 508 100 q 518 133 528 135 q 329 167 422 126 q 353 110 339 132 q 406 68 372 75 q 475 81 439 61 m 586 203 q 657 367 635 282 q 654 717 710 557 q 568 858 626 799 q 430 931 510 917 q 280 901 350 946 q 167 781 210 857 q 113 606 121 700 q 135 429 106 513 q 169 725 126 590 q 191 756 175 744 q 226 771 207 768 q 264 771 244 774 q 308 742 293 765 q 318 690 324 719 q 306 279 274 454 q 318 208 315 228 q 565 172 438 143 q 586 203 575 186 z "},"Ô":{"ha":822,"x_min":58,"x_max":865,"o":"m 336 1118 q 326 1138 322 1128 q 344 1153 329 1149 q 411 1138 382 1164 q 424 1128 415 1135 q 438 1115 432 1121 q 450 1104 444 1110 q 456 1094 453 1101 q 461 1086 460 1088 q 474 1068 472 1071 q 461 1054 479 1057 q 432 1057 442 1051 q 417 1064 426 1058 q 404 1072 408 1069 q 378 1085 381 1083 q 336 1118 378 1085 m 660 206 q 831 379 771 265 q 838 385 833 383 q 848 386 843 388 q 858 382 853 385 q 863 374 863 379 q 861 364 864 369 q 811 288 840 322 q 639 163 740 203 q 400 -17 546 -11 q 318 -1 356 -19 q 255 45 281 17 q 208 114 229 74 q 176 191 188 154 q 156 269 164 228 q 147 315 151 293 q 74 506 89 401 q 90 712 58 610 q 197 888 122 814 q 353 967 265 953 q 524 939 440 982 q 655 817 606 897 q 721 639 704 738 q 675 243 751 446 q 660 206 668 224 m 475 81 q 539 136 508 100 q 518 133 528 135 q 329 167 422 126 q 353 110 339 132 q 406 68 372 75 q 475 81 439 61 m 586 203 q 657 367 635 282 q 654 717 710 557 q 568 858 626 799 q 430 931 510 917 q 280 901 350 946 q 167 781 210 857 q 113 606 121 700 q 135 429 106 513 q 169 725 126 590 q 206 765 178 753 q 264 771 235 776 q 308 742 293 765 q 318 690 324 719 q 306 279 274 454 q 318 208 315 228 q 567 172 438 143 q 586 203 575 186 z "},"Õ":{"ha":822,"x_min":58,"x_max":865,"o":"m 332 1067 q 320 1056 332 1058 q 296 1059 308 1054 q 283 1072 283 1064 q 308 1117 282 1103 q 363 1125 333 1132 q 410 1097 382 1121 q 440 1096 428 1081 q 453 1125 450 1106 q 476 1135 454 1138 q 500 1119 499 1132 q 479 1074 503 1090 q 426 1059 456 1057 q 374 1081 396 1061 q 367 1087 372 1081 q 357 1095 361 1093 q 349 1097 353 1097 q 332 1067 332 1094 m 660 206 q 831 379 771 265 q 838 385 833 383 q 848 386 843 388 q 858 382 853 385 q 863 374 863 379 q 861 364 864 369 q 811 288 840 322 q 639 163 740 203 q 400 -17 546 -11 q 318 -1 356 -19 q 255 45 281 17 q 208 114 229 74 q 176 191 188 154 q 156 269 164 228 q 147 315 151 293 q 74 506 89 401 q 90 712 58 610 q 197 888 122 814 q 353 967 265 953 q 524 939 440 982 q 655 817 606 897 q 721 639 704 738 q 675 243 751 446 q 660 206 668 224 m 475 81 q 539 136 508 100 q 518 133 528 135 q 329 167 422 126 q 353 110 339 132 q 406 68 372 75 q 475 81 439 61 m 586 203 q 657 367 635 282 q 654 717 710 557 q 568 858 626 799 q 430 931 510 917 q 280 901 350 946 q 167 781 210 857 q 113 606 121 700 q 135 429 106 513 q 169 725 126 590 q 206 765 178 753 q 264 771 235 776 q 308 742 293 765 q 318 690 324 719 q 306 279 274 454 q 318 208 315 228 q 567 172 438 143 q 586 203 575 186 z "},"Ö":{"ha":822,"x_min":58,"x_max":865,"o":"m 294 1093 q 294 1097 294 1094 q 293 1101 294 1100 q 296 1106 294 1104 l 296 1113 q 304 1126 297 1121 l 314 1131 q 332 1135 322 1135 q 346 1135 339 1136 q 367 1132 356 1135 q 379 1128 371 1131 q 386 1124 383 1126 q 389 1126 388 1125 q 393 1128 390 1126 q 399 1131 396 1131 q 415 1135 407 1135 q 429 1135 422 1136 q 451 1132 440 1135 l 464 1128 q 478 1118 472 1125 q 486 1108 483 1114 l 488 1101 q 489 1100 489 1100 q 493 1092 493 1096 q 492 1083 494 1088 q 486 1076 490 1079 q 479 1071 483 1072 q 468 1067 474 1068 q 454 1064 461 1064 q 440 1064 447 1063 q 417 1067 428 1064 q 403 1072 408 1071 q 401 1073 403 1072 q 400 1074 400 1074 q 394 1071 397 1072 q 383 1067 389 1068 q 369 1064 376 1064 q 356 1064 363 1063 q 332 1067 343 1064 q 319 1072 321 1071 l 308 1078 l 300 1085 q 294 1093 296 1090 m 660 206 q 831 379 771 265 q 838 385 833 383 q 848 386 843 388 q 858 382 853 385 q 863 374 863 379 q 861 364 864 369 q 811 288 840 322 q 639 163 740 203 q 400 -17 546 -11 q 318 -1 356 -19 q 255 45 281 17 q 208 114 229 74 q 176 191 188 154 q 156 269 164 228 q 147 315 151 293 q 74 506 89 401 q 90 712 58 610 q 197 888 122 814 q 353 967 265 953 q 524 939 440 982 q 655 817 606 897 q 721 639 704 738 q 675 243 751 446 q 660 206 668 224 m 475 81 q 539 136 508 100 q 518 133 528 135 q 329 167 422 126 q 353 110 339 132 q 406 68 372 75 q 475 81 439 61 m 586 203 q 657 367 635 282 q 654 717 710 557 q 568 858 626 799 q 430 931 510 917 q 280 901 350 946 q 167 781 210 857 q 113 606 121 700 q 135 429 106 513 q 169 725 126 590 q 206 765 178 753 q 264 771 235 776 q 308 742 293 765 q 318 690 324 719 q 306 279 274 454 q 318 208 315 228 q 565 172 438 143 q 586 203 575 186 z "},"Ø":{"ha":822,"x_min":58,"x_max":867,"o":"m 831 379 q 845 387 836 386 q 860 380 854 388 q 861 364 867 372 q 811 288 840 322 q 639 163 740 203 q 400 -17 546 -11 q 335 -8 365 -18 q 251 -312 315 -82 q 235 -323 249 -321 q 210 -319 222 -325 q 201 -306 199 -314 q 244 -147 217 -250 q 285 -1 272 -43 l 289 15 q 156 269 193 82 q 147 315 151 293 q 74 506 89 401 q 90 712 58 610 q 197 888 122 814 q 353 967 265 953 q 524 939 440 982 q 540 931 531 936 l 579 1075 q 596 1085 582 1083 q 622 1081 610 1086 q 631 1068 633 1076 q 617 1014 625 1044 q 599 953 608 983 q 585 899 590 922 q 721 639 693 807 q 675 243 751 446 q 660 206 668 224 q 831 379 771 265 m 169 725 q 206 765 178 753 q 264 771 235 776 q 308 742 293 765 q 318 690 324 719 q 306 279 274 454 q 318 208 315 228 q 339 199 328 204 l 529 890 q 431 932 483 922 q 280 901 350 946 q 167 781 210 857 q 113 606 121 700 q 135 429 106 513 q 169 725 126 590 m 329 167 q 330 166 329 167 q 331 164 331 165 q 331 166 331 165 q 331 167 331 167 q 329 167 329 167 m 475 81 q 539 136 508 100 q 518 133 528 135 q 378 149 449 128 q 371 122 376 140 q 364 94 365 103 q 475 81 406 43 m 586 203 q 657 367 635 282 q 654 717 710 557 q 572 854 628 797 l 547 763 l 388 179 q 567 172 476 151 q 586 203 575 186 z "},"Ù":{"ha":849,"x_min":68,"x_max":892,"o":"m 372 1032 q 336 1028 364 1019 q 325 1044 318 1035 q 367 1111 328 1050 q 390 1118 372 1119 q 414 1108 408 1117 q 436 1075 417 1103 q 467 1043 439 1071 q 467 1025 478 1033 q 444 1015 457 1017 q 412 1019 431 1014 q 392 1036 393 1024 q 390 1042 390 1039 q 390 1049 390 1046 q 388 1056 389 1053 q 372 1032 378 1040 m 853 356 q 865 367 856 365 q 883 363 875 368 q 889 347 892 357 q 785 50 857 164 q 688 -11 746 -10 q 579 44 625 -11 q 524 178 550 82 q 500 315 511 231 q 476 218 489 264 q 419 60 450 118 q 307 -31 378 -22 q 175 21 242 -37 q 96 172 125 64 q 81 240 86 204 q 73 317 75 275 q 70 385 71 360 q 69 464 69 411 q 69 533 69 517 q 79 918 69 810 q 113 965 82 951 q 174 965 143 979 q 208 918 204 951 q 219 533 218 810 q 219 481 219 513 q 219 428 219 450 q 219 376 219 406 q 220 324 219 347 q 223 272 221 300 q 228 219 225 244 q 238 147 232 169 q 246 112 239 135 q 254 81 253 89 q 260 62 257 69 q 266 44 263 54 q 275 28 269 33 q 288 18 281 22 q 304 14 294 14 q 326 19 314 14 q 365 51 347 28 q 390 91 383 75 q 410 139 397 107 q 454 289 435 206 q 488 469 472 367 q 488 625 485 542 q 496 776 490 693 q 498 808 497 788 q 500 841 499 828 q 503 872 501 854 q 508 906 504 890 q 515 935 511 921 q 542 969 522 957 q 586 981 563 981 q 630 969 607 982 q 657 935 653 956 q 660 894 660 917 q 660 858 661 871 q 658 814 660 846 q 654 776 656 782 q 646 631 649 696 q 651 117 635 378 q 694 36 656 40 q 721 42 708 35 q 745 65 733 49 q 761 90 757 82 q 775 117 765 99 q 853 356 829 228 z "},"Ú":{"ha":849,"x_min":68,"x_max":892,"o":"m 333 1028 q 303 1028 322 1022 q 290 1046 283 1033 q 297 1058 292 1051 q 304 1068 303 1065 q 315 1085 314 1083 q 356 1119 317 1086 q 386 1128 368 1129 q 418 1121 404 1128 q 436 1106 431 1115 q 431 1086 442 1097 q 388 1053 389 1054 q 372 1046 383 1050 q 360 1040 361 1042 q 349 1034 358 1039 q 333 1028 339 1029 m 853 356 q 865 367 856 365 q 883 363 875 368 q 889 347 892 357 q 785 50 857 164 q 688 -11 746 -10 q 579 44 625 -11 q 524 178 550 82 q 500 315 511 231 q 476 218 489 264 q 419 60 450 118 q 307 -31 378 -22 q 175 21 243 -37 q 96 172 125 64 q 81 240 86 204 q 73 317 75 275 q 70 385 71 360 q 69 464 69 411 q 69 533 69 517 q 79 918 69 810 q 113 965 82 951 q 174 965 143 979 q 208 918 204 951 q 219 533 218 810 q 219 457 219 511 q 219 374 219 403 q 222 300 219 344 q 228 219 224 256 q 238 147 232 169 q 246 112 239 135 q 254 81 253 89 q 259 65 257 71 q 265 49 261 58 q 272 35 268 40 q 281 24 275 29 q 292 16 286 18 q 307 15 299 14 q 326 19 315 15 q 355 38 342 25 q 379 72 368 50 q 395 103 390 93 q 410 139 400 114 q 454 289 435 206 q 488 469 472 367 q 488 625 485 542 q 496 776 490 693 q 498 808 497 788 q 500 841 499 828 q 503 872 501 854 q 508 906 504 890 q 515 935 511 921 q 542 969 522 957 q 586 981 563 981 q 630 969 607 982 q 657 935 653 956 q 660 894 660 917 q 660 858 661 871 q 658 814 660 846 q 654 776 656 782 q 646 631 649 696 q 651 117 635 378 q 694 36 656 40 q 721 42 708 35 q 745 65 733 49 q 761 90 757 82 q 775 117 765 99 q 853 356 829 228 z "},"Û":{"ha":849,"x_min":68,"x_max":892,"o":"m 299 1090 q 289 1110 286 1100 q 308 1125 292 1121 q 374 1110 344 1136 q 386 1100 378 1107 q 401 1088 394 1093 q 413 1076 408 1082 q 417 1071 415 1074 q 422 1064 419 1068 q 425 1058 424 1060 q 438 1040 436 1043 q 425 1026 443 1029 q 396 1029 406 1025 q 381 1037 390 1032 q 367 1044 371 1042 q 342 1057 343 1056 q 299 1090 340 1057 m 853 356 q 865 367 856 365 q 883 363 875 368 q 889 347 892 357 q 785 50 857 164 q 688 -11 746 -10 q 579 44 625 -11 q 524 178 550 82 q 500 315 511 231 q 476 218 489 264 q 419 60 450 118 q 307 -31 378 -22 q 175 21 243 -37 q 96 172 125 64 q 81 240 86 204 q 73 317 75 275 q 70 385 71 360 q 69 464 69 411 q 69 533 69 517 q 79 918 69 810 q 113 965 82 951 q 174 965 143 979 q 208 918 204 951 q 219 533 218 810 q 219 457 219 511 q 219 374 219 403 q 222 300 219 344 q 228 219 224 256 q 238 147 232 169 q 246 112 239 135 q 254 81 253 89 q 260 62 257 69 q 266 44 263 54 q 275 28 269 33 q 288 18 281 22 q 304 14 294 14 q 326 19 314 14 q 365 51 347 28 q 390 91 383 75 q 410 139 397 107 q 454 289 435 206 q 488 469 472 367 q 488 625 485 542 q 496 776 490 693 q 499 815 497 786 q 501 858 500 843 q 506 896 503 874 q 515 935 510 918 q 542 969 522 957 q 586 981 563 981 q 615 976 600 982 q 642 960 629 971 q 657 935 654 949 q 660 894 660 917 q 660 858 661 871 q 658 814 660 846 q 654 776 656 782 q 646 631 649 696 q 651 117 635 378 q 655 83 651 99 q 668 53 658 68 q 694 36 678 38 q 717 41 706 35 q 735 53 728 47 q 752 76 743 60 q 764 97 761 92 q 775 117 767 101 q 853 356 829 228 z "},"Ü":{"ha":849,"x_min":68,"x_max":892,"o":"m 301 1065 l 301 1074 l 303 1078 q 303 1082 303 1079 q 303 1085 303 1085 q 311 1099 304 1094 q 316 1101 313 1100 q 321 1103 319 1103 q 339 1107 329 1107 q 353 1107 346 1108 q 374 1104 363 1107 q 386 1100 378 1103 q 393 1096 390 1099 q 396 1099 394 1097 q 406 1103 401 1101 q 424 1107 414 1107 q 436 1107 431 1108 q 458 1104 447 1107 l 471 1100 q 485 1090 479 1097 q 493 1081 490 1088 l 496 1075 q 497 1072 496 1072 q 500 1064 500 1068 q 499 1056 501 1060 q 494 1049 497 1051 q 486 1043 490 1044 q 475 1039 481 1040 q 461 1036 468 1036 q 447 1036 454 1035 q 424 1039 435 1036 q 411 1044 415 1043 l 407 1046 q 401 1043 404 1044 q 390 1039 396 1040 q 378 1036 383 1036 q 363 1036 369 1035 q 339 1039 351 1036 q 326 1044 331 1043 l 315 1050 l 307 1057 q 301 1065 303 1063 m 853 356 q 865 367 856 365 q 883 363 875 369 q 889 347 892 357 q 785 50 857 164 q 688 -11 746 -10 q 579 44 625 -11 q 524 178 550 82 q 500 315 511 231 q 476 218 489 264 q 419 60 450 118 q 307 -31 378 -22 q 175 21 242 -37 q 96 172 125 64 q 82 231 88 200 q 74 289 76 263 q 71 352 72 315 q 69 412 69 389 q 69 474 69 435 q 69 533 69 514 q 79 918 69 810 q 113 965 82 951 q 174 965 143 979 q 208 918 204 951 q 219 533 218 810 q 219 457 219 511 q 219 374 219 403 q 222 300 219 344 q 228 219 224 256 q 238 147 232 169 q 246 112 239 135 q 254 81 253 89 q 259 65 257 71 q 265 49 261 58 q 272 35 268 40 q 281 24 275 29 q 292 16 286 18 q 307 15 299 14 q 326 19 315 15 q 365 51 347 28 q 390 91 383 75 q 410 139 397 107 q 454 289 435 206 q 488 469 472 367 q 488 625 485 542 q 496 776 490 693 q 498 808 497 788 q 500 841 499 828 q 503 872 501 854 q 508 906 504 890 q 515 935 511 921 q 542 969 522 957 q 586 981 563 981 q 615 976 600 982 q 642 960 629 971 q 657 935 654 949 q 660 894 660 917 q 660 858 661 871 q 658 814 660 846 q 654 776 656 782 q 646 631 649 696 q 651 117 635 378 q 655 83 651 99 q 668 53 658 68 q 694 36 678 38 q 717 41 706 35 q 735 53 728 47 q 752 76 743 60 q 764 97 761 92 q 775 117 767 101 q 853 356 829 228 z "},"Ý":{"ha":822,"x_min":67,"x_max":864,"o":"m 417 992 q 386 992 406 988 q 374 1011 367 997 q 381 1022 375 1015 q 388 1032 386 1029 q 400 1050 397 1047 q 439 1085 400 1051 q 469 1092 451 1093 q 501 1085 488 1092 q 519 1070 514 1079 q 514 1050 525 1061 q 472 1018 472 1018 q 456 1010 467 1015 q 443 1004 446 1006 q 432 999 442 1004 q 417 992 422 994 m 824 333 q 835 347 825 343 q 853 347 844 351 q 863 333 863 343 q 847 272 861 301 q 813 220 833 243 q 763 181 792 197 q 689 147 732 161 q 611 -104 678 -10 q 439 -221 542 -203 q 340 -216 386 -231 q 271 -157 293 -201 q 260 -95 257 -129 q 276 -33 264 -61 q 307 22 288 -4 q 472 132 365 100 q 551 150 501 142 q 550 226 551 176 q 542 451 550 243 q 540 504 540 475 q 415 204 490 318 q 290 114 364 125 q 147 168 203 100 q 83 340 103 222 q 69 536 68 442 q 83 722 72 631 q 89 772 85 735 q 96 826 93 808 q 106 872 99 844 q 121 922 113 900 q 159 956 132 949 q 210 951 186 964 q 239 908 235 938 q 240 844 240 864 q 233 778 239 825 q 225 714 228 732 q 214 528 215 590 q 218 360 213 432 q 228 274 221 335 q 244 210 232 235 q 276 169 261 179 q 333 181 297 156 q 370 216 353 193 q 396 253 388 239 q 419 299 404 268 q 538 682 496 451 q 538 683 538 682 q 547 910 536 836 q 601 961 554 956 q 628 960 614 964 q 653 947 642 957 q 668 925 665 938 q 690 633 685 839 q 693 350 693 479 q 692 183 693 206 q 693 185 692 183 q 784 244 747 206 q 824 333 821 282 m 536 21 q 550 117 547 63 q 365 32 424 92 q 309 -52 329 -4 q 310 -139 289 -100 q 341 -169 319 -160 q 386 -176 363 -179 q 465 -125 425 -171 q 536 21 513 -71 z "},"à":{"ha":590,"x_min":-40,"x_max":636,"o":"m 292 589 q 257 585 283 576 q 244 603 238 592 l 286 668 q 310 675 292 676 q 333 665 328 674 q 356 632 338 660 q 388 601 358 628 q 391 587 396 593 q 378 577 386 581 q 364 574 371 574 q 346 574 357 572 q 324 580 335 575 q 311 593 313 585 q 310 600 311 596 q 309 608 310 604 q 307 614 308 611 q 292 589 306 611 m 597 304 q 601 311 599 308 q 608 315 604 314 q 615 317 611 317 q 624 315 619 317 q 631 310 628 313 q 635 304 633 308 q 635 296 636 300 q 563 82 604 151 q 488 4 532 31 q 392 -8 443 -22 q 338 24 360 0 q 304 85 315 47 q 289 148 293 122 q 281 213 285 174 q 278 238 279 224 q 260 199 269 217 q 78 60 182 44 q 22 85 46 64 q -16 135 -3 106 q -35 197 -29 165 q -39 260 -40 229 q 0 389 -36 328 q 94 485 36 450 q 228 513 165 528 q 285 488 256 507 q 297 481 290 483 l 297 482 l 297 483 q 365 526 313 525 q 407 515 385 528 q 432 483 429 503 q 429 367 436 454 q 425 261 428 338 q 425 156 422 197 q 435 69 431 83 q 451 38 444 42 q 488 51 463 31 q 543 125 515 72 q 597 304 571 178 m 282 381 q 285 406 283 396 q 286 424 285 411 q 250 439 274 444 q 210 424 229 435 q 142 369 169 403 q 81 218 86 301 q 81 180 79 200 q 90 139 83 160 q 112 114 97 118 q 150 124 126 110 q 211 200 179 143 q 256 300 236 243 q 282 381 269 335 z "},"á":{"ha":590,"x_min":-40,"x_max":638,"o":"m 285 585 q 254 585 274 581 q 240 604 235 590 q 248 615 243 608 q 254 625 253 622 q 267 643 264 640 q 306 676 268 643 q 337 685 319 686 q 369 678 354 685 q 387 663 382 672 q 382 643 392 654 q 339 611 339 611 q 330 606 335 608 q 319 601 325 604 q 310 597 314 599 q 299 592 308 597 q 285 585 290 586 m 597 304 q 610 316 600 314 q 629 312 621 318 q 635 296 638 306 q 563 82 604 151 q 488 4 532 31 q 392 -8 443 -22 q 338 24 360 0 q 304 85 315 47 q 289 148 293 122 q 281 213 285 174 q 278 238 279 224 q 260 199 269 217 q 78 60 182 44 q 22 85 46 64 q -16 135 -3 106 q -35 197 -29 165 q -39 260 -40 229 q 0 389 -36 328 q 94 485 36 450 q 228 513 165 528 q 285 488 256 507 q 297 481 290 483 q 297 482 297 481 q 297 483 297 483 q 365 526 313 525 q 407 515 385 528 q 432 483 429 503 q 429 367 436 454 q 425 261 428 338 q 425 156 422 197 q 435 69 431 83 q 451 38 444 42 q 488 51 463 31 q 543 125 515 72 q 597 304 571 178 m 282 381 q 285 406 283 396 q 286 424 285 411 q 250 439 274 444 q 210 424 229 435 q 142 369 169 403 q 81 218 86 301 q 81 180 79 200 q 90 139 83 160 q 112 114 97 118 q 150 124 126 110 q 211 200 179 143 q 256 300 236 243 q 282 381 269 335 z "},"â":{"ha":590,"x_min":-40,"x_max":638,"o":"m 169 647 q 160 668 157 658 q 178 682 163 678 q 244 668 215 693 q 251 663 247 665 q 258 657 254 660 q 265 651 261 654 q 272 646 268 649 q 278 640 275 643 q 283 633 281 636 q 288 628 286 632 q 291 622 289 625 q 296 615 293 618 q 307 597 306 600 q 294 585 313 586 q 265 586 276 582 q 251 594 261 589 q 238 601 242 599 q 213 614 214 613 q 169 647 211 615 m 597 304 q 610 316 600 314 q 629 312 621 318 q 635 296 638 306 q 563 82 604 151 q 488 4 532 31 q 392 -8 443 -22 q 338 24 360 0 q 304 85 315 47 q 289 148 293 122 q 281 213 285 174 q 278 238 279 224 q 260 199 269 217 q 78 60 182 44 q 22 85 46 64 q -16 135 -3 106 q -35 197 -29 165 q -39 260 -40 229 q 0 389 -36 328 q 94 485 36 450 q 228 513 165 528 q 285 488 256 507 q 297 481 290 483 q 297 482 297 481 q 297 483 297 483 q 365 526 313 525 q 407 515 385 528 q 432 483 429 503 q 429 367 436 454 q 425 261 428 338 q 425 156 422 197 q 435 69 431 83 q 451 38 444 42 q 488 51 463 31 q 543 125 515 72 q 597 304 571 178 m 282 381 q 285 406 283 396 q 286 424 285 411 q 250 439 274 444 q 210 424 229 435 q 142 369 169 403 q 81 218 86 301 q 81 180 79 200 q 90 139 83 160 q 112 114 97 118 q 150 124 126 110 q 211 200 179 143 q 256 300 236 243 q 282 381 269 335 z "},"ã":{"ha":590,"x_min":-40,"x_max":638,"o":"m 160 596 q 148 587 160 589 q 124 589 136 585 q 111 603 111 593 q 136 647 111 633 q 192 654 161 661 q 238 626 211 650 q 269 625 256 611 q 281 654 278 635 q 304 665 282 668 q 328 649 326 661 q 307 603 331 619 q 254 588 283 586 q 201 610 225 590 q 194 617 200 611 q 185 625 189 622 q 176 626 181 628 q 160 596 160 625 m 597 304 q 610 316 600 314 q 629 312 621 318 q 635 296 638 306 q 563 82 604 151 q 488 4 532 31 q 392 -8 443 -22 q 338 24 360 0 q 304 85 315 47 q 289 148 293 122 q 281 213 285 174 q 278 238 279 224 q 260 199 269 217 q 78 60 182 44 q 22 85 46 64 q -16 135 -3 106 q -35 197 -29 165 q -39 260 -40 229 q 0 389 -36 328 q 94 485 36 450 q 228 513 165 528 q 285 488 256 507 q 297 481 290 483 q 297 482 297 481 q 297 483 297 483 q 365 526 313 525 q 407 515 385 528 q 432 483 429 503 q 429 367 436 454 q 425 261 428 338 q 425 156 422 197 q 435 69 431 83 q 451 38 444 42 q 488 51 463 31 q 543 125 515 72 q 597 304 571 178 m 282 381 q 285 406 283 396 q 286 424 285 411 q 250 439 274 444 q 210 424 229 435 q 142 369 169 403 q 81 218 86 301 q 81 180 79 200 q 90 139 83 160 q 112 114 97 118 q 150 124 126 110 q 211 200 179 143 q 256 300 236 243 q 282 381 269 335 z "},"ä":{"ha":590,"x_min":-40,"x_max":638,"o":"m 194 622 q 194 626 194 624 q 193 631 193 629 q 194 633 193 632 q 194 636 194 635 q 194 639 194 636 q 194 643 194 642 q 204 656 196 651 q 213 661 210 658 q 231 664 222 664 q 244 665 238 665 q 265 661 256 665 q 278 657 269 660 q 286 654 282 656 q 289 656 288 656 q 293 658 290 657 q 297 661 296 660 q 315 664 306 664 q 329 665 322 665 q 350 661 340 665 l 363 657 q 376 649 371 654 q 386 638 383 644 l 388 632 q 389 629 389 631 q 392 621 392 626 q 390 614 393 617 q 386 606 390 608 q 378 600 383 603 q 367 596 372 597 q 354 594 361 594 q 339 593 346 593 q 317 597 328 593 q 310 599 314 597 q 303 601 306 601 q 301 602 303 601 q 299 604 300 603 q 293 600 296 601 q 282 596 289 597 q 269 594 276 594 q 254 593 263 593 q 232 597 243 593 q 226 599 231 597 q 218 601 221 600 q 207 607 208 607 q 199 615 204 610 q 197 619 199 617 q 194 622 194 621 m 597 304 q 610 316 600 314 q 629 312 621 318 q 635 296 638 306 q 563 82 604 151 q 488 4 532 31 q 392 -8 443 -22 q 346 17 365 -1 q 315 57 326 36 q 297 110 304 78 q 286 162 289 142 q 281 213 283 182 q 278 238 279 224 q 260 199 269 217 q 78 60 182 44 q 22 85 46 64 q -16 135 -3 106 q -35 197 -29 165 q -39 260 -40 229 q 0 389 -36 328 q 94 485 36 450 q 228 513 165 528 q 285 488 256 507 q 297 481 290 483 l 297 482 l 297 483 q 365 526 313 525 q 407 515 385 528 q 432 483 429 503 q 429 367 436 454 q 425 261 428 338 q 425 156 422 197 q 435 69 431 83 q 451 38 444 42 q 488 51 463 31 q 543 125 515 72 q 597 304 571 178 m 282 381 q 285 406 283 396 q 286 424 285 411 q 250 439 274 444 q 210 424 229 435 q 142 369 169 403 q 81 218 86 301 q 81 180 79 200 q 90 139 83 160 q 112 114 97 118 q 150 124 126 110 q 211 201 179 143 q 256 300 236 243 q 282 381 269 335 z "},"å":{"ha":590,"x_min":-40,"x_max":638,"o":"m 294 585 q 247 574 274 571 q 201 593 219 576 q 188 628 186 608 q 206 663 189 649 q 215 665 210 664 q 219 679 207 675 q 268 681 242 688 q 308 656 294 674 q 317 617 321 638 q 294 585 313 596 m 246 644 q 238 610 228 631 q 257 604 244 594 q 268 640 274 618 q 262 653 267 646 q 250 658 257 660 q 246 657 249 657 q 246 644 254 651 m 597 304 q 610 316 600 314 q 629 312 621 318 q 635 296 638 306 q 563 82 604 151 q 488 4 532 31 q 392 -8 443 -22 q 338 24 360 0 q 304 85 315 47 q 289 148 293 122 q 281 213 285 174 q 278 238 279 224 q 260 199 269 217 q 78 60 182 44 q 22 85 46 64 q -16 135 -3 106 q -35 197 -29 165 q -39 260 -40 229 q 0 389 -36 328 q 94 485 36 450 q 228 513 165 528 q 285 488 256 507 q 297 481 290 483 q 297 482 297 481 q 297 483 297 483 q 365 526 313 525 q 407 515 385 528 q 432 483 429 503 q 429 367 436 454 q 425 261 428 338 q 425 156 422 197 q 435 69 431 83 q 451 38 444 42 q 488 51 463 31 q 543 125 515 72 q 597 304 571 178 m 282 381 q 285 406 283 396 q 286 424 285 411 q 250 439 274 444 q 210 424 229 435 q 142 369 169 403 q 81 218 86 301 q 81 180 79 200 q 90 139 83 160 q 112 114 97 118 q 150 124 126 110 q 211 200 179 143 q 256 300 236 243 q 282 381 269 335 z "},"æ":{"ha":978,"x_min":-40,"x_max":1025,"o":"m 986 329 q 998 341 988 339 q 1017 338 1008 343 q 1022 321 1025 332 q 951 135 1000 222 q 831 -1 893 31 q 681 -1 757 -39 q 588 132 608 33 q 563 82 576 104 q 488 4 532 31 q 392 -8 443 -22 q 338 24 360 0 q 304 85 315 47 q 289 148 293 122 q 281 213 285 174 q 278 238 279 224 q 260 199 269 217 q 78 60 182 44 q 22 85 46 64 q -16 135 -3 106 q -35 197 -29 165 q -39 260 -40 229 q 0 389 -36 328 q 94 485 36 450 q 228 513 165 528 q 285 488 256 507 q 297 481 290 483 q 297 482 297 481 q 297 483 297 483 q 365 526 313 525 q 407 515 385 528 q 432 483 429 503 q 429 367 436 454 q 425 261 428 338 q 425 156 422 197 q 435 69 431 83 q 451 38 444 42 q 488 51 463 31 q 543 125 515 72 q 576 214 563 163 q 583 328 574 271 q 658 490 603 440 q 738 526 692 521 q 813 504 768 531 q 857 461 847 483 q 857 394 871 431 q 794 325 838 350 q 700 299 751 300 q 701 83 678 176 q 724 35 710 50 q 779 19 743 14 q 879 92 833 29 q 986 329 954 192 m 708 338 q 707 332 708 336 l 707 331 q 763 346 736 332 q 815 392 793 361 q 822 450 838 422 q 797 471 811 471 q 786 467 794 471 q 750 438 763 451 q 708 338 725 407 m 282 381 q 285 406 283 396 q 286 424 285 411 q 250 439 274 444 q 210 424 229 435 q 142 369 169 403 q 81 218 86 301 q 81 180 79 200 q 90 139 83 160 q 112 114 97 118 q 150 124 126 110 q 211 200 179 143 q 256 300 236 243 q 282 381 269 335 z "},"ç":{"ha":361,"x_min":-42,"x_max":407,"o":"m 368 335 q 379 349 369 344 q 398 349 389 353 q 406 335 407 344 q 289 47 388 156 q 189 -14 246 -1 q 189 -18 189 -17 q 186 -31 188 -22 q 183 -46 185 -40 q 215 -61 203 -49 q 235 -107 235 -78 q 214 -150 235 -136 q 190 -156 207 -156 q 158 -151 172 -157 q 146 -133 144 -144 q 151 -122 147 -126 q 160 -111 154 -117 q 168 -101 165 -106 q 174 -89 174 -96 q 174 -79 178 -83 q 160 -83 169 -82 q 142 -83 151 -85 q 126 -77 133 -82 q 121 -65 119 -72 q 132 -17 124 -56 q 58 15 92 -10 q -14 135 18 46 q -35 286 -42 211 q -15 386 -31 338 q 36 476 0 435 q 122 526 72 518 q 163 525 140 529 q 205 513 185 521 q 239 492 225 504 q 281 389 268 464 q 273 376 282 381 q 253 374 264 371 q 242 385 243 376 q 240 389 242 386 q 234 425 238 411 q 219 456 231 439 q 193 475 208 472 q 161 458 178 478 q 135 419 144 439 q 92 217 90 332 q 103 113 92 154 q 136 36 117 57 q 167 22 149 24 q 203 27 186 21 q 233 43 219 33 q 300 125 267 67 q 368 335 357 221 z "},"è":{"ha":368,"x_min":-43,"x_max":415,"o":"m 376 329 q 389 341 379 339 q 407 338 399 343 q 413 321 415 332 q 342 135 390 222 q 221 -1 283 31 q 71 -1 147 -39 q -22 135 -3 33 q -26 328 -42 231 q 49 490 -7 440 q 128 526 83 521 q 150 526 139 528 q 135 542 136 532 q 133 549 133 544 q 132 556 132 553 q 131 563 132 560 q 124 551 129 560 q 115 539 118 543 q 79 535 107 525 q 68 551 61 540 q 110 617 82 572 q 133 624 115 625 q 157 614 151 624 q 179 581 161 608 q 210 550 182 576 q 214 535 218 542 q 202 526 210 529 q 188 522 194 522 q 168 522 179 521 q 203 504 179 518 q 249 461 238 483 q 247 394 263 429 q 185 325 228 350 q 90 299 142 300 q 92 83 68 176 q 114 35 100 50 q 169 19 133 14 q 269 92 224 29 q 376 329 344 192 m 99 338 q 99 332 99 336 l 97 331 q 153 346 126 332 q 206 392 183 361 q 213 450 228 422 q 188 471 201 471 q 176 467 185 471 q 142 438 153 451 q 99 338 117 407 z "},"é":{"ha":368,"x_min":-43,"x_max":415,"o":"m 89 533 q 58 534 78 529 q 46 553 39 539 q 49 559 47 556 q 54 567 51 563 q 60 574 57 571 q 71 592 68 589 q 110 626 72 593 q 142 634 124 635 q 174 626 160 633 q 191 612 186 621 q 186 592 196 603 q 143 560 144 560 q 128 552 139 557 q 115 546 117 547 q 103 541 113 546 q 89 533 94 536 m 269 92 q 376 329 344 192 q 383 339 378 336 q 393 342 388 342 q 403 340 399 342 q 411 333 408 338 q 413 321 414 328 q 342 135 390 222 q 221 -1 283 31 q 71 -1 147 -39 q -22 135 -3 33 q -26 328 -42 231 q 49 490 -7 440 q 128 526 83 521 q 203 504 158 531 q 249 461 238 483 q 247 394 263 429 q 185 325 228 350 q 90 299 142 300 q 92 83 68 176 q 114 35 100 50 q 169 19 133 14 q 269 92 224 29 m 99 338 q 99 332 99 336 l 97 331 q 153 346 126 332 q 206 392 183 361 q 213 450 228 422 q 188 471 201 471 q 176 467 185 471 q 142 438 153 451 q 99 338 117 407 z "},"ê":{"ha":368,"x_min":-43,"x_max":415,"o":"m 88 596 q 77 617 74 607 q 96 631 81 626 q 163 617 133 642 q 175 606 167 613 q 190 594 183 600 q 201 582 196 588 q 208 573 204 579 q 213 564 211 567 q 225 546 224 549 q 213 533 231 535 q 183 535 193 531 q 174 540 179 538 q 165 545 169 542 q 156 550 160 549 q 129 563 132 563 q 88 596 129 564 m 269 92 q 376 329 344 192 q 389 341 379 339 q 407 338 399 343 q 413 321 415 332 q 342 135 390 222 q 221 -1 283 31 q 71 -1 147 -39 q -22 135 -3 33 q -26 328 -42 231 q 49 490 -7 440 q 128 526 83 521 q 203 504 158 531 q 249 461 238 483 q 247 394 263 429 q 185 325 228 350 q 90 299 142 300 q 92 83 68 176 q 114 35 100 50 q 169 19 133 14 q 269 92 224 29 m 99 338 q 99 332 99 336 l 97 331 q 153 346 126 332 q 206 392 183 361 q 213 450 228 422 q 188 471 201 471 q 176 467 185 471 q 142 438 153 451 q 99 338 117 407 z "},"ë":{"ha":368,"x_min":-43,"x_max":415,"o":"m 46 571 q 45 575 46 572 q 44 579 44 578 q 45 582 44 581 q 47 585 46 583 l 47 592 q 56 604 49 600 q 60 607 57 606 q 65 610 63 608 q 82 613 74 613 q 96 614 89 614 q 118 610 107 614 q 131 606 122 608 q 138 603 133 604 q 140 604 139 604 q 144 607 142 606 q 149 610 147 608 q 167 613 158 613 q 181 614 174 614 q 203 610 192 614 q 215 606 207 608 q 229 597 222 603 q 238 586 235 593 q 239 581 238 586 q 240 578 240 579 q 243 569 244 575 q 243 563 246 565 q 238 556 242 557 q 229 549 235 551 q 219 544 225 546 q 206 543 213 543 q 190 543 199 542 q 168 546 179 543 q 161 548 165 546 q 154 550 157 550 q 153 551 154 550 q 151 553 151 551 q 146 549 149 550 q 135 544 140 546 q 121 543 128 543 q 107 543 114 542 q 83 546 94 543 q 77 548 82 546 q 71 550 72 550 q 67 552 68 551 q 63 554 65 553 q 60 557 61 556 q 51 564 57 558 q 46 571 47 569 m 269 92 q 376 329 344 192 q 383 339 378 336 q 393 342 388 342 q 403 340 399 342 q 411 333 408 338 q 413 321 414 328 q 342 135 390 222 q 317 94 329 113 q 291 58 306 76 q 258 24 276 39 q 221 -1 240 8 q 71 -1 147 -39 q -22 135 -3 33 q -26 328 -42 231 q 49 490 -7 440 q 128 526 83 521 q 203 504 158 531 q 249 461 238 483 q 247 394 263 431 q 185 325 228 350 q 90 299 142 300 q 92 83 68 176 q 114 35 100 50 q 169 19 133 14 q 269 92 224 29 m 99 338 q 99 332 99 336 l 97 331 q 153 346 126 332 q 206 392 183 361 q 213 450 228 422 q 188 471 201 471 q 176 467 185 471 q 142 438 153 451 q 99 338 117 407 z "},"ì":{"ha":282,"x_min":-33,"x_max":331,"o":"m 39 765 q 4 761 31 751 q -8 778 -12 768 l 33 843 q 58 851 40 853 q 81 842 75 850 q 103 808 85 835 q 135 776 106 804 q 135 758 146 767 q 111 749 124 750 q 79 752 97 747 q 58 769 61 757 q 58 776 58 772 q 56 783 57 779 q 56 789 56 786 q 39 765 44 774 m 290 304 q 302 316 292 314 q 321 312 313 318 q 328 296 329 306 q 254 82 296 151 q 181 4 225 31 q 83 -8 136 -22 q 30 24 51 0 q -3 84 8 47 q -19 147 -14 121 q -28 213 -24 174 q -28 344 -33 268 q -24 406 -25 385 q -10 483 -15 468 q 57 526 6 525 q 99 515 78 528 q 124 483 121 503 q 122 367 129 454 q 117 261 119 338 q 118 156 115 197 q 128 69 122 83 q 143 38 136 42 q 181 51 154 31 q 236 125 207 72 q 290 304 263 178 m 111 708 q 132 667 131 693 q 132 662 132 665 q 133 656 132 658 q 133 650 133 653 q 133 644 133 647 q 129 621 133 638 q 110 590 126 610 q 53 575 92 571 q 28 582 40 575 q 4 601 14 589 q -8 646 -10 617 q -8 652 -8 649 q -8 660 -8 656 q -7 667 -7 664 q 14 708 -4 692 q 63 725 31 725 q 111 708 90 726 z "},"í":{"ha":282,"x_min":-33,"x_max":331,"o":"m 71 760 q 40 761 60 756 q 28 779 21 767 q 35 791 29 783 q 42 800 40 799 q 53 818 51 815 q 92 853 54 819 q 124 860 106 861 q 156 854 142 860 q 173 839 168 849 q 168 819 178 829 q 125 786 126 786 q 110 778 121 783 q 97 774 99 774 q 90 770 94 772 q 83 767 86 768 q 77 763 81 765 q 71 760 74 761 m 290 304 q 302 316 292 314 q 321 312 313 318 q 328 296 329 306 q 254 82 296 151 q 181 4 225 31 q 83 -8 136 -22 q 30 24 51 0 q -3 85 8 47 q -19 148 -14 122 q -28 213 -24 174 q -28 344 -33 268 q -24 406 -25 385 q -10 483 -15 468 q 57 526 6 525 q 99 515 78 528 q 124 483 121 503 q 122 367 129 454 q 117 261 119 338 q 118 156 115 197 q 128 69 122 83 q 143 38 136 42 q 181 51 154 31 q 236 125 207 72 q 290 304 263 178 m 28 582 q 4 601 14 589 q -8 646 -10 617 q -7 667 -8 646 q 14 708 -4 692 q 63 725 31 725 q 111 708 90 726 q 132 667 131 693 q 132 660 132 664 q 133 651 132 656 q 133 644 133 647 q 129 621 133 638 q 110 590 126 610 q 53 575 92 571 q 28 582 40 575 z "},"î":{"ha":282,"x_min":-33,"x_max":331,"o":"m 36 822 q 26 843 22 833 q 44 858 29 853 q 111 843 82 869 q 124 833 115 840 q 138 821 132 826 q 150 810 144 815 q 156 800 153 807 q 161 792 160 793 q 174 774 172 775 q 161 760 179 763 q 132 763 142 757 q 117 769 126 764 q 104 776 108 775 q 78 790 79 789 q 36 822 78 790 m 290 304 q 302 316 292 314 q 321 312 313 318 q 328 296 329 306 q 254 82 296 151 q 181 4 225 31 q 83 -8 136 -22 q 30 24 51 0 q -3 85 8 47 q -19 148 -14 122 q -28 213 -24 174 q -28 344 -33 268 q -24 406 -25 385 q -10 483 -15 468 q 57 526 6 525 q 99 515 78 528 q 124 483 121 503 q 122 367 129 454 q 117 261 119 338 q 118 156 115 197 q 128 69 122 83 q 143 38 136 42 q 181 51 154 31 q 236 125 207 72 q 290 304 263 178 m 53 575 q 28 582 40 575 q 4 601 14 589 q -8 646 -10 617 q -7 667 -8 646 q 14 708 -4 692 q 63 725 31 725 q 111 708 90 726 q 132 667 131 693 q 132 660 132 664 q 133 651 132 656 q 133 644 133 647 q 129 621 133 638 q 110 590 126 610 q 53 575 92 571 z "},"ï":{"ha":282,"x_min":-33,"x_max":331,"o":"m -28 799 q -28 803 -28 800 q -29 807 -29 806 q -28 809 -29 807 q -28 811 -28 811 q -28 818 -28 815 q -18 832 -25 826 q -14 834 -17 832 q -10 836 -11 836 q 8 840 0 840 q 22 840 15 842 q 44 838 33 840 q 57 833 49 836 q 64 829 60 832 q 67 832 65 831 q 71 834 68 832 q 75 836 74 836 q 93 840 83 840 q 107 840 100 842 q 128 838 118 840 q 140 833 132 836 q 156 824 149 831 q 164 814 161 819 q 165 807 164 813 q 167 806 167 806 q 169 797 169 801 q 169 789 171 793 q 164 782 168 785 q 156 776 161 778 q 144 772 151 772 q 132 769 139 769 q 117 769 125 768 q 94 772 106 769 q 88 775 92 774 q 81 778 83 776 q 76 779 79 778 q 71 776 75 778 q 61 772 67 772 q 47 769 54 769 q 32 769 40 768 q 10 772 21 769 q 3 775 7 774 q -4 778 -1 776 q -9 780 -6 778 q -15 783 -12 782 l -24 790 q -28 799 -25 793 m 290 304 q 302 316 292 314 q 321 312 313 318 q 328 296 329 306 q 254 82 296 151 q 181 4 225 31 q 83 -8 136 -22 q 30 24 51 0 q -3 84 8 47 q -19 147 -14 121 q -28 213 -24 174 q -28 344 -33 268 q -24 406 -25 385 q -10 483 -15 468 q 57 526 6 525 q 99 515 78 528 q 124 483 121 503 q 122 367 129 454 q 117 261 119 338 q 118 156 115 197 q 128 69 122 83 q 143 38 136 42 q 181 51 154 31 q 235 125 207 72 q 290 304 263 178 m 63 725 q 111 708 90 726 q 132 667 131 693 q 132 662 132 665 q 133 656 132 658 q 133 650 133 653 q 133 644 133 647 q 129 621 133 638 q 110 590 126 610 q 53 575 92 571 q 28 582 40 575 q 4 601 14 589 q -8 646 -10 617 q -8 652 -8 649 q -8 660 -8 656 q -7 667 -7 664 q 14 708 -4 692 q 63 725 31 725 z "},"ñ":{"ha":501,"x_min":-28,"x_max":547,"o":"m 132 564 q 115 533 115 561 q 103 523 115 525 q 79 526 92 521 q 67 539 67 531 q 91 584 65 569 q 147 592 117 599 q 193 564 167 588 q 225 563 211 547 q 236 590 233 571 q 260 601 238 604 q 283 585 282 599 q 274 551 286 565 q 245 530 263 536 q 210 525 228 524 q 157 546 181 526 q 150 553 156 547 q 140 562 144 560 q 132 564 136 564 m 511 300 q 522 310 513 308 q 539 308 531 313 q 546 296 547 304 q 507 144 533 217 q 444 29 474 57 q 392 3 424 10 q 333 1 361 -4 q 250 101 272 15 q 238 193 239 143 q 241 300 238 243 q 243 392 244 357 q 233 450 240 431 q 207 458 226 468 q 146 351 168 438 q 122 215 139 326 q 101 79 117 183 q 100 58 101 67 q 75 4 97 35 q 50 -10 67 -8 q 22 -1 33 -12 q 19 1 21 -1 q -12 50 -7 29 q -19 108 -18 71 q -24 221 -22 164 q -21 451 -26 326 q 10 497 -19 486 q 15 500 13 499 q 74 497 44 511 q 104 451 106 482 q 101 353 103 407 q 111 386 106 371 q 176 487 132 447 q 279 514 221 526 q 382 263 397 490 q 374 125 374 149 q 379 69 372 88 q 389 51 385 56 q 407 51 393 47 q 446 101 425 61 q 472 163 460 131 q 511 300 497 226 z "},"ò":{"ha":478,"x_min":-42,"x_max":528,"o":"m 192 561 q 157 557 183 549 q 144 575 138 564 q 186 640 158 596 q 210 647 192 649 q 233 638 228 646 q 256 604 238 632 q 288 574 258 600 q 291 559 296 565 q 278 549 286 553 q 264 546 271 546 q 232 548 250 543 q 211 565 214 553 q 210 575 211 568 q 208 586 208 582 q 192 561 197 569 m 360 160 q 489 276 463 188 q 501 288 490 286 q 519 284 511 290 q 525 268 528 278 q 457 167 507 206 q 340 119 407 129 q 213 -4 288 26 q 87 1 149 -32 q -1 100 25 33 q -34 232 -28 161 q -26 367 -40 303 q -4 398 -22 388 q 38 407 14 408 q 101 497 56 464 q 192 531 142 525 q 288 513 243 536 q 385 356 365 469 q 360 160 403 256 m 160 75 q 225 86 189 61 q 261 118 244 100 q 140 158 193 125 q 107 183 122 169 q 118 136 111 158 q 160 75 133 89 m 289 151 q 334 261 322 201 q 332 379 346 321 q 239 490 310 472 q 158 484 199 501 q 94 432 117 467 q 78 396 83 414 q 101 353 103 379 q 100 257 100 282 q 210 167 140 192 q 289 151 247 153 z "},"ó":{"ha":478,"x_min":-42,"x_max":528,"o":"m 183 557 q 153 558 172 553 q 140 576 133 563 q 144 583 142 579 q 149 590 146 586 q 154 597 153 594 q 165 615 164 613 q 206 649 167 615 q 236 658 218 658 q 268 650 254 657 q 286 635 281 644 q 281 615 292 626 q 238 583 239 583 q 222 575 233 579 q 210 569 211 571 q 199 564 208 569 q 183 557 189 558 m 489 276 q 501 288 490 286 q 519 284 511 290 q 525 268 528 278 q 457 167 507 206 q 340 119 407 129 q 213 -4 288 26 q 87 1 149 -32 q -1 100 25 33 q -34 232 -28 161 q -26 367 -40 303 q -4 398 -22 388 q 38 407 14 408 q 101 497 56 464 q 192 531 142 525 q 288 513 243 536 q 385 356 365 469 q 360 160 403 256 q 489 276 463 188 m 225 86 q 261 118 244 100 q 140 158 193 125 q 107 183 122 169 q 118 136 111 158 q 160 75 133 89 q 225 86 189 61 m 289 151 q 334 261 322 201 q 332 379 346 321 q 239 490 310 472 q 158 484 199 501 q 94 432 117 467 q 78 396 83 414 q 101 353 103 379 q 100 257 100 282 q 210 167 140 192 q 289 151 247 153 z "},"ô":{"ha":478,"x_min":-42,"x_max":526,"o":"m 88 619 q 77 640 74 631 q 96 654 81 650 q 163 640 133 665 q 172 631 165 636 q 183 623 178 626 q 192 615 188 619 q 201 606 197 610 q 208 597 204 603 q 213 588 211 590 q 225 569 224 572 q 213 557 231 558 q 183 558 193 554 q 169 566 178 561 q 156 574 160 571 q 129 586 132 585 q 88 619 129 588 m 360 160 q 489 276 463 188 q 495 285 490 282 q 506 288 500 289 q 516 285 511 288 q 524 278 521 283 q 525 268 526 274 q 457 167 507 206 q 340 119 407 129 q 213 -4 288 26 q 125 -12 167 -22 q 49 27 83 -3 q -1 100 15 57 q -34 232 -28 161 q -26 367 -40 303 q -4 398 -22 388 q 38 407 14 408 q 101 497 56 464 q 192 531 142 525 q 288 513 243 536 q 385 356 365 469 q 360 160 403 256 m 160 75 q 225 86 189 61 q 261 118 244 100 q 140 158 193 125 q 107 183 122 169 q 118 136 111 158 q 160 75 133 89 m 289 151 q 334 261 322 201 q 332 379 346 321 q 239 490 310 472 q 158 484 199 501 q 94 432 117 467 q 78 396 83 414 q 101 353 103 379 q 100 257 100 282 q 210 167 140 192 q 289 151 247 153 z "},"õ":{"ha":478,"x_min":-42,"x_max":528,"o":"m 108 568 q 96 559 108 561 q 72 561 83 557 q 60 575 60 565 q 84 619 58 606 q 139 626 110 633 q 186 599 158 622 q 217 597 204 583 q 228 626 225 607 q 253 637 231 640 q 276 621 275 633 q 256 575 279 592 q 202 560 232 558 q 150 582 172 563 q 143 589 149 583 q 133 597 138 594 q 125 599 129 600 q 108 568 108 597 m 489 276 q 501 288 490 286 q 519 284 511 290 q 525 268 528 278 q 457 167 507 206 q 340 119 407 129 q 213 -4 288 26 q 125 -12 167 -22 q 49 27 83 -3 q -1 100 15 57 q -34 232 -28 161 q -26 367 -40 303 q -4 398 -22 388 q 38 407 14 408 q 101 497 56 464 q 192 531 142 525 q 288 513 243 536 q 385 356 365 469 q 360 160 403 256 q 489 276 463 188 m 225 86 q 261 118 244 100 q 140 158 193 125 q 107 183 122 169 q 118 136 111 158 q 160 75 133 89 q 225 86 189 61 m 289 151 q 334 261 322 201 q 332 379 346 321 q 239 490 310 472 q 158 484 199 501 q 94 432 117 467 q 78 396 83 414 q 101 353 103 379 q 100 257 100 282 q 210 167 140 192 q 289 151 247 153 z "},"ö":{"ha":478,"x_min":-42,"x_max":528,"o":"m 71 594 q 70 599 71 596 q 69 603 69 601 q 70 606 69 604 q 72 608 71 607 q 72 612 72 610 q 72 615 72 614 q 81 628 74 624 q 85 631 82 629 q 90 633 89 632 q 108 636 99 636 q 121 638 114 638 q 143 633 132 638 q 156 629 147 632 q 163 626 158 628 q 165 628 164 628 q 169 631 167 629 q 174 633 172 632 q 192 636 183 636 q 206 638 199 638 q 228 633 217 638 q 240 629 232 632 q 254 621 247 626 q 263 610 260 617 q 264 604 263 610 q 265 601 265 603 q 269 593 269 599 q 268 586 271 589 q 263 578 267 581 q 254 572 260 575 q 244 568 250 569 q 231 567 238 567 q 215 565 224 565 q 193 569 204 565 q 186 572 190 569 q 179 574 182 574 q 176 576 178 575 q 171 572 174 574 q 160 568 165 569 q 146 567 153 567 q 132 565 139 565 q 108 569 119 565 q 104 570 107 569 q 99 572 101 571 q 96 574 97 574 q 90 577 93 575 q 85 579 86 579 l 76 588 q 71 594 74 590 m 488 276 q 501 288 490 286 q 519 284 511 290 q 525 268 528 278 q 457 167 507 206 q 340 119 407 129 q 213 -4 288 26 q 87 1 149 -32 q -1 100 25 33 q -34 232 -28 161 q -26 367 -40 303 q -4 398 -22 388 q 38 407 14 408 q 101 497 56 464 q 192 531 142 525 q 288 513 243 536 q 385 356 365 469 q 360 160 403 256 q 488 276 463 188 m 225 86 q 261 118 244 100 q 140 158 193 125 q 107 183 122 169 q 118 136 111 158 q 160 75 133 89 q 225 86 189 61 m 289 151 q 334 261 322 201 q 332 379 346 321 q 239 490 310 472 q 158 484 199 501 q 94 432 117 467 q 78 396 83 414 q 101 353 103 379 q 100 257 100 282 q 210 167 140 192 q 289 151 247 153 z "},"÷":{"ha":744,"x_min":67,"x_max":676,"o":"m 401 465 q 389 456 401 465 q 349 447 378 447 q 298 465 321 447 q 275 510 275 483 q 298 556 275 538 q 349 574 321 574 q 401 556 378 574 q 424 510 424 538 q 401 465 424 483 m 298 362 q 309 370 298 362 q 349 379 321 379 q 401 362 378 379 q 424 317 424 344 q 401 272 424 289 q 349 254 378 254 q 298 272 321 254 q 275 317 275 289 q 298 362 275 344 m 657 442 q 669 440 664 443 q 674 431 674 436 q 674 422 675 426 q 669 415 674 418 q 657 411 664 411 q 520 408 611 410 q 383 404 429 406 q 340 403 365 404 q 291 402 315 403 q 247 401 267 401 q 110 388 208 400 q 69 411 74 383 q 78 433 68 424 q 101 442 89 443 q 243 435 207 433 q 311 435 265 435 q 379 438 357 436 l 657 442 z "},"ø":{"ha":478,"x_min":-42,"x_max":528,"o":"m 489 276 q 501 288 490 286 q 519 284 511 290 q 525 268 528 278 q 457 167 507 206 q 340 119 407 129 q 213 -4 288 26 q 196 -11 204 -8 q 178 -87 189 -36 q 160 -165 167 -139 q 145 -176 158 -174 q 120 -172 132 -178 q 110 -160 108 -167 q 126 -87 115 -135 q 142 -15 136 -39 q 57 21 96 -11 q -1 100 18 53 q -34 232 -28 161 q -26 367 -40 303 q -4 398 -22 388 q 38 407 14 408 q 101 497 56 464 q 179 528 136 521 q 263 524 222 536 q 265 533 264 528 q 267 544 267 539 q 269 553 268 549 q 272 564 271 558 q 275 574 274 569 q 308 583 278 590 q 326 568 326 578 q 310 497 321 544 q 385 356 369 450 q 360 160 403 256 q 489 276 463 188 m 101 353 q 100 257 100 282 q 185 178 132 206 q 220 331 197 229 q 254 485 243 433 q 239 490 246 489 q 158 484 199 501 q 94 432 117 467 q 78 396 83 414 q 101 353 103 379 m 118 136 q 160 75 133 89 q 163 75 160 75 q 176 139 164 81 q 140 158 157 147 q 107 183 122 169 q 118 136 111 158 m 225 86 q 261 118 244 100 q 225 124 244 119 q 223 110 225 118 q 219 94 221 101 q 215 81 217 88 q 225 86 219 83 m 289 151 q 334 261 322 201 q 332 379 346 321 q 299 450 322 421 q 233 158 256 256 q 289 151 260 153 z "},"ù":{"ha":578,"x_min":-31,"x_max":625,"o":"m 217 625 q 181 621 208 611 q 169 638 163 628 l 211 703 q 235 711 217 713 q 258 701 253 710 q 281 668 261 696 q 311 636 283 664 q 312 618 322 626 q 289 608 301 610 q 256 612 275 607 q 236 629 238 617 q 234 639 235 632 q 232 649 233 646 q 224 637 229 644 q 217 625 219 629 m 586 304 q 598 316 588 314 q 617 312 608 318 q 622 296 625 306 q 550 82 592 151 q 475 4 519 31 q 379 -8 431 -22 q 275 153 297 14 q 261 114 268 132 q 203 19 233 44 q 99 -3 156 -18 q 30 44 58 8 q -10 117 1 79 q -26 201 -22 156 q -29 325 -31 240 q -25 468 -26 450 q 13 520 -21 506 q 79 520 46 535 q 115 468 113 506 q 114 351 117 450 q 111 244 113 265 q 133 71 104 119 q 153 49 146 50 q 188 74 167 46 q 238 171 211 103 q 265 256 251 208 q 267 344 264 296 q 272 406 269 385 q 285 483 279 468 q 353 526 301 525 q 394 515 372 528 q 419 483 417 503 q 418 367 424 454 q 413 261 415 338 q 414 156 411 197 q 422 69 418 83 q 439 38 432 42 q 475 51 450 31 q 531 125 503 72 q 586 304 558 178 z "},"ú":{"ha":578,"x_min":-31,"x_max":625,"o":"m 143 619 q 113 621 132 615 q 100 639 93 626 q 107 651 101 643 q 114 660 113 658 q 125 678 122 676 q 164 713 126 679 q 196 720 178 721 q 228 714 214 719 q 245 699 240 708 q 240 679 250 689 q 197 646 199 647 q 182 639 193 643 q 169 633 171 635 q 158 627 167 632 q 143 619 149 622 m 586 304 q 598 316 588 314 q 617 312 608 318 q 622 296 625 306 q 550 82 592 151 q 475 4 519 31 q 379 -8 431 -22 q 275 153 297 14 q 261 114 268 132 q 203 19 233 44 q 99 -3 156 -18 q 30 44 58 8 q -10 117 1 79 q -26 201 -22 156 q -29 325 -31 240 q -25 468 -26 450 q -1 512 -22 496 q 46 528 21 528 q 92 512 71 528 q 115 468 114 496 q 114 351 117 450 q 111 244 113 265 q 133 71 104 119 q 153 49 146 50 q 188 74 167 46 q 238 171 210 103 q 265 256 251 208 q 267 344 264 296 q 272 406 269 385 q 285 483 279 468 q 353 526 301 525 q 394 515 372 528 q 419 483 417 503 q 418 367 424 454 q 413 261 415 338 q 414 156 411 197 q 422 69 418 83 q 439 38 432 42 q 475 51 450 31 q 531 125 503 72 q 586 304 558 178 z "},"û":{"ha":578,"x_min":-31,"x_max":625,"o":"m 188 683 q 177 703 174 693 q 196 718 181 713 q 263 703 233 729 q 275 693 267 700 q 290 681 283 686 q 301 669 297 675 q 308 660 304 667 q 313 651 311 653 q 325 633 324 636 q 313 619 331 622 q 283 622 294 617 q 269 629 279 624 q 256 636 260 635 q 229 650 232 649 q 188 683 229 650 m 586 304 q 598 316 588 314 q 617 312 608 318 q 622 296 625 306 q 550 82 592 151 q 475 4 519 31 q 379 -8 431 -22 q 275 153 297 14 q 261 114 268 132 q 203 19 233 44 q 99 -3 156 -18 q 30 44 58 8 q -10 117 1 79 q -26 201 -22 156 q -29 325 -31 240 q -25 468 -26 450 q 13 520 -21 506 q 79 520 46 535 q 115 468 113 506 q 114 351 117 450 q 111 244 113 265 q 133 71 104 119 q 153 49 146 50 q 188 74 167 46 q 238 171 211 103 q 265 256 251 208 q 267 344 264 296 q 272 406 269 385 q 285 483 279 468 q 353 526 301 525 q 394 515 372 528 q 419 483 417 503 q 418 367 424 454 q 413 261 415 338 q 414 156 411 197 q 422 69 418 83 q 439 38 432 42 q 475 51 450 31 q 531 125 503 72 q 586 304 558 178 z "},"ü":{"ha":578,"x_min":-31,"x_max":625,"o":"m 151 658 q 150 663 150 660 q 150 667 150 665 q 151 669 150 667 q 151 671 151 671 l 151 678 q 161 692 153 686 q 165 694 163 692 q 169 696 168 696 q 188 700 178 700 q 201 700 194 701 q 222 697 213 700 l 235 693 q 242 689 239 692 q 244 692 243 690 q 254 696 249 693 q 272 700 263 700 q 286 700 279 701 q 307 697 297 700 l 319 693 q 333 683 328 690 q 342 674 339 679 q 344 670 343 672 q 344 667 344 668 q 346 665 346 665 q 349 657 349 661 q 347 649 350 653 q 343 642 347 644 q 335 636 340 638 q 324 632 329 633 q 311 629 317 629 q 296 629 303 628 q 272 632 285 629 q 260 638 261 636 q 258 638 258 638 q 256 639 257 639 q 250 636 253 638 q 239 632 244 633 q 226 629 233 629 q 211 629 218 628 q 189 632 200 629 q 175 638 178 636 l 164 643 q 156 650 161 646 q 153 654 156 651 q 151 658 151 657 m 586 304 q 598 316 588 314 q 617 312 608 318 q 622 296 625 306 q 550 82 592 151 q 475 4 519 31 q 379 -8 431 -22 q 275 153 297 14 q 261 114 268 132 q 203 19 233 44 q 99 -3 156 -18 q 30 44 58 8 q -10 117 1 79 q -26 201 -22 156 q -29 325 -31 240 q -25 468 -26 450 q 13 520 -21 506 q 79 520 46 535 q 115 468 113 506 q 114 351 117 450 q 111 244 113 265 q 133 71 104 119 q 153 49 146 50 q 188 74 167 46 q 238 171 210 103 q 265 256 251 208 q 267 344 264 296 q 272 406 269 385 q 285 483 279 468 q 353 526 301 525 q 394 515 372 528 q 419 483 417 503 q 418 367 424 454 q 413 261 415 338 q 413 156 411 197 q 422 69 418 83 q 439 38 432 42 q 475 51 450 31 q 531 125 503 72 q 586 304 558 178 z "},"ý":{"ha":578,"x_min":-61,"x_max":631,"o":"m 263 585 q 232 585 251 581 q 218 604 213 590 q 226 615 221 608 q 232 625 231 622 q 244 643 242 640 q 283 676 246 643 q 315 685 297 686 q 347 678 332 685 q 365 663 360 672 q 360 643 369 654 q 317 611 317 611 q 308 606 313 608 q 297 601 303 604 q 288 597 292 599 q 276 592 286 597 q 263 585 267 586 m 606 297 q 621 298 614 301 q 628 288 628 294 q 622 274 629 281 q 482 181 535 218 q 463 -189 492 -3 q 438 -319 451 -261 q 401 -442 425 -376 q 338 -560 376 -507 q 246 -651 299 -614 q 165 -695 208 -679 q 72 -706 121 -711 q -12 -668 22 -701 q -49 -605 -39 -643 q -59 -535 -60 -567 q -51 -460 -58 -504 q 344 128 -1 -136 q 332 293 342 210 q 276 142 306 201 q 213 60 246 81 q 111 33 164 26 q 17 91 53 40 q -28 207 -18 142 q -31 317 -33 244 q -26 453 -29 436 q -2 496 -24 481 q 44 511 19 511 q 90 496 69 511 q 113 453 111 481 q 108 247 117 403 q 140 107 104 149 q 164 90 154 92 q 200 108 179 89 q 253 190 224 132 q 315 369 282 246 q 319 376 317 374 q 307 442 314 410 q 316 486 303 467 q 354 513 329 506 q 405 507 379 518 q 438 472 431 496 q 478 221 468 350 q 606 297 538 260 m 339 -75 q 346 79 346 0 q 189 -69 254 6 q 0 -479 15 -272 q 15 -570 -3 -529 q 78 -615 32 -611 q 221 -512 150 -624 q 297 -319 264 -446 q 339 -75 326 -203 z "},"ÿ":{"ha":578,"x_min":-61,"x_max":631,"o":"m 138 622 q 137 626 138 624 q 136 631 136 629 q 138 633 136 632 l 138 636 l 138 643 q 147 656 139 651 l 156 661 q 174 664 164 664 q 188 665 181 665 q 208 661 199 665 l 221 657 q 229 654 225 656 q 232 656 231 656 q 240 661 235 657 q 258 664 249 664 q 272 665 265 665 q 293 661 283 665 l 306 657 q 319 649 314 654 q 329 638 326 644 q 330 634 329 636 q 331 632 331 632 q 332 629 332 631 q 335 621 335 626 q 333 614 336 617 q 329 606 333 608 q 321 600 326 603 q 310 596 315 597 q 297 594 304 594 q 282 593 289 593 q 260 597 271 593 q 253 599 257 597 q 246 601 249 601 l 242 604 q 236 600 239 601 q 225 596 232 597 q 213 594 219 594 q 197 593 206 593 q 175 597 186 593 q 168 599 172 597 q 161 601 164 601 l 150 607 q 146 611 149 608 q 142 615 143 614 q 140 619 142 617 q 138 622 138 621 m 606 297 q 621 298 614 301 q 628 288 628 294 q 622 274 629 281 q 482 181 535 218 q 463 -189 492 -3 q 438 -319 451 -261 q 401 -442 425 -376 q 338 -560 376 -507 q 246 -651 299 -614 q 165 -695 208 -679 q 72 -706 121 -711 q -12 -668 22 -701 q -49 -605 -39 -643 q -59 -535 -60 -567 q -51 -460 -58 -504 q 344 128 -1 -136 q 332 293 342 210 q 276 142 306 201 q 213 60 246 81 q 111 33 164 26 q 17 91 53 40 q -28 207 -18 142 q -31 317 -33 244 q -26 453 -29 436 q -14 485 -25 471 q 13 505 -3 499 q 44 511 28 511 q 76 505 61 511 q 101 485 92 499 q 113 453 111 472 q 108 247 117 403 q 140 107 104 149 q 164 90 154 92 q 200 108 179 89 q 253 190 224 132 q 315 369 282 246 q 319 376 317 374 q 307 442 314 410 q 309 473 304 458 q 326 498 314 488 q 354 513 338 508 q 405 507 379 518 q 438 472 431 496 q 478 221 468 350 q 606 297 538 260 m 339 -75 q 346 79 346 0 q 189 -69 254 6 q 0 -479 15 -272 q 15 -570 -3 -529 q 78 -615 32 -611 q 221 -512 150 -624 q 297 -319 264 -446 q 339 -75 326 -203 z "},"Œ":{"ha":1214,"x_min":58,"x_max":1258,"o":"m 1215 269 q 1229 283 1218 281 q 1249 278 1240 285 q 1254 261 1258 271 q 1209 133 1233 186 q 1143 38 1185 79 q 942 -33 1056 -50 q 792 48 854 -21 q 721 206 731 117 q 639 163 682 179 q 400 -17 546 -11 q 318 -1 356 -19 q 255 45 281 17 q 208 114 229 74 q 176 191 188 154 q 156 269 164 228 q 147 315 151 293 q 74 506 89 401 q 90 712 58 610 q 197 888 122 814 q 353 967 265 953 q 524 939 440 982 q 655 817 606 897 q 721 639 704 738 q 675 243 751 446 q 660 206 668 224 q 719 244 690 222 q 721 264 719 256 q 821 468 736 381 q 833 480 825 472 q 848 494 842 488 q 860 508 854 500 q 871 523 867 515 q 876 539 875 531 q 874 556 876 547 l 872 556 q 871 558 872 557 q 865 565 868 563 q 840 592 860 574 q 746 797 736 692 q 792 907 751 858 q 892 971 833 956 q 994 965 942 985 q 1088 906 1047 946 q 1142 812 1125 868 q 1156 697 1160 756 q 1130 676 1154 679 q 1103 692 1106 672 q 1098 730 1100 707 q 1093 773 1096 753 q 1086 811 1090 793 q 1031 896 1068 875 q 949 888 1000 914 q 896 839 914 869 q 880 770 876 808 q 907 700 883 732 q 936 667 914 689 q 967 636 958 646 q 1001 569 994 604 q 1004 547 1004 558 q 1003 526 1004 535 q 998 505 1003 517 q 990 486 993 493 q 978 467 988 479 q 966 451 969 456 q 951 433 963 446 q 936 417 939 421 q 920 401 933 414 q 904 386 907 389 q 818 246 839 321 q 810 160 806 208 q 838 81 815 113 q 900 24 861 44 q 982 4 939 4 q 1057 22 1022 4 q 1115 65 1092 40 q 1158 129 1138 90 q 1191 199 1179 168 q 1215 269 1203 229 m 475 81 q 539 136 508 100 q 518 133 528 135 q 329 167 422 126 q 353 110 340 132 q 406 68 372 75 q 475 81 439 61 m 586 203 q 657 367 635 282 q 654 717 710 557 q 568 858 626 799 q 430 931 510 917 q 281 901 350 946 q 167 781 211 857 q 113 606 121 700 q 135 429 106 513 q 169 725 126 590 q 206 765 178 753 q 264 771 235 776 q 308 742 293 765 q 318 690 324 719 q 306 279 274 454 q 318 208 315 228 q 567 172 438 143 q 586 203 575 186 z "},"œ":{"ha":869,"x_min":-42,"x_max":917,"o":"m 878 329 q 890 341 879 339 q 908 338 900 343 q 914 321 915 332 q 842 135 892 222 q 722 -1 785 31 q 571 -1 649 -39 q 478 135 499 33 q 471 179 474 157 q 340 119 419 132 q 213 -4 288 26 q 87 1 149 -32 q -1 100 25 33 q -34 232 -28 161 q -26 367 -40 303 q -4 398 -22 388 q 38 407 14 408 q 101 497 56 464 q 192 531 142 525 q 288 513 243 536 q 385 356 365 469 q 360 160 403 256 q 468 232 432 179 q 475 328 467 281 q 550 490 493 440 q 629 526 583 521 q 703 504 658 531 q 749 461 739 483 q 747 394 763 429 q 686 325 729 350 q 592 299 643 300 q 593 83 568 176 q 615 35 601 50 q 669 19 633 14 q 771 92 725 29 q 878 329 846 192 m 600 338 q 599 331 600 338 q 653 346 628 332 q 689 372 672 356 q 715 409 706 388 q 713 450 725 431 q 688 471 701 471 q 678 467 686 471 q 642 438 653 451 q 600 338 617 407 m 225 86 q 261 118 244 100 q 140 158 193 125 q 107 183 122 169 q 118 136 111 158 q 160 75 133 89 q 225 86 189 61 m 289 151 q 334 260 322 200 q 332 379 346 321 q 239 490 310 472 q 158 484 199 501 q 94 432 117 467 q 78 396 83 414 q 101 353 103 379 q 100 257 100 282 q 210 167 140 192 q 289 151 247 153 z "},"Š":{"ha":732,"x_min":64,"x_max":779,"o":"m 340 1081 q 308 1111 338 1085 q 308 1130 297 1122 q 332 1139 319 1138 q 364 1136 346 1140 q 385 1119 382 1132 q 386 1110 385 1117 q 388 1099 388 1103 q 396 1111 390 1103 q 403 1122 401 1119 q 439 1126 413 1136 q 451 1110 457 1121 l 410 1044 q 385 1037 403 1036 q 363 1047 368 1038 q 340 1081 358 1053 m 758 310 q 771 289 778 307 q 747 276 765 272 q 528 275 639 296 q 521 136 546 206 q 447 28 497 74 q 344 -47 389 -26 q 229 -57 278 -79 q 172 15 185 -36 q 272 203 149 115 q 411 279 336 250 q 396 304 404 292 q 311 378 369 339 q 280 397 300 385 q 247 418 260 410 q 217 439 235 426 q 185 463 199 451 q 158 488 172 474 q 133 517 144 501 q 111 549 121 532 q 71 675 78 608 q 89 807 64 742 q 161 917 113 871 q 275 983 210 963 q 394 990 335 1001 q 504 943 454 979 q 563 881 539 917 q 597 803 586 844 q 601 718 607 761 q 569 667 596 685 q 508 657 542 650 q 461 692 475 665 q 464 750 447 719 q 481 808 481 775 q 465 869 482 842 q 448 891 458 881 q 424 908 438 901 q 397 917 411 914 q 369 921 383 921 q 268 871 321 922 q 208 763 225 829 q 208 653 194 708 q 260 556 222 597 q 360 474 289 522 q 460 394 432 425 q 517 308 497 356 q 758 310 638 333 m 322 -7 q 399 83 369 28 q 428 197 429 139 q 424 244 428 224 q 332 199 375 225 q 228 106 257 151 q 225 3 196 51 q 269 -24 240 -24 q 322 -7 299 -25 z "},"š":{"ha":351,"x_min":-46,"x_max":404,"o":"m 121 629 q 89 661 118 633 q 89 679 78 671 q 113 689 100 688 q 144 685 126 690 q 165 668 163 681 q 167 658 165 665 q 168 649 168 651 q 174 656 171 651 q 179 664 176 660 q 185 672 182 668 q 219 676 193 685 q 232 660 239 669 q 190 593 222 644 q 166 586 183 585 q 143 596 149 588 q 121 629 139 601 m 390 300 q 402 289 400 297 q 397 274 404 281 q 381 271 390 268 q 206 265 290 294 l 207 265 q 288 138 285 213 q 265 61 289 97 q 204 6 242 25 q 113 -11 154 -19 q 49 17 83 -7 q 10 81 14 42 q 26 154 7 119 q 74 221 44 189 q -1 278 24 249 q -35 347 -26 307 q -36 424 -44 386 q 3 496 -26 463 q 71 547 32 529 q 159 565 110 568 q 242 533 208 563 q 281 469 271 507 q 281 396 292 432 q 240 373 271 369 q 207 404 210 376 q 176 461 203 453 q 157 460 169 463 q 132 447 144 457 q 97 401 104 431 q 103 346 89 371 q 172 286 119 317 q 390 300 276 329 m 149 76 q 175 115 171 93 q 121 194 185 160 q 107 203 115 197 q 79 167 92 186 q 65 137 71 154 q 56 101 58 119 q 61 69 53 82 q 89 54 69 56 q 149 76 119 53 z "},"Ÿ":{"ha":822,"x_min":67,"x_max":864,"o":"m 360 1029 q 360 1033 360 1031 q 360 1038 360 1036 q 360 1040 360 1039 q 361 1043 361 1042 q 361 1050 361 1047 q 369 1063 363 1058 q 374 1065 371 1064 q 379 1068 378 1067 q 397 1071 388 1071 q 411 1072 404 1072 q 432 1068 421 1072 l 444 1064 q 451 1061 449 1063 q 454 1063 453 1063 q 459 1065 456 1064 q 464 1068 463 1067 q 482 1071 472 1071 q 494 1072 489 1072 q 517 1068 506 1072 q 529 1064 521 1067 q 543 1056 538 1061 q 551 1044 549 1051 l 554 1039 q 556 1036 554 1038 q 558 1028 558 1033 q 557 1021 560 1024 q 553 1014 556 1015 q 544 1007 549 1010 q 533 1003 539 1004 q 519 1001 526 1001 q 506 1001 513 1000 q 482 1004 493 1001 q 469 1008 474 1007 l 465 1011 q 460 1007 463 1008 q 449 1003 454 1004 q 436 1001 442 1001 q 421 1001 428 1000 q 397 1004 410 1001 q 385 1008 386 1008 q 374 1015 374 1014 l 365 1022 l 360 1029 m 824 333 q 835 347 825 343 q 853 347 844 351 q 863 333 863 343 q 833 247 860 286 q 763 181 806 207 q 689 147 732 161 q 611 -104 678 -10 q 439 -221 542 -203 q 390 -224 415 -226 q 343 -217 365 -222 q 301 -196 321 -211 q 271 -157 282 -181 q 260 -95 257 -129 q 276 -33 264 -61 q 307 22 288 -4 q 472 132 365 100 q 551 150 501 142 q 550 226 551 176 q 542 451 550 243 q 540 504 540 475 q 415 204 490 318 q 290 114 364 125 q 147 168 203 100 q 83 340 103 222 q 69 536 68 442 q 83 722 72 631 q 89 772 85 735 q 96 826 93 808 q 106 872 99 844 q 121 922 113 900 q 159 956 132 949 q 210 951 186 964 q 239 908 235 938 q 240 844 240 864 q 233 778 239 825 q 225 714 226 732 q 214 528 215 590 q 218 360 213 432 q 228 274 221 335 q 244 210 232 235 q 276 169 261 179 q 333 181 297 156 q 370 216 353 193 q 396 253 388 239 q 419 299 404 268 q 538 682 496 451 q 538 683 538 682 q 547 910 536 836 q 601 961 554 956 q 643 954 621 964 q 668 925 665 944 q 690 633 685 839 q 693 350 693 479 q 692 183 693 206 q 693 185 692 183 q 784 244 747 206 q 824 333 821 282 m 536 21 q 550 117 547 63 q 365 32 424 92 q 309 -52 329 -4 q 310 -139 289 -100 q 341 -169 319 -160 q 386 -176 363 -179 q 465 -125 425 -171 q 536 21 513 -71 z "},"ž":{"ha":658,"x_min":-203,"x_max":708,"o":"m 275 629 q 243 661 272 633 q 240 674 235 668 q 252 684 244 681 q 267 689 260 688 q 299 685 281 690 q 319 668 317 681 q 321 658 319 665 q 322 649 322 651 q 339 672 331 660 q 374 676 347 685 q 386 660 393 669 q 344 593 382 654 q 320 586 338 585 q 297 596 303 588 q 275 629 293 601 m 663 351 q 678 364 667 361 q 699 360 690 367 q 704 342 708 353 q 518 61 649 150 q 553 -182 560 -49 q 435 -510 543 -364 q 298 -642 378 -586 q 132 -714 218 -697 q -35 -697 46 -731 q -157 -600 -115 -664 q -201 -439 -201 -522 q -164 -274 -201 -356 q 85 -47 -90 -115 q 251 3 142 -25 q 408 49 360 31 q 410 49 410 49 q 411 50 411 50 q 383 119 401 90 q 271 186 340 192 q 190 161 235 183 q 155 141 160 146 q 142 124 150 136 q 126 106 133 111 q 79 94 104 92 q 40 117 54 96 q 40 163 26 138 q 193 363 92 261 q 292 449 243 413 q 260 453 272 451 q 178 453 225 457 q 160 449 171 451 l 149 447 q 134 439 143 444 q 121 431 125 433 q 66 430 97 417 q 35 473 35 443 q 66 517 35 503 q 121 515 97 531 q 138 507 138 507 q 144 504 139 507 q 149 500 149 501 q 164 497 149 500 q 185 494 175 494 q 260 493 239 490 q 290 497 275 494 q 321 501 306 499 q 350 505 336 503 q 381 510 364 507 q 410 514 397 513 q 467 494 450 519 q 473 467 475 482 q 458 443 471 453 q 401 397 439 426 q 333 344 363 368 q 278 296 303 319 q 236 250 257 275 q 271 256 254 254 q 450 174 375 260 q 501 97 479 140 q 513 106 507 101 q 663 351 614 185 m 428 -161 q 422 -14 433 -92 q 419 13 421 1 q 285 -26 372 -3 q 169 -57 197 -49 q -101 -244 -19 -114 q -156 -392 -144 -314 q -135 -547 -167 -469 q -69 -618 -114 -593 q 23 -643 -25 -643 q 121 -632 71 -643 q 338 -439 242 -596 q 428 -161 414 -312 z "},"‰":{"ha":1065,"x_min":63,"x_max":1004,"o":"m 300 610 q 225 554 269 563 q 122 585 169 543 q 71 685 78 624 q 88 797 64 746 q 112 823 94 815 q 147 826 129 831 q 169 815 158 824 q 244 835 204 842 q 314 799 283 829 q 338 713 347 765 q 300 610 325 647 m 190 626 q 231 617 210 613 q 268 634 251 621 q 295 668 285 647 q 304 708 306 689 q 272 796 304 757 q 196 813 240 835 q 181 801 188 808 q 182 775 188 788 q 164 729 169 751 q 165 726 165 726 q 178 701 169 713 q 200 676 186 690 q 219 657 214 663 q 219 651 222 654 q 213 650 215 649 q 158 696 181 663 q 190 626 157 649 m 540 272 q 615 292 575 299 q 685 256 654 286 q 708 169 719 222 q 672 67 696 104 q 596 11 640 19 q 494 42 542 0 q 442 142 450 81 q 458 254 435 203 q 483 280 465 272 q 518 283 500 288 q 540 272 531 281 m 561 83 q 638 90 599 57 q 676 165 676 122 q 663 224 675 194 q 624 269 650 253 q 567 269 597 285 q 551 258 558 265 q 553 232 558 244 q 536 186 542 208 q 536 183 536 183 q 550 158 542 169 q 572 133 558 147 q 592 114 586 119 q 591 109 594 111 q 583 107 588 107 q 531 153 551 119 q 561 83 528 106 m 969 256 q 993 169 1003 222 q 956 67 981 104 q 881 11 925 19 q 778 42 825 0 q 726 142 733 81 q 743 254 719 203 q 757 274 747 265 q 778 284 767 282 q 803 283 790 286 q 825 272 814 281 q 899 292 860 299 q 969 256 939 286 m 846 83 q 922 90 883 57 q 960 165 961 122 q 928 253 960 214 q 851 269 896 292 q 836 258 843 265 q 838 232 843 244 q 819 186 825 208 q 821 183 821 183 q 833 158 825 169 q 856 133 842 147 q 875 114 869 119 q 874 109 878 111 q 868 107 871 107 q 814 153 836 119 q 846 83 813 106 m 619 882 q 458 388 532 654 q 396 138 424 264 q 368 10 379 64 q 353 -50 361 -22 q 310 -110 344 -82 q 278 -119 299 -121 q 250 -104 258 -118 q 229 -35 225 -67 q 238 32 232 -4 q 263 160 250 101 q 325 415 290 288 q 496 911 390 653 q 527 945 504 935 q 574 950 550 956 q 613 924 597 944 q 619 882 628 904 z "},"€":{"ha":771,"x_min":65,"x_max":706,"o":"m 685 32 q 701 10 704 29 q 679 -7 697 -10 q 394 110 508 11 q 221 413 256 228 q 89 411 149 413 q 72 420 76 411 q 72 438 67 429 q 89 446 76 446 q 215 446 147 446 q 211 496 213 471 q 89 494 149 496 q 72 503 76 494 q 72 521 67 513 q 89 529 76 529 q 211 529 144 529 q 226 638 213 583 q 365 883 261 781 q 501 974 426 943 q 654 993 576 1006 q 687 972 674 989 q 697 935 700 956 q 677 903 694 915 q 638 890 660 890 q 519 856 578 889 q 425 776 472 829 q 313 528 329 671 q 556 528 421 528 q 572 513 572 528 q 556 497 572 497 q 310 496 424 497 q 311 444 310 471 q 556 444 421 444 q 572 429 572 444 q 556 414 572 414 q 314 413 421 414 q 335 332 321 371 q 470 136 374 218 q 685 32 567 54 z "},"":{"ha":714,"x_min":-478,"x_max":1000,"o":"m 956 738 q 961 606 1000 660 q 885 557 932 567 q 806 588 838 547 q 804 625 794 607 q 835 649 814 643 q 858 654 856 654 q 879 654 864 656 l 881 654 l 883 654 l 886 656 q 890 658 888 656 q 915 701 915 674 q 883 763 917 739 q 806 796 849 786 q 513 800 688 822 q 503 799 510 800 q 496 797 496 799 q 493 585 496 738 q 483 313 490 425 q 479 265 482 299 q 476 211 476 231 q 476 163 475 192 q 481 111 476 135 q 494 65 486 88 q 563 28 518 8 q 646 111 600 43 q 729 333 714 211 q 740 347 731 343 q 759 347 750 351 q 767 333 768 343 q 657 60 747 179 q 564 -19 610 -3 q 444 -1 500 -44 q 375 115 400 32 q 367 150 371 132 q 311 60 343 101 q 268 10 289 29 q 219 -19 247 -10 q 100 -1 156 -44 q 31 115 56 32 q 7 265 11 181 q 3 581 3 394 q 4 696 4 667 q -65 683 -33 689 q -206 669 -140 672 q -239 669 -219 671 l -240 669 q -247 669 -243 669 q -257 668 -251 668 q -265 668 -262 668 q -368 685 -325 668 q -431 725 -411 703 q -462 777 -451 747 q -475 823 -474 807 q -476 851 -476 839 q -426 881 -456 874 q -365 878 -397 889 q -360 875 -364 876 l -360 872 q -364 864 -361 869 q -372 842 -367 858 q -379 810 -378 825 q -376 777 -381 796 q -360 744 -372 758 q -323 720 -349 731 q -258 707 -297 710 q -246 707 -251 707 q -150 708 -208 706 q 4 728 -81 714 q 13 903 6 829 q 48 953 15 939 q 113 953 81 968 q 147 903 146 939 q 151 758 151 840 q 240 778 168 761 q 351 804 313 796 q 357 903 353 858 q 393 953 360 939 q 459 953 426 968 q 493 903 492 939 q 496 829 494 869 q 690 842 600 844 q 765 836 733 840 q 837 822 797 832 q 906 791 876 813 q 956 738 936 769 m 301 111 q 356 217 335 160 q 353 265 353 240 q 349 581 347 394 q 350 772 349 717 q 224 744 306 763 q 192 736 218 742 q 150 726 165 731 q 149 585 150 690 q 138 313 144 425 q 135 272 138 299 q 132 229 133 246 q 131 188 131 213 q 132 145 131 164 q 138 105 133 126 q 150 65 142 83 q 217 28 174 8 q 301 111 254 43 z "},"":{"ha":556,"x_min":-785,"x_max":604,"o":"m 569 357 q 575 365 571 361 q 584 367 579 368 q 594 365 589 367 q 601 359 599 364 q 603 349 604 354 q 577 267 593 307 q 539 190 561 226 q 487 121 517 153 q 422 67 457 89 q 174 33 308 -7 q 285 -247 278 -93 q 257 -392 290 -344 q 182 -433 229 -429 q 99 -411 135 -437 q 18 -264 42 -372 q 7 -200 11 -233 q -62 -262 -26 -233 q -367 -426 -197 -376 q -491 -449 -431 -444 q -615 -435 -551 -453 q -722 -374 -679 -418 q -772 -236 -785 -311 q -741 -167 -765 -199 q -682 -117 -717 -135 q -581 -98 -632 -90 q -485 -135 -529 -106 q -412 -208 -442 -165 q -426 -253 -392 -239 q -478 -246 -460 -267 q -483 -225 -485 -239 q -510 -162 -481 -189 q -579 -129 -540 -135 q -657 -142 -619 -124 q -717 -194 -694 -160 q -717 -324 -758 -260 q -600 -408 -675 -389 q -274 -349 -471 -442 q -40 -179 -135 -282 q -1 -133 -19 -157 q -4 -79 -4 -106 q -5 45 -6 15 q 1 169 -4 75 q 6 293 6 264 q 22 668 7 314 q 60 719 25 704 q 128 719 94 735 q 161 668 163 704 q 149 303 149 317 q 144 198 147 271 q 139 86 140 125 q 278 53 203 49 q 414 103 353 57 q 569 357 531 188 m 232 -211 q 153 -10 222 -103 l 135 18 l 136 -39 q 163 -308 133 -214 q 173 -330 167 -321 q 189 -344 179 -339 q 210 -337 199 -349 q 232 -211 242 -312 z "},"":{"ha":318,"x_min":-786,"x_max":367,"o":"m 176 26 q 283 -242 274 -93 q 258 -382 290 -335 q 181 -426 231 -422 q 93 -400 131 -429 q 15 -256 40 -364 q 3 -197 8 -228 q -64 -262 -28 -231 q -364 -435 -196 -379 q -487 -460 -426 -454 q -612 -451 -547 -467 q -721 -392 -676 -435 q -774 -254 -785 -329 q -744 -185 -767 -217 q -686 -133 -721 -153 q -586 -112 -637 -106 q -490 -148 -535 -119 q -414 -219 -446 -176 q -428 -262 -394 -247 q -479 -257 -461 -278 q -486 -236 -487 -249 q -516 -173 -485 -199 q -587 -143 -547 -147 q -662 -158 -626 -139 q -719 -212 -699 -178 q -733 -305 -746 -261 q -682 -381 -719 -349 q -597 -424 -644 -412 q -272 -353 -467 -453 q -43 -176 -133 -282 q -7 -131 -24 -153 q -11 -75 -10 -104 q -15 38 -15 -19 q -14 180 -15 96 q -11 293 -12 264 q -6 672 -11 313 q 29 724 -6 710 q 98 724 64 739 q 132 672 132 710 q 131 307 131 322 q 129 201 131 278 q 128 81 128 124 q 200 65 164 50 q 265 133 235 79 q 331 363 315 219 q 340 376 331 372 q 357 376 349 379 q 365 363 365 372 q 282 90 349 183 q 257 60 271 74 q 225 38 243 47 q 188 26 207 29 q 176 26 182 26 m 211 -329 q 229 -201 242 -301 q 144 -3 215 -93 q 126 18 136 8 q 128 -11 126 8 q 128 -33 128 -25 q 161 -299 131 -204 q 182 -332 169 -326 q 211 -329 197 -342 z "},"":{"ha":968,"x_min":67,"x_max":1064,"o":"m 1046 942 q 1051 907 1064 925 q 1017 892 1039 889 q 988 912 994 893 q 999 944 982 931 q 824 1006 988 1018 q 597 958 761 1000 q 531 943 560 949 q 542 911 540 929 q 550 417 556 661 q 574 417 557 417 q 612 417 590 417 q 643 417 633 417 q 644 474 643 443 q 664 714 646 593 q 743 919 685 853 q 831 978 782 965 q 881 979 847 982 q 922 967 904 978 q 969 803 985 931 q 938 686 961 742 q 874 585 914 631 q 782 510 833 539 q 778 425 779 474 q 781 222 774 346 q 789 119 783 174 q 811 49 794 72 q 826 38 818 40 q 841 41 833 36 q 856 53 849 46 q 870 72 863 61 q 884 94 878 83 q 896 117 890 104 q 904 135 901 129 q 910 147 907 142 q 963 329 946 233 q 976 342 965 339 q 995 338 986 344 q 1001 321 1004 331 q 921 74 978 189 q 856 -1 893 17 q 753 11 808 -24 q 713 50 729 26 q 685 108 696 74 q 669 163 674 142 q 658 221 665 183 q 644 385 646 293 q 612 385 633 385 q 573 385 590 385 q 550 385 556 385 q 549 333 549 349 q 535 198 546 256 q 494 90 524 140 q 419 11 465 42 q 319 -24 374 -19 q 255 -20 288 -26 q 192 1 222 -14 q 140 38 163 15 q 69 214 75 103 q 80 304 68 257 q 115 391 92 351 q 180 451 139 431 q 271 461 221 472 q 338 410 318 450 q 350 321 358 371 q 338 269 349 310 q 328 207 328 229 q 341 158 328 181 q 379 136 354 135 q 382 135 381 136 q 403 242 399 176 q 408 385 407 300 q 388 385 401 385 q 369 385 375 385 q 353 392 358 385 q 353 408 349 400 q 369 415 358 415 q 379 415 374 415 q 389 415 385 415 q 399 415 393 415 q 408 415 404 415 q 410 457 408 429 q 408 602 410 522 q 406 767 407 682 q 404 911 404 851 q 406 922 404 917 q 174 954 274 911 q 157 999 140 968 q 201 1025 171 1028 q 218 1018 210 1024 q 278 989 247 1000 q 345 975 310 978 q 407 972 381 972 q 476 979 433 972 q 539 990 518 986 q 607 1006 560 994 q 669 1021 654 1017 q 911 1042 813 1053 q 1003 1013 964 1036 q 1046 943 1042 989 l 1046 942 m 351 85 q 365 101 358 92 q 304 144 325 107 q 289 224 283 181 q 297 263 290 238 q 309 310 304 289 q 315 354 314 331 q 307 396 317 378 q 275 424 297 414 q 201 420 238 440 q 144 363 165 400 q 124 185 100 281 q 161 113 135 144 q 226 65 188 82 q 292 54 257 50 q 351 85 328 58 m 808 801 q 783 557 792 697 q 888 676 850 601 q 931 835 926 750 q 919 914 933 886 q 896 940 910 933 q 864 936 878 949 q 808 801 822 893 z "},"":{"ha":615,"x_min":-26,"x_max":971,"o":"m 953 942 q 958 907 971 925 q 924 892 946 889 q 895 912 901 893 q 906 944 889 931 q 731 1006 894 1018 q 504 958 668 1000 q 438 943 467 949 q 449 911 447 929 q 457 417 463 661 q 474 417 463 417 q 498 417 485 417 q 524 417 511 417 q 549 417 538 417 q 564 417 560 417 q 580 409 575 417 q 580 394 585 401 q 564 385 575 386 q 534 385 557 385 q 488 385 511 385 q 457 385 464 385 q 456 333 456 349 q 442 198 453 256 q 401 90 431 140 q 326 11 372 42 q 226 -24 281 -19 q 130 -12 178 -28 q 47 38 82 4 q -24 214 -18 103 q -13 304 -25 257 q 22 391 -1 351 q 87 451 46 431 q 178 461 128 472 q 245 410 225 450 q 257 321 265 371 q 249 285 256 307 q 239 244 243 264 q 235 207 235 224 q 248 158 235 181 q 286 136 261 135 q 289 135 288 136 q 310 242 306 176 q 315 385 314 300 q 295 385 308 385 q 276 385 282 385 q 260 392 265 385 q 260 408 256 400 q 276 415 265 415 q 289 415 282 415 q 303 415 296 415 q 315 415 310 415 q 317 457 315 429 q 315 602 317 522 q 313 767 314 682 q 311 911 311 851 q 313 922 311 917 q 81 954 181 911 q 64 999 47 968 q 108 1025 78 1028 l 125 1018 q 185 989 154 1000 q 252 975 217 978 q 314 972 288 972 q 383 979 340 972 q 446 990 425 986 q 514 1006 467 994 q 576 1021 561 1017 q 818 1042 719 1053 q 910 1013 871 1036 q 953 943 949 989 l 953 942 m 133 65 q 199 54 164 50 q 258 85 235 58 q 272 101 265 92 q 211 144 232 107 q 196 224 190 181 q 204 263 197 238 q 216 310 211 289 q 222 354 221 331 q 214 396 224 378 q 182 424 204 414 q 108 420 144 440 q 51 363 72 400 q 31 185 7 281 q 68 113 42 144 q 133 65 94 82 z "},"":{"ha":514,"x_min":-612,"x_max":561,"o":"m 522 338 q 543 354 524 354 q 560 338 561 353 q 500 187 551 253 q 368 94 449 121 q 363 93 367 94 q 361 92 361 93 q 360 89 361 90 q 194 -49 297 -40 q 140 -42 168 -51 q 100 -12 111 -33 q 72 -24 89 -25 q 44 -10 56 -24 q 31 14 36 0 q 22 38 25 28 q 16 66 19 47 q 11 90 13 85 q -11 196 1 131 q -39 406 -32 310 q -43 472 -43 438 q -142 478 -97 463 q -264 579 -215 501 q -335 908 -343 708 q -322 1019 -332 972 q -364 1032 -344 1025 q -389 1042 -367 1033 q -419 1053 -411 1050 q -445 1060 -428 1056 q -476 1063 -462 1064 q -503 1058 -490 1063 q -531 1044 -519 1054 q -539 1019 -542 1033 q -524 978 -532 992 q -535 936 -507 951 q -583 939 -562 921 q -611 992 -611 961 q -585 1042 -611 1011 q -494 1093 -546 1088 q -372 1068 -449 1099 q -315 1049 -342 1057 q -232 1185 -290 1138 q -166 1219 -203 1208 q -92 1222 -129 1229 q -29 1185 -54 1214 q -13 1085 8 1135 q -92 1017 -35 1036 q -285 1010 -176 989 q -293 879 -294 956 q -222 585 -290 689 q -125 507 -181 524 q -44 504 -89 496 q -12 779 -44 644 q 57 940 14 893 q 90 967 71 956 q 129 985 108 979 q 172 988 150 992 q 210 969 193 985 q 223 957 215 965 q 235 944 231 949 q 254 921 246 935 q 272 858 271 894 q 236 710 275 797 q 101 528 189 603 q 101 524 101 526 q 101 519 101 521 q 104 263 99 439 q 107 201 106 239 q 119 251 113 228 q 156 360 133 307 q 206 457 185 431 q 276 497 232 490 q 354 475 321 503 q 411 290 417 425 q 381 136 407 208 q 432 167 408 149 q 522 338 513 232 m 126 764 q 104 572 110 672 q 188 689 154 625 q 229 806 217 746 q 201 924 247 897 q 175 909 186 919 q 157 888 164 899 q 144 857 150 876 q 135 826 138 838 q 130 792 133 814 q 126 764 126 771 m -236 1129 q -278 1040 -264 1093 q -221 1033 -249 1035 q -87 1053 -133 1029 q -47 1092 -60 1067 q -44 1144 -35 1118 q -85 1186 -57 1174 q -144 1192 -114 1199 q -236 1129 -197 1181 m 172 28 q 200 64 186 44 q 138 24 150 49 q 137 8 133 13 q 149 7 140 3 q 172 28 157 11 m 286 388 q 282 450 288 433 q 256 453 269 464 q 232 426 242 443 q 194 356 215 403 q 122 61 132 215 q 225 103 156 90 q 282 299 274 193 q 286 388 283 321 z "},"":{"ha":626,"x_min":-261,"x_max":674,"o":"m 633 329 q 645 342 635 339 q 665 338 656 344 q 672 321 674 331 q 590 74 649 189 q 526 -1 563 17 q 424 11 478 -24 q 389 44 404 24 q 365 82 374 64 q 348 130 356 100 q 337 175 340 160 q 328 221 333 190 q 324 251 326 236 q 296 181 311 214 q 267 121 281 146 q 230 67 253 96 q 177 24 207 38 q 113 15 147 11 q 50 43 76 19 q 10 101 24 67 q -8 171 -3 136 q -12 240 -14 206 q 25 382 -10 314 q 118 489 60 450 q 151 508 135 500 q 88 579 115 535 q 17 908 8 708 q 29 1019 19 972 q -12 1032 7 1025 q -37 1042 -15 1033 q -68 1053 -60 1050 q -94 1060 -76 1056 q -125 1063 -111 1064 q -151 1058 -139 1063 q -169 1051 -161 1056 q -183 1038 -178 1046 q -187 1019 -189 1029 q -172 978 -181 992 q -183 936 -156 951 q -232 939 -211 921 q -260 992 -260 961 q -233 1042 -260 1011 q -143 1093 -194 1088 q -21 1068 -97 1099 q 36 1049 10 1057 q 119 1185 61 1138 q 185 1219 149 1208 q 260 1222 222 1229 q 322 1185 297 1214 q 338 1085 360 1135 q 260 1017 317 1036 q 67 1010 175 989 q 58 879 57 956 q 129 585 61 689 q 192 522 157 544 q 263 524 229 532 q 308 506 285 519 q 315 506 311 506 q 335 714 319 611 q 413 919 354 853 q 501 978 453 965 q 551 979 517 982 q 592 967 575 978 q 639 803 656 931 q 578 631 628 710 q 451 510 529 553 q 447 425 450 474 q 450 222 444 346 q 460 119 453 174 q 482 49 465 72 q 510 40 497 38 q 541 72 524 43 q 566 117 558 101 q 579 147 574 132 q 633 329 615 233 m 478 801 q 454 557 463 697 q 531 631 499 586 q 581 727 563 675 q 600 835 599 779 q 589 914 603 886 q 565 940 581 933 q 533 936 547 949 q 478 801 492 893 m 115 1129 q 74 1040 88 1093 q 131 1033 103 1035 q 264 1053 218 1029 q 304 1092 292 1067 q 307 1144 317 1118 q 266 1186 294 1174 q 207 1192 238 1199 q 115 1129 154 1181 m 289 288 q 314 372 301 325 q 314 443 314 406 q 281 454 301 457 q 238 436 261 450 q 167 368 200 415 q 107 189 113 290 q 122 92 106 136 q 183 86 139 49 q 247 181 214 111 q 289 288 269 228 z "},"":{"ha":554,"x_min":-642,"x_max":603,"o":"m 567 361 q 585 372 569 375 q 599 353 601 368 q 553 172 574 231 q 519 87 538 125 q 475 18 500 49 q 416 -19 451 -10 q 347 -15 381 -28 q 289 38 311 0 q 261 118 267 75 q 269 294 251 185 q 306 467 285 381 q 310 482 306 469 q 317 504 315 494 q 319 524 319 514 q 314 539 319 535 q 251 503 292 556 q 183 354 215 456 q 114 57 144 226 q 107 -3 117 17 q 78 -24 99 -22 q 44 -10 58 -26 q 31 14 36 0 q 22 38 25 28 q 16 66 19 47 q 11 90 13 85 q -10 196 1 131 q -39 406 -31 310 q -43 478 -42 442 q -171 478 -114 458 q -293 579 -244 501 q -364 908 -372 708 q -351 1019 -361 972 q -393 1032 -374 1025 q -418 1042 -396 1033 q -449 1053 -440 1050 q -474 1060 -457 1056 q -506 1063 -492 1064 q -532 1058 -519 1063 q -560 1044 -549 1054 q -568 1019 -571 1033 q -553 978 -561 992 q -564 936 -536 951 q -612 939 -592 921 q -640 992 -640 961 q -614 1042 -640 1011 q -524 1093 -575 1088 q -401 1068 -478 1099 q -344 1049 -371 1057 q -261 1185 -319 1138 q -212 1212 -239 1201 q -158 1225 -186 1222 q -103 1217 -131 1228 q -58 1185 -76 1207 q -42 1085 -21 1135 q -121 1017 -64 1036 q -314 1010 -206 989 q -322 879 -324 956 q -251 585 -319 689 q -154 507 -210 524 q -43 513 -106 493 q -12 779 -43 647 q 57 940 14 893 q 102 976 76 963 q 158 989 128 989 q 211 969 188 989 q 224 957 215 965 q 235 944 232 949 q 254 921 246 935 q 272 858 271 894 q 236 710 275 797 q 101 528 190 603 q 101 524 101 526 l 101 519 q 106 263 100 439 q 107 217 106 244 q 161 400 129 310 q 233 533 192 488 q 343 569 288 593 q 385 541 368 558 q 409 500 401 524 q 421 456 417 476 q 423 404 425 436 q 419 354 421 372 q 411 302 417 336 q 404 257 406 268 q 396 89 394 189 q 407 31 397 57 q 408 28 408 28 q 413 26 411 26 q 447 49 435 35 q 522 200 488 94 q 567 361 540 253 m 126 764 q 104 572 110 672 q 188 689 156 625 q 229 806 217 746 q 201 924 247 897 q 175 909 186 919 q 157 888 164 899 q 144 857 150 876 q 136 826 139 838 q 131 792 133 814 q 126 764 128 771 m -265 1129 q -307 1040 -293 1093 q -250 1033 -278 1035 q -117 1053 -162 1029 q -76 1092 -89 1067 q -74 1144 -64 1118 q -115 1186 -86 1174 q -174 1192 -143 1199 q -265 1129 -226 1181 m 408 28 z "},"":{"ha":494,"x_min":-642,"x_max":561,"o":"m 521 363 q 535 374 525 372 q 553 369 546 375 q 557 354 561 364 q 533 283 542 307 q 503 215 524 258 q 465 145 483 171 q 417 92 447 119 q 354 49 388 64 q 262 44 306 31 q 182 93 218 57 q 124 176 150 126 q 126 129 126 146 q 128 97 126 118 q 129 67 129 75 q 122 -3 131 15 q 94 -24 114 -22 q 60 -10 74 -26 q 46 14 51 0 q 38 38 40 28 q 31 66 35 47 q 26 90 28 85 q 4 196 17 131 q -25 406 -17 310 q -28 483 -28 443 q -171 478 -107 457 q -293 579 -244 501 q -364 908 -372 708 q -351 1019 -361 972 q -393 1032 -374 1025 q -418 1042 -396 1033 q -449 1053 -440 1050 q -474 1060 -457 1056 q -506 1063 -492 1064 q -532 1058 -519 1063 q -550 1051 -542 1056 q -564 1038 -558 1046 q -568 1019 -569 1029 q -553 978 -561 992 q -564 936 -536 951 q -612 939 -592 921 q -640 992 -640 961 q -614 1042 -640 1011 q -524 1093 -575 1088 q -401 1068 -478 1099 q -344 1049 -371 1057 q -261 1185 -319 1138 q -212 1212 -239 1201 q -158 1225 -186 1222 q -103 1217 -131 1228 q -58 1185 -76 1207 q -42 1085 -21 1135 q -121 1017 -64 1036 q -314 1010 -206 989 q -322 879 -324 956 q -251 585 -319 689 q -154 507 -210 524 q -29 517 -100 490 q 3 779 -28 650 q 72 940 29 893 q 117 976 90 963 q 173 989 143 989 q 225 969 203 989 q 238 957 231 965 q 250 944 246 949 q 269 921 261 935 q 288 858 286 894 q 251 710 290 797 q 117 528 204 603 q 117 524 117 526 q 117 519 117 521 q 115 418 115 474 q 135 453 125 438 q 281 572 196 550 q 365 558 328 585 q 403 481 403 531 q 367 393 401 435 q 285 321 332 351 q 182 276 233 288 q 249 150 217 190 q 346 106 293 93 q 454 210 401 119 q 521 363 481 256 m 142 764 q 118 572 124 672 q 203 689 169 625 q 244 806 232 746 q 217 924 263 897 q 190 909 201 919 q 172 888 178 899 q 159 857 165 876 q 151 826 153 838 q 145 792 149 814 q 142 764 142 771 m -265 1129 q -307 1040 -293 1093 q -250 1033 -278 1035 q -117 1053 -162 1029 q -76 1092 -89 1067 q -74 1144 -64 1118 q -115 1186 -86 1174 q -175 1192 -143 1199 q -265 1129 -226 1181 m 135 356 q 176 365 171 363 q 250 400 214 376 q 324 467 299 431 q 335 488 331 476 q 342 510 340 499 q 338 531 344 522 q 315 540 331 539 q 229 501 279 543 q 167 425 193 472 q 135 356 150 396 z "},"":{"ha":303,"x_min":-554,"x_max":350,"o":"m 308 329 q 320 342 310 339 q 340 338 331 344 q 347 321 349 331 q 267 74 324 189 q 201 -1 238 17 q 99 11 153 -24 q 58 50 75 26 q 30 108 40 74 q 15 163 19 142 q 4 221 10 183 q -11 468 -12 318 q -83 478 -50 467 q -206 579 -157 501 q -276 908 -285 708 q -264 1019 -274 972 q -306 1032 -286 1025 q -331 1042 -308 1033 q -361 1053 -353 1050 q -387 1060 -369 1056 q -418 1063 -404 1064 q -444 1058 -432 1063 q -472 1044 -461 1054 q -481 1019 -483 1033 q -465 978 -474 992 q -476 936 -449 951 q -525 939 -504 921 q -553 992 -553 961 q -526 1042 -553 1011 q -436 1093 -487 1088 q -314 1068 -390 1099 q -257 1049 -283 1057 q -174 1185 -232 1138 q -108 1219 -144 1208 q -33 1222 -71 1229 q 29 1185 4 1214 q 45 1085 67 1135 q -33 1017 24 1036 q -226 1010 -118 989 q -235 879 -236 956 q -164 585 -232 689 q -67 507 -122 524 q -10 501 -40 499 q 10 714 -7 607 q 88 919 31 853 q 176 978 128 965 q 226 979 192 982 q 268 967 250 978 q 314 803 331 931 q 253 631 303 710 q 126 510 204 553 q 122 425 125 475 q 126 222 119 346 q 135 119 128 174 q 157 49 140 72 q 176 38 167 40 q 196 48 185 35 q 215 72 207 61 q 233 102 224 83 q 247 130 243 121 q 256 147 251 139 q 308 329 290 233 m -178 1129 q -219 1040 -206 1093 q -162 1033 -190 1035 q -29 1053 -75 1029 q 11 1092 -1 1067 q 14 1144 24 1118 q -27 1186 1 1174 q -86 1192 -56 1199 q -178 1129 -139 1181 m 153 801 q 129 557 138 697 q 234 676 196 601 q 276 835 272 750 q 264 914 278 886 q 240 940 256 933 q 210 936 222 949 q 153 801 167 893 z "}}}
